<svg xmlns="http://www.w3.org/2000/svg" xmlns:xlink="http://www.w3.org/1999/xlink" viewBox="0 0 268.15 227.34"><defs><style>.cls-1{mask:url(#mask);}.cls-10,.cls-12,.cls-16,.cls-2,.cls-20,.cls-24,.cls-25,.cls-3,.cls-32,.cls-33,.cls-7,.cls-8,.cls-9{mix-blend-mode:multiply;}.cls-2{fill:url(#radial-gradient);}.cls-3{fill:url(#radial-gradient-2);}.cls-4{fill:none;}.cls-5{isolation:isolate;}.cls-6{clip-path:url(#clip-path);}.cls-10,.cls-21,.cls-25,.cls-7,.cls-8,.cls-9{opacity:0.7;}.cls-7{fill:url(#linear-gradient);}.cls-8{fill:url(#linear-gradient-2);}.cls-9{fill:url(#linear-gradient-3);}.cls-10{fill:url(#linear-gradient-4);}.cls-11,.cls-20,.cls-25{fill:#2b2c2f;}.cls-12{fill:#0b0c0b;}.cls-12,.cls-39{opacity:0.6;}.cls-13,.cls-22,.cls-39,.cls-40{fill:#343539;}.cls-13,.cls-36,.cls-38,.cls-40{mix-blend-mode:screen;}.cls-14{fill:#0f1319;}.cls-15,.cls-16{fill:#41413e;}.cls-16,.cls-20,.cls-24,.cls-32{opacity:0.4;}.cls-17{fill:#2e2e2b;}.cls-18{fill:#646361;}.cls-19{fill:#363633;}.cls-23{fill:#151a1f;}.cls-24{fill:#313b47;}.cls-26{fill:#b26d0d;}.cls-27{fill:#5f240d;}.cls-28{fill:#160000;}.cls-29{fill:#fff;}.cls-30{fill:#b7b6b6;}.cls-31,.cls-32,.cls-33{fill:#777163;}.cls-34{fill:#615d51;}.cls-35{mask:url(#mask-3);}.cls-36{fill:url(#radial-gradient-3);}.cls-37{fill:#1d1d1b;}.cls-38{opacity:0.9;}.cls-40{opacity:0.5;}.cls-41{fill:#999998;}.cls-42{filter:url(#luminosity-noclip);}</style><filter id="luminosity-noclip" x="57.75" y="-8307" width="55.76" height="32766" filterUnits="userSpaceOnUse" color-interpolation-filters="sRGB"><feFlood flood-color="#fff" result="bg"/><feBlend in="SourceGraphic" in2="bg"/></filter><mask id="mask" x="57.75" y="-8307" width="55.76" height="32766" maskUnits="userSpaceOnUse"><g class="cls-42"/></mask><radialGradient id="radial-gradient" cx="44.22" cy="-10.64" r="79.44" gradientUnits="userSpaceOnUse"><stop offset="0" stop-color="#aeaeae"/><stop offset="0.67" stop-color="#aeaeae"/><stop offset="0.99"/></radialGradient><radialGradient id="radial-gradient-2" cx="50.76" cy="-9.22" r="79.44" gradientUnits="userSpaceOnUse"><stop offset="0" stop-color="#fff"/><stop offset="0.67" stop-color="#fff"/><stop offset="0.99"/></radialGradient><clipPath id="clip-path" transform="translate(-54.42 -1.66)"><rect class="cls-4" width="345" height="231"/></clipPath><linearGradient id="linear-gradient" x1="7.67" y1="68.38" x2="7.67" y2="40.61" gradientTransform="translate(330.23 184.67) rotate(180)" gradientUnits="userSpaceOnUse"><stop offset="0.25" stop-color="#fff"/><stop offset="0.42" stop-color="#ed9658"/><stop offset="0.65" stop-color="#8a462c"/><stop offset="0.89" stop-color="#4c2600"/></linearGradient><linearGradient id="linear-gradient-2" x1="7.87" y1="67.87" x2="7.87" y2="40.52" xlink:href="#linear-gradient"/><linearGradient id="linear-gradient-3" x1="7.77" y1="67.87" x2="7.77" y2="40.52" xlink:href="#linear-gradient"/><linearGradient id="linear-gradient-4" x1="7.7" y1="68.19" x2="7.7" y2="40.57" xlink:href="#linear-gradient"/><mask id="mask-3" x="3.33" y="22.42" width="55.76" height="39.9" maskUnits="userSpaceOnUse"><g transform="translate(-54.42 -1.66)"><g class="cls-1"><path class="cls-2" d="M102.93,24.25S86.39,30.68,57.75,64c0,0,22.6-18.09,40.51-23.69s15.88-7,14.17-10.9S104.64,23.47,102.93,24.25Z"/></g></g></mask><filter id="luminosity-noclip-3" x="57.75" y="24.08" width="55.76" height="39.9" filterUnits="userSpaceOnUse" color-interpolation-filters="sRGB"><feFlood flood-color="#fff" result="bg"/><feBlend in="SourceGraphic" in2="bg"/></filter><radialGradient id="radial-gradient-3" cx="50.76" cy="-9.22" r="79.44" gradientUnits="userSpaceOnUse"><stop offset="0" stop-color="#4f514f"/><stop offset="0.67" stop-color="#aaaaa9"/><stop offset="0.99" stop-color="#fff"/></radialGradient></defs><title>Asset 1</title><g class="cls-5"><g id="Layer_2" data-name="Layer 2"><g id="Layer_1-2" data-name="Layer 1"><g class="cls-6"><path class="cls-7" d="M322.55,150.07c0-.09,0-.07,0,0Z" transform="translate(-54.42 -1.66)"/><path class="cls-8" d="M322.32,150.79c0-.09.05-.17.07-.24S322.34,150.71,322.32,150.79Z" transform="translate(-54.42 -1.66)"/><path class="cls-9" d="M322.44,150.4l0-.08Z" transform="translate(-54.42 -1.66)"/><path class="cls-10" d="M322.51,150.21a.68.68,0,0,1,0-.13A.68.68,0,0,0,322.51,150.21Z" transform="translate(-54.42 -1.66)"/><path class="cls-11" d="M313.14,182.22c-.89-2.91-3.57-5.56-5.41-8-2.83-3.72-5.45-7.61-8.09-11.47-4.61-6.71-9.56-13.31-14.81-19.53C274.3,130.76,262.7,118.18,249.08,109c-6.11-4.11-11.78-7.72-18.94-9.75-7.39-2.1-14.42-4.31-22.11-5.18a36.62,36.62,0,0,0-10.7.65c-2.12.39-4.8,1.27-6.17,3.07-2.92,3.86-1.88,8.32-.16,12.52-.29-.47-.57-.93-.88-1.38,0,0-.08,0-.06,0,3.88,6.56,5.83,14.21,9.36,21s8.08,13.47,13.84,18.38c1.18,1,3.42,2.88,5.05,2.11a1.13,1.13,0,0,0,.43-.37,46.16,46.16,0,0,0,5.87,6.24,70.12,70.12,0,0,0,10.82,7.86c2.28,1.33,6,4.31,8.81,4a.57.57,0,0,0,.44-.71,19.58,19.58,0,0,0-3.24-4.85A93.84,93.84,0,0,0,253.55,171a90.75,90.75,0,0,0,18,7.46,81.16,81.16,0,0,0,8.52,2c1.69.31,3.86,1.29,5.54.57a.34.34,0,0,0,.2-.33c-.45-1.94-3.34-3.32-4.82-4.5-2.94-2.35-5.83-4.75-8.65-7.23-1-.87-2-1.76-2.93-2.64q3.35,2.7,6.84,5.22a144.81,144.81,0,0,0,14.46,9.14,56.78,56.78,0,0,0,8.12,3.53c1.57.57,3.36,1.65,5,1.1a.52.52,0,0,0,.3-.39c.09-1.06-.69-1.74-1.39-2.44-1.69-1.68-3.3-3.44-4.9-5.2-3.61-3.93-7.55-7.54-11.16-11.5l-1.4-1.54c2.82,2.39,5.65,4.78,8.52,7.11,3.49,2.85,7,5.62,10.73,8.22,1.67,1.18,5.84,4.85,8,3.63A.87.87,0,0,0,313.14,182.22Z" transform="translate(-54.42 -1.66)"/><path class="cls-12" d="M302.81,182.5c-1.69-1.68-3.3-3.44-4.9-5.2-2.23-2.43-4.58-4.74-6.9-7.08-1.11-1-2.21-2-3.29-3-4.54-4.29-9.16-8.78-11.77-14.55-.2-.43,14.92,9.9,21,15.85,4.88,4.77,9.63,9.69,14.07,14.88a2.39,2.39,0,0,0,1.62-.18.87.87,0,0,0,.5-1c-.89-2.91-3.57-5.56-5.41-8-2.83-3.72-5.45-7.61-8.09-11.47-4.61-6.71-9.56-13.31-14.81-19.53C274.3,130.76,262.7,118.18,249.08,109c-6.11-4.11-11.78-7.72-18.94-9.75-7.39-2.1-14.42-4.31-22.11-5.18a36.62,36.62,0,0,0-10.7.65c-2.12.39-4.8,1.27-6.17,3.07-2.92,3.86-1.88,8.32-.16,12.52-.29-.47-.57-.93-.88-1.38,0,0-.08,0-.06,0,3.88,6.56,5.83,14.21,9.36,21s8.08,13.47,13.84,18.38c1.18,1,3.42,2.88,5.05,2.11a1.13,1.13,0,0,0,.43-.37,49.4,49.4,0,0,0,4,4.53.94.94,0,0,1,.49-.26c4.33-.58,8.62,2.05,12,4.49a79.06,79.06,0,0,1,9.05,7.79,23.67,23.67,0,0,0-2.84-4A96.55,96.55,0,0,0,252,170a47.48,47.48,0,0,1-12-16.1c-.2-.45,13.36,11.07,20.55,15.66a79.88,79.88,0,0,1-9.69-14.32c-.27-.47,21.59,19.13,34.19,26a4.23,4.23,0,0,0,.58-.17.34.34,0,0,0,.2-.33c-.45-1.94-3.34-3.32-4.82-4.5L279,174.52c-7.54-5.08-14.47-11.05-17.56-19.36-.15-.4,16.38,9.37,23.34,15.59,5.28,4.72,10.36,9.68,15.83,14.17a4.9,4.9,0,0,0,3.32.41.52.52,0,0,0,.3-.39C304.29,183.88,303.51,183.2,302.81,182.5Z" transform="translate(-54.42 -1.66)"/><path class="cls-12" d="M313.14,182.22c-.89-2.91-3.57-5.56-5.41-8-2.83-3.72-5.45-7.61-8.09-11.47-4.61-6.71-9.56-13.31-14.81-19.53C274.3,130.76,262.7,118.18,249.08,109c-6.11-4.11-11.78-7.72-18.94-9.75-7.39-2.1-14.42-4.31-22.11-5.18a36.62,36.62,0,0,0-10.7.65c-2.12.39-4.8,1.27-6.17,3.07-2.92,3.86-1.88,8.32-.16,12.52-.29-.47-.57-.93-.88-1.38,0,0-.08,0-.06,0,3.88,6.56,5.83,14.21,9.36,21s8.08,13.47,13.84,18.38c1.18,1,3.42,2.88,5.05,2.11a1.13,1.13,0,0,0,.43-.37,49.4,49.4,0,0,0,4,4.53.94.94,0,0,1,.49-.26c3.12-.42,6.21.83,9,2.48a21.26,21.26,0,0,1-.73-3.65.65.65,0,0,1,.39-.57c.22-.29.59-.52.85-.23A132.34,132.34,0,0,0,248,167.44l.49.34c-.92-.78-1.83-1.58-2.69-2.42a27.51,27.51,0,0,1-6.45-8.62c-1.29-3-1.2-5.39-1.2-8.55,0-.42.66-.93,1-.58,4.47,4.31,8.09,9.56,12.29,14.14a35,35,0,0,1-6.67-16.46c-.05-.44.69-.92,1-.59,6.75,6.68,11.92,14.85,19,21.19,6.14,5.49,13.29,11.52,21,15a.24.24,0,0,0,.05-.18c-.45-1.94-3.34-3.32-4.82-4.5L279,174.52c-5.12-3.45-10-7.32-13.51-12.05-5.44-5.59-8.82-12.14-12.72-18.84-.24-.42.44-1.17.87-.87,17.91,12.77,33.94,27.87,50.55,42.22v0s0,0,0-.06c.09-1.06-.69-1.74-1.39-2.44-1.69-1.68-3.3-3.44-4.9-5.2-2.23-2.43-4.58-4.74-6.9-7.08-1.11-1-2.21-2-3.29-3-1.63-1.54-3.27-3.12-4.83-4.76-5.72-5.07-11.09-10.63-14-17.68-.16-.38.44-.9.81-.81,4.29,1.14,7.84,4.4,11.2,7.17,4.9,4,9.82,8.18,14.32,12.65A169.41,169.41,0,0,1,307.47,177a37.67,37.67,0,0,1,4.67,6.44,1.76,1.76,0,0,0,.5-.18A.87.87,0,0,0,313.14,182.22Z" transform="translate(-54.42 -1.66)"/><path class="cls-13" d="M302.9,176.55c-7.67-6.35-15.68-12.58-22.67-19.68-.06-.06-.18.07-.12.13,6.25,7.8,14.37,14.15,22.49,19.88C302.77,177,303.06,176.69,302.9,176.55Z" transform="translate(-54.42 -1.66)"/><path class="cls-13" d="M292.94,180.44a204.68,204.68,0,0,1-28.29-21.7c-.06-.06-.17.06-.12.13a89.07,89.07,0,0,0,28.13,21.93C292.83,180.89,293.11,180.55,292.94,180.44Z" transform="translate(-54.42 -1.66)"/><path class="cls-13" d="M276.59,178c-11.26-4.91-24-9.25-32.18-19-.06-.07-.19.07-.15.14,7.16,10.86,20.05,16,32,19.35C276.53,178.6,276.89,178.15,276.59,178Z" transform="translate(-54.42 -1.66)"/><path class="cls-14" d="M189.47,199.66a7.88,7.88,0,0,0-.17-3.25,5.54,5.54,0,0,0-2.49-2.84,6,6,0,0,0-5.07.27,1.62,1.62,0,0,0-.6,2.84C184.28,195.62,188.46,196.59,189.47,199.66Z" transform="translate(-54.42 -1.66)"/><path class="cls-15" d="M182,191.94c-1.77-.73-3.92-.16-5.76-.35a28.07,28.07,0,0,1-3.25-.5,3.41,3.41,0,0,1-2.66-3.64c.76-1.7,1.92-3.41,2.39-4.78,1.21-3.49,2.51-7,3.76-10.44a43.7,43.7,0,0,0,2.46-9.47,18.23,18.23,0,0,0-.09-5.08c.4-1.63.69-3.44-.27-4.7-1.17-1.55-4.08-.07-5.24.66-1.32.82-3.28,2.93-3.15,4.65a16.66,16.66,0,0,0,.59,3.07c1.49,9.1-3.25,17.62-7.39,25.74,0,0,0-.07,0-.11s0,0,0,0,0,.13,0,.2c-.32.62-.64,1.25-.94,1.87-1.7,1.77-5.19,3-6.81,3.72a55.57,55.57,0,0,1-10.33,3.71,78,78,0,0,1-9.39,1.61,3.54,3.54,0,0,0-3.13,2.88c-1.16,4,3.25,4.27,5.47,2.27,3-2.69,7.87-3,11.63-3.88a21.55,21.55,0,0,0,2.56-.74,80.7,80.7,0,0,1-7.05,4.39c-2.15,1.23-6.4,3.33-4,6.37,2.61,3.37,7.7-2.32,9.41-3.77,3.09-2.63,7-4.42,10.33-6.74-.7.81-1.43,1.6-2.19,2.38-1,1-1.91,2-2.88,3-1.31,1.33-3.19,2.26-4.4,3.67-1.94,2.28-2.6,4.81,1.28,5.07,1.69.11,2.9-1.24,4-2.23,2.44-2.13,4.13-4.89,6.66-7a52.47,52.47,0,0,1,8.65-5.42,9.27,9.27,0,0,1,3.11-.86,18.08,18.08,0,0,1,2,.34c1.63.38,2.95,1.23,4.65,1.27,1.13,0,4,.36,4.3-1.34C186.84,195.11,184.22,192.85,182,191.94Z" transform="translate(-54.42 -1.66)"/><path class="cls-16" d="M152.44,198.64c-.33.24-.67.46-1,.7a17.84,17.84,0,0,0,7.95-6.1,27.65,27.65,0,0,1-6.2,3.16c-2.42.76-4.87,1.29-7.34,1.82a19.58,19.58,0,0,0-6.18,2c-.28.17-.89.69-1.29.69-1.73,0-2-2.31-3.65-2.44a3.87,3.87,0,0,0-1.94,2.56c-1.16,4,3.25,4.27,5.47,2.27,3-2.69,7.87-3,11.63-3.88A21.55,21.55,0,0,0,152.44,198.64Z" transform="translate(-54.42 -1.66)"/><path class="cls-16" d="M160.18,199.49c.95-1,3.35-2.61,3.8-4-3.11,2.47-8.43,4.28-11.8,6.41-1.12.71-3.78,3.59-5.27,3.57-.64,0-.49,0-1-.34a4.11,4.11,0,0,0-3-.58c-1.73,1.21-3.12,2.83-1.54,4.86,2.61,3.37,7.7-2.32,9.41-3.77C153.58,203.24,157,201.53,160.18,199.49Z" transform="translate(-54.42 -1.66)"/><path class="cls-16" d="M180.63,197.79c-1.95-.95-4-2.27-6.3-2a15,15,0,0,0-6.71,2.84c-3.84,2.53-6.84,5.72-10,9a1.45,1.45,0,0,1-1,.51,2.3,2.3,0,0,1-1.21-.38,4,4,0,0,0-3.76.15l0,0c-1.94,2.28-2.6,4.81,1.28,5.07,1.69.11,2.9-1.24,4-2.23,2.44-2.13,4.13-4.89,6.66-7a52.47,52.47,0,0,1,8.65-5.42,9.27,9.27,0,0,1,3.11-.86,18.08,18.08,0,0,1,2,.34c1.63.38,2.95,1.23,4.65,1.27a9.16,9.16,0,0,0,3.29-.25A8.3,8.3,0,0,1,180.63,197.79Z" transform="translate(-54.42 -1.66)"/><path class="cls-16" d="M169,175.2c.78-1,1.56-1.94,2.37-2.89.24-.29,1.12-.5.91.14-1,3.15-1.92,6.31-3.21,9.35-1.17,2.75-3.42,7.71.55,9.28a12.36,12.36,0,0,0,6.38.47,23.89,23.89,0,0,1-3-.46,3.41,3.41,0,0,1-2.66-3.64c.76-1.7,1.92-3.41,2.39-4.78,1.21-3.49,2.51-7,3.76-10.44a43.7,43.7,0,0,0,2.46-9.47,18.23,18.23,0,0,0-.09-5.08c.4-1.63.69-3.44-.27-4.7-1.17-1.55-4.08-.07-5.24.66-1.32.82-3.28,2.93-3.15,4.65a16.66,16.66,0,0,0,.59,3.07C171.6,166.13,170.66,170.73,169,175.2Z" transform="translate(-54.42 -1.66)"/><path class="cls-17" d="M164.51,193.18c0-.05-.14,0-.12.07.7,2.74-2.9,3.8-3.62,6.12,0,.14.12.12.18,0C162.14,197.65,166.15,195.71,164.51,193.18Z" transform="translate(-54.42 -1.66)"/><path class="cls-17" d="M159.11,193.21c0-.05-.08,0-.07,0,.12,1.48-2.55,2.57-3.53,3.23a13.8,13.8,0,0,0-3,2.21c-.1.12,0,.26.13.17a37.62,37.62,0,0,0,4.5-2.92C157.94,195.31,159.39,194.4,159.11,193.21Z" transform="translate(-54.42 -1.66)"/><path class="cls-14" d="M154.74,209.92c-.54-2.44-2.12-2-3.41-.92-3.05,2.16-4.32,7.58-2.27,10.67.16.23.49,0,.56-.19.78-2.43,1.47-4.15,3.4-5.91C153.91,212.75,155,211.24,154.74,209.92Z" transform="translate(-54.42 -1.66)"/><path class="cls-14" d="M143.84,205.88a2.06,2.06,0,0,0-2.26.59,11.14,11.14,0,0,0-3.17,3c-1.31,1.62-2.41,5.24-1.25,7.2.15.25.45,0,.53-.18,1.12-2.35,2.38-4.42,4.85-5.6,1.21-.58,2.74-.84,3-2.43C145.75,207.05,145.14,206.49,143.84,205.88Z" transform="translate(-54.42 -1.66)"/><path class="cls-14" d="M135.21,199.9c-1.32-.83-2.83.14-3.84,1.12a6.8,6.8,0,0,0-3.19,2.62c-1,1.73-1.27,5.2,0,6.84,0,.06.13,0,.17,0a.63.63,0,0,0,.27-.44c.32-1.5,1.86-3.06,3-3.94a11.76,11.76,0,0,1,3.75-1.69c.49-.17,1.3-.52,1.44-1.1A3.14,3.14,0,0,0,135.21,199.9Z" transform="translate(-54.42 -1.66)"/><path class="cls-18" d="M210.17,200c-1.76-.73-3.92-.16-5.75-.35a27.75,27.75,0,0,1-3.25-.5,3.4,3.4,0,0,1-2.66-3.64c.75-1.71,1.91-3.41,2.39-4.79,1.21-3.48,2.51-6.95,3.75-10.43a43.73,43.73,0,0,0,2.47-9.47,18.23,18.23,0,0,0-.09-5.08c.39-1.63.69-3.44-.27-4.71-1.17-1.54-4.09-.06-5.24.66-1.32.83-3.28,2.94-3.15,4.66a16.64,16.64,0,0,0,.58,3.07c1.49,9.1-3.24,17.62-7.39,25.74v-.11s0,0,0,0a.71.71,0,0,1,0,.2l-.94,1.87c-1.69,1.77-5.19,3-6.81,3.71a54.8,54.8,0,0,1-10.32,3.72,78.38,78.38,0,0,1-9.39,1.61,3.57,3.57,0,0,0-3.14,2.88c-1.15,4,3.26,4.26,5.47,2.26,3-2.68,7.87-3,11.64-3.87a24.28,24.28,0,0,0,2.56-.74,80.7,80.7,0,0,1-7.05,4.39c-2.16,1.22-6.4,3.33-4,6.37,2.6,3.37,7.69-2.32,9.41-3.78,3.09-2.62,6.95-4.41,10.33-6.73-.71.81-1.44,1.6-2.2,2.38-1,1-1.9,2-2.87,3-1.32,1.33-3.19,2.26-4.4,3.67-1.94,2.28-2.6,4.81,1.28,5.07,1.69.11,2.89-1.24,4-2.24,2.43-2.12,4.13-4.88,6.66-7a52.35,52.35,0,0,1,8.65-5.43,9.36,9.36,0,0,1,3.11-.85,15.64,15.64,0,0,1,2,.34c1.64.38,2.95,1.22,4.65,1.26,1.14,0,4,.37,4.31-1.33C215,203.21,212.36,201,210.17,200Z" transform="translate(-54.42 -1.66)"/><path class="cls-15" d="M179.39,207.12c3.14-1.6,7.13-3.45,9.51-6A46,46,0,0,1,175.37,206c-2.28.49-4.54,1.5-6.85,1.81-2.08.27-3.48-1.31-5.22-1.41a3.7,3.7,0,0,0-2.39,2.72c-1.15,4,3.26,4.26,5.47,2.26,3-2.68,7.87-3,11.64-3.87C178.49,207.38,178.94,207.25,179.39,207.12Z" transform="translate(-54.42 -1.66)"/><path class="cls-15" d="M188.73,207.32a26.15,26.15,0,0,0,4.37-5.45c-3.8,3.18-8.1,5.56-12.36,8.28-1.65,1-3.36,2.86-5.28,3.42a.93.93,0,0,1-.76-.16c-1.08-.85-1.63-1.57-2.7-1.41-2.1,1.27-4.38,3.09-2.51,5.5,2.6,3.37,7.69-2.32,9.41-3.78C181.84,211.23,185.47,209.49,188.73,207.32Z" transform="translate(-54.42 -1.66)"/><path class="cls-15" d="M198.68,178.07c.35.72.67,1.46,1,2.2a19.09,19.09,0,0,0,2.52-3c.24-.33,1.09-.48.91.15a50.82,50.82,0,0,1-3.71,9.57q-1.21,2.38-2.59,4.68c-1.49,2.49-1.53,4.52.41,6.74s4,1.65,6.23,1.14a21.6,21.6,0,0,1-2.3-.38,3.4,3.4,0,0,1-2.66-3.64c.75-1.71,1.91-3.41,2.39-4.79,1.21-3.48,2.51-6.95,3.75-10.43a43.73,43.73,0,0,0,2.47-9.47,18.23,18.23,0,0,0-.09-5.08c.39-1.63.69-3.44-.27-4.71-1.17-1.54-4.09-.06-5.24.66-1.32.83-3.28,2.94-3.15,4.66a16.64,16.64,0,0,0,.58,3.07A23.46,23.46,0,0,1,198.68,178.07Z" transform="translate(-54.42 -1.66)"/><path class="cls-15" d="M210.46,206.66c-4.7-1.57-8.51-3.94-13.36-1a60.79,60.79,0,0,0-6.7,5.15,42,42,0,0,0-4.93,4.17c-.35.38-1,1.39-1.67,1.29a10.24,10.24,0,0,0-4.23,0c-1.79,2.21-2.28,4.58,1.47,4.84,1.69.11,2.89-1.24,4-2.24,2.43-2.12,4.13-4.88,6.66-7a52.35,52.35,0,0,1,8.65-5.43,9.36,9.36,0,0,1,3.11-.85,15.64,15.64,0,0,1,2,.34c1.64.38,2.95,1.22,4.65,1.26a10.73,10.73,0,0,0,3-.13A7,7,0,0,1,210.46,206.66Z" transform="translate(-54.42 -1.66)"/><path class="cls-14" d="M165.76,208.9c-.28-1.79-2.33-1.85-3.63-1.44-1.46.47-2.49,2.06-3,3.53-1.41,2.55-1.39,6.22-.91,9.13.06.36.52.16.63-.05a18,18,0,0,0,.9-2.95c.66-1.93,1.72-4,3.57-5.05C164.65,211.31,166,210.68,165.76,208.9Z" transform="translate(-54.42 -1.66)"/><path class="cls-14" d="M174.27,215.23a2.41,2.41,0,0,0-2.58-2.1,4,4,0,0,0-2.6,2.32,7.65,7.65,0,0,0-1.57,3.29c-.43,1.83-.7,5.15.73,6.68.21.23.53-.14.57-.33a17.48,17.48,0,0,1,2.17-5.91C171.5,218.33,174.49,216.57,174.27,215.23Z" transform="translate(-54.42 -1.66)"/><path class="cls-14" d="M183.32,218.55a2.33,2.33,0,0,0-3.39-1.68,4,4,0,0,0-1.92,2.28,7.52,7.52,0,0,0-1.12,3.69c-.14,1.86.05,4.75,1.57,6.09.16.15.45,0,.57-.12a1.27,1.27,0,0,0,.32-.8,15.83,15.83,0,0,1,1-4.22,6.22,6.22,0,0,1,1.95-2.85,3,3,0,0,0,.68-.6A2,2,0,0,0,183.32,218.55Z" transform="translate(-54.42 -1.66)"/><path class="cls-14" d="M217.81,210.68a.24.24,0,0,0,0,.16c1.13-1.08,1.19-3.7.87-5.09a8.71,8.71,0,0,0-1.77-3.43c-1.64-1-4.14-.91-5.87-.58,0,0-.09.08,0,.1l.36.11c-1.19.09-1.16,2-.76,2.86.52,1.1,2.62.83,3.59,1.45C215.64,207.16,218.07,208.79,217.81,210.68Z" transform="translate(-54.42 -1.66)"/><path class="cls-19" d="M188.9,201.2c-1,1.38-2.94,2-4.31,2.92s-3.18,1.63-4.37,2.86c-.09.09,0,.2.1.13,1.62-1,3.32-1.85,5-2.84,1.25-.77,3-1.67,3.73-3C189.05,201.15,189,201.13,188.9,201.2Z" transform="translate(-54.42 -1.66)"/><path class="cls-19" d="M192.87,202.19A18.91,18.91,0,0,1,190.5,205a6.23,6.23,0,0,0-1.63,2.26c0,.17.12.18.22.09a21.79,21.79,0,0,0,2.09-2.31,9,9,0,0,0,1.75-2.85C193,202.16,192.89,202.16,192.87,202.19Z" transform="translate(-54.42 -1.66)"/><path class="cls-11" d="M285.74,140.19c-10.57-12.93-21.57-25.5-32.28-38.33C242.56,88.8,232,75.5,220.06,63.4A122.57,122.57,0,0,0,201.4,47.57c-5.06-3.43-10.52-7-16.61-8A49.94,49.94,0,0,0,179,35.43a15.06,15.06,0,0,1,4,1.51l.09,0a26.88,26.88,0,0,1-2.44-3.67c-.94-.72-1.91-1.39-2.75-2l-.38-.26a14.44,14.44,0,0,1,1.3.66c.14.07.29-.16.21-.27-5.25-6.66-14.92-15.3-24.3-15.22-.36-.34-.71-.67-1-1a84.44,84.44,0,0,0-9-7.85,19.86,19.86,0,0,0-3.49-2.08,24.72,24.72,0,0,0-4.93-2.37l-.52-.16A8.69,8.69,0,0,0,132.78,2a20.76,20.76,0,0,0-9.72.57C118.15,4.09,111,9,109.51,14.75a6.49,6.49,0,0,1-.2-3.05.24.24,0,0,0-.1-.25,3.86,3.86,0,0,0-1.13,1,1.2,1.2,0,0,1-.36.35,9.63,9.63,0,0,0-1,4.11,9.9,9.9,0,0,1-.05-4.26s0-.06,0-.08a7.77,7.77,0,0,0-1.51,2c-.11.46-.18.92-.25,1.28a9.64,9.64,0,0,0,.11,3.79h-.22a10.86,10.86,0,0,0-3.64,1l-.06,0a6.24,6.24,0,0,1,1.94.87,9.58,9.58,0,0,1,3.35,2.87c.71,1.54,1.79,2.9,2.47,4.47,1.41,3.26,3.1,6.41,4.07,9.85.78,2.78,2,5.41,2.77,8.24a16.31,16.31,0,0,0,3.24,6.72,14.53,14.53,0,0,1-3.2,3.48c-.95.8-2.14,1.17-3,2.08-.11.12-.18.45.07.45,2.31.05,4.54-1.37,6.47-2.49.41-.2.42,0,0,.65a7.26,7.26,0,0,0-.15,1.61,22.64,22.64,0,0,0,0,3.19c0,.27.35.15.47,0a11.75,11.75,0,0,0,2-3.92,16.78,16.78,0,0,0,1.51,5,15.23,15.23,0,0,0-.83,1.54c-1.37,3-2.63,6-3.73,9.12a67.47,67.47,0,0,0-3.41,18.46c-.35,5.69.11,11.72,2.75,16.83a39.87,39.87,0,0,0,9.29,11.15c.46,1.23.92,2.46,1.41,3.68,2.52,6.28,6.12,11.83,9.73,17.53,3.06,4.84,6.82,6.41,12.33,7.44s10.8,1.28,16.15,2.27c2,5.75,2.31,12.26,3.71,18.09.17.75,1.09.23,1.26-.26.5-1.43.76-2.94,1.14-4.41a36.37,36.37,0,0,0,1,4.63c.11.37.65,0,.71-.23,1.07-3.35,3.74-6.59,5.79-9.4,1.12-1.55,2.32-3,3.48-4.58a33.45,33.45,0,0,1,3.8,1.59c6,3,7.1,11.63,10.28,16.85.1.16.29,0,.35-.11a15.23,15.23,0,0,0,.81-4.57c.61,1.14,2,4.12,2.29,4.47s.69.13.86-.17a14.86,14.86,0,0,0,1.34-4.86,28.7,28.7,0,0,1,2,5.18c.15.57.88.34,1.09-.08,1-1.93,1.28-4.25,2-6.33,1.11-3.25,1.77-6.51,3.39-9.57,1.25-2.34,2.66-4.7,4.18-7a92.23,92.23,0,0,0,10.63.14c3.91-.23,7.48-3.65,10.28-6,3.9-3.28,8.1-6,12.13-9a85.52,85.52,0,0,1,9.26,1.17c4.87.87,10,1.26,14.82,2.43,1.18.29,10.93,2,11.22,1.47l.06.08c.27.44.91,0,.93-.42a1.48,1.48,0,0,0,0-.21.48.48,0,0,0,0-.18C285.74,140.4,285.81,140.28,285.74,140.19Z" transform="translate(-54.42 -1.66)"/><path class="cls-20" d="M285.74,140.19c-10.57-12.93-21.57-25.5-32.28-38.33C242.56,88.8,232,75.5,220.06,63.4A122.57,122.57,0,0,0,201.4,47.57c-5.06-3.43-10.52-7-16.61-8-.9-.75-1.83-1.46-2.78-2.13-6.16-1.45-12.39-.8-16.45,5.07-.17.25-1,.54-.93,0a17,17,0,0,1,2.22-7.24c-5.76,4.3-9.26,10.77-11.95,17.38-.14.36-.77.87-1.05.35a9.25,9.25,0,0,1-1-4.11c-3.7,6.21-5.19,13.63-5.51,20.77s.15,14.32,2.52,21c4.52,12.72,14.2,22.45,25.86,28.82-1.57-2.19-3-4.45-4.42-6.77-.28-.47.59-1.25,1-.8,8.11,9.89,21.18,15,33.47,17.79-2-1.48-3.93-2.91-5.77-4.53-.4-.35.47-1.09.87-.87,9.55,5.24,20.27,9.15,31.32,7.85.44,0,.49.45.24.71-2.9,3-3.67,7.38-6.93,10.07-2.65,2.19-7.06,1.58-10.14,1.05q-3.42-.57-6.8-1.37a16.82,16.82,0,0,1,1.74,2.11c.28.4-.34,1-.75.91-2.17-.51-4.27-1.24-6.39-1.91.62.41,1.22.84,1.83,1.28,1,.71,2,1.42,1.93,2.75-.2,5.32-2.17,10.36-3,15.59,0,.3-.76.85-1,.45-1.53-2.57-3-5.17-4.25-7.86,0,2.22,0,4.44-.13,6.66,0,.44-.79,1-1.07.48-2.26-4.36-4.39-8.16-9.17-10.07-5-2-9.72-4.7-14.61-7,1.38,1.82,2.84,3.57,4.22,5.38.3.38-.35,1-.75.9-1.53-.46-3.08-1.64-4.67-1.78a17.42,17.42,0,0,0-7.08,1.1l1.44.24c2,5.75,2.31,12.26,3.71,18.09.17.75,1.09.23,1.26-.26.5-1.43.76-2.94,1.14-4.41a36.37,36.37,0,0,0,1,4.63c.11.37.65,0,.71-.23,1.07-3.35,3.74-6.59,5.79-9.4,1.12-1.55,2.32-3,3.48-4.58a33.45,33.45,0,0,1,3.8,1.59c6,3,7.1,11.63,10.28,16.85.1.16.29,0,.35-.11a15.23,15.23,0,0,0,.81-4.57c.61,1.14,2,4.12,2.29,4.47s.69.13.86-.17a14.86,14.86,0,0,0,1.34-4.86,28.7,28.7,0,0,1,2,5.18c.15.57.88.34,1.09-.08,1-1.93,1.28-4.25,2-6.33,1.11-3.25,1.77-6.51,3.39-9.57,1.25-2.34,2.66-4.7,4.18-7a92.23,92.23,0,0,0,10.63.14c3.91-.23,7.48-3.65,10.28-6,3.9-3.28,8.1-6,12.13-9a85.52,85.52,0,0,1,9.26,1.17c4.87.87,10,1.26,14.82,2.43,1.18.29,10.93,2,11.22,1.47l.06.08c.27.44.91,0,.93-.42a1.48,1.48,0,0,0,0-.21.48.48,0,0,0,0-.18C285.74,140.4,285.81,140.28,285.74,140.19Z" transform="translate(-54.42 -1.66)"/><path class="cls-21" d="M124.34,48.38c4.5,1.5,4.72-8.18,4.9-10.8.23-3.38.38-6.51,2.28-9.48,4.13-6.42,11-8.9,18-10.43.46-.17.92-.34,1.36-.53.05,0,.08-.13,0-.12-2.28.28-4.55.43-6.72.81a47,47,0,0,0,4.55-2.27,0,0,0,0,0,0-.09,31.24,31.24,0,0,0-5.1.86c-.12-.13-.25-.25-.39-.38l.73-.29a14.62,14.62,0,0,0,3.22-1.28s.17-.22,0-.22c-1.51,0-2.83-.34-4.35-.29a17.13,17.13,0,0,0,3-1.53c.08-.05.11-.23,0-.2a24.54,24.54,0,0,1-3.84.27,14.07,14.07,0,0,0,1.83-1.2s.06-.13,0-.11c-1.62.32-3.11.56-4.56.91l-.13-.09c.77-.29,1.55-.57,2.34-.81.07,0,.18-.19.05-.2a13.63,13.63,0,0,0-2.39,0c1.68-.35,3.35-.71,5-1.17.11,0,.25-.24.07-.27-1.59-.32-2.89-1.42-4.56-1.76a17.93,17.93,0,0,0-3.35-.32,23.89,23.89,0,0,0-11.68,1.35c.49-.31,1-.61,1.49-.87.11,0,.2-.34,0-.28l-.33.1s-.09.07,0,.09c-1.28-.47-4.17,1.33-5.11,1.94a35.14,35.14,0,0,0-3.44,2.59,35.47,35.47,0,0,1,4.43-4c.1-.08.1-.33-.08-.23-4.92,2.73-9.16,6.18-11.93,11.16-1.48,2.68-3.09,6.32-3.17,9.7a1.53,1.53,0,0,0-.18.18l.12-.19c-.6.24-1.21,1.22-.66,1.77s.78.82,1.15,1.23a3.61,3.61,0,0,0,.17.46,3.7,3.7,0,0,1-.21.33c-.08.13.07.2.16.1l.17-.17a6.54,6.54,0,0,0,.69,1.2.65.65,0,0,0,.91.2,21.31,21.31,0,0,0,2.7,2.55c3.1,2.39,6.35,4.14,8.64,7.41.82,1.17,2.41,3.6,4.21,4.36Z" transform="translate(-54.42 -1.66)"/><path class="cls-22" d="M286.2,141.14c-1.68-2.34-4.37-4.06-6.53-5.95-2.74-2.4-5.42-4.82-8-7.38.29.14.57.28.86.4s.73-.38.49-.65c-4-4.51-7.13-10.08-10.91-14.84-4.62-5.84-9.47-11.52-14.16-17.3-4.41-5.43-8.48-11.13-13-16.49s-9.16-10.32-13.82-15.4a116.3,116.3,0,0,0-15.85-14.48A75.37,75.37,0,0,0,198,44c-3.25-1.88-6.9-2.89-10.45-4.07A20.87,20.87,0,0,0,171,41.12a16.26,16.26,0,0,0-7.16,8,8.33,8.33,0,0,1,.42-3.48.68.68,0,0,0,.05-.45,22.35,22.35,0,0,0-3,2.05c-.2.33-.39.65-.58.94a27.75,27.75,0,0,0-3,7.11,25.71,25.71,0,0,0-1,4.4c-.45-1-1-1.69-1.72-1.36-1.3.58-1.57,2.24-2.06,3.42A41.53,41.53,0,0,0,150.69,71c-1.47,9.18.87,19.48,6.94,26.62a30.37,30.37,0,0,0,2.17,3.1c1.9,2.34,4.81,5.58,7.7,6.61a.82.82,0,0,0,.95-1c-.46-1.25-1.32-2.31-1.89-3.53-.71-1.5-1.22-3.16-1.8-4.72a28.3,28.3,0,0,1-1-3.44c.43.85.9,1.7,1.42,2.52,3.52,5.55,8,10.94,13.68,14.3.7.42,8.78,5.51,8.22,1.56-.14-1-1.1-2.17-1.59-3.06-.94-1.69-1.89-3.36-2.7-5.12-.07-.16-.15-.31-.22-.47a64.5,64.5,0,0,0,9.67,9.16,66.78,66.78,0,0,0,24.38,12.65c1.6.43,6.39,1.95,7.61.25a2.75,2.75,0,0,0,.24-2.41,77.18,77.18,0,0,0,10.66,5.67,115,115,0,0,0,12.73,4.59c2.54.8,6.6,2.18,9.18,1.07a.89.89,0,0,0,.52-.67c.07-1.36-1.56-2.09-2.47-2.92-.57-.52-1.16-1-1.74-1.55,3.9,2.08,7.92,3.94,11.91,5.75a102.1,102.1,0,0,0,12.19,4.56c2.18.68,6,2.68,8.29,1.7C286,142,286.45,141.49,286.2,141.14Z" transform="translate(-54.42 -1.66)"/><path class="cls-23" d="M169.21,102.67c-3.45-4.83-5.51-10.67-7.9-16.07s-3-11.81-3.16-17.73c0,0-.07,0-.07,0a77.11,77.11,0,0,0-.68,8.32,33.62,33.62,0,0,0,1.95,9.49A47.49,47.49,0,0,0,169,102.82C169.11,102.9,169.27,102.75,169.21,102.67Z" transform="translate(-54.42 -1.66)"/><path class="cls-23" d="M263.66,129.81a51.88,51.88,0,0,0-4.17-7.17c-3.25-5.1-6.74-10.15-10.35-15,0-.07-.21.08-.16.15a163.12,163.12,0,0,1,13.43,21.85c.51,1,1.87,3.92-.12,2.85a57.63,57.63,0,0,1-6.26-3.8c-2.67-1.9-5.21-4-7.83-5.91-1.51-1.69-3-3.47-4.4-5.2a48.1,48.1,0,0,0-4.84-4.74c.06-2-1.27-4.88-2.2-6.7a.66.66,0,0,0,.4-.21c1.16-1.25.31-3.33-.18-4.68a93.59,93.59,0,0,0-4.16-8.77,85.35,85.35,0,0,0-5.53-9.28s-.07,0,0,0a115.42,115.42,0,0,1,5.38,10.65c.81,1.85,1.55,3.61,2.5,5.4.42.81.67,1.72,1,2.57-.24-.59,1.37,3.62.1,3.29-2.85-5.47-6.7-10.45-10.11-15.58-.08-.13-.3.06-.23.17,4.3,6.93,9.72,13.5,11.51,21.61a7.88,7.88,0,0,1,.19,2.05c0,1.08-3.28-.39-3.6-.53a29.59,29.59,0,0,1-5.82-3.48c-1.74-1.26-3.53-2.44-5.31-3.66a4.7,4.7,0,0,1-.44-.34,35.51,35.51,0,0,0-4.15-3.86c-.18-.14-.45.17-.31.34,3.67,4.2,7.38,8.2,10.64,12.73a25.68,25.68,0,0,1,3.1,6c1.32,3.41-4.25,1-4.52.86-1.33-.52-2.64-1.1-3.94-1.69a70.75,70.75,0,0,1-14.5-9.12c-3.88-3.07-8.52-6.06-11.74-9.82a40.85,40.85,0,0,0-1.81-4.73A91.81,91.81,0,0,0,186,78.18c-.06-.08-.2,0-.16.11A117.4,117.4,0,0,1,192.68,91c1,2.1,1.88,4.22,2.65,6.41a32.2,32.2,0,0,1,1.17,4.41c.61,3-2.87,1-3.8.38a74.58,74.58,0,0,1-10.41-9c-3.56-3.57-6.29-7.67-9.6-11.43,0,0-.11,0-.08.09,2,2.49,3.32,5.41,5.26,7.91a84.59,84.59,0,0,0,6.71,7.33,50.21,50.21,0,0,0,7.31,6c1,.66,3,2.44,4.33,1.77s1.24-2.1.86-3.69c3.46,5.15,9.06,9.71,14,13.41a50.2,50.2,0,0,0,18.88,8.87c4.2,1,2.22-3.94,1.41-5.79-1.24-2.8-3.32-5.3-5.17-7.75-.62-.83-1.3-1.68-2-2.53,5.19,4.6,13.06,11.14,14.64,6.42a1.24,1.24,0,0,0,0-.16c2.68,3.33,5.74,6.48,8.48,9.74,1.68,2,3.58,3.77,5.32,5.7.76.84,1.51,1.69,2.26,2.54.25.29,2,2.65,2.07,2.66s-.07.07,0,.08l.31.08s.09,0,.08-.07c-.33-1.5-1.79-2.81-2.68-4a58,58,0,0,0-4.06-4.9c5.28,4.61,13.13,11,14.17,8.1C265.16,132.4,264.06,130.75,263.66,129.81Z" transform="translate(-54.42 -1.66)"/><path class="cls-23" d="M212.52,89.79c-2.84-4.45-6.25-8.52-9.24-12.87-.08-.11-.27,0-.21.14,1.83,2.9,3.75,5.7,5.65,8.54,1.05,1.57,2,3.14,3,4.79.26.48,3.66,6.76,2.57,6.81-4.09.18-8.53-2.44-12.07-4.24s-7.25-3.86-10-6.64c0,0,0,0,0,0a43.71,43.71,0,0,0,11.19,8.9c2.91,1.73,8.36,4.63,11.84,3.15C218.45,97,213.32,91,212.52,89.79Z" transform="translate(-54.42 -1.66)"/><path class="cls-23" d="M176.86,92.3c-.06,0-.16.06-.11.11,3.9,4.93,6.2,11.5,9.05,17.08.08.15.33,0,.29-.18C184.33,103.39,181.15,96.8,176.86,92.3Z" transform="translate(-54.42 -1.66)"/><path class="cls-24" d="M286.2,141.14c-1.68-2.34-4.37-4.06-6.53-5.95-2.74-2.4-5.42-4.82-8-7.38.29.14.57.28.86.4s.73-.38.49-.65c-4-4.51-7.13-10.08-10.91-14.84-4.62-5.84-9.47-11.52-14.16-17.3-4.41-5.43-8.48-11.13-13-16.49s-9.16-10.32-13.82-15.4a116.3,116.3,0,0,0-15.85-14.48A75.37,75.37,0,0,0,198,44c-3.25-1.88-6.9-2.89-10.45-4.07A20.87,20.87,0,0,0,171,41.12a16.26,16.26,0,0,0-7.16,8,8.33,8.33,0,0,1,.42-3.48.68.68,0,0,0,.05-.45,22.35,22.35,0,0,0-3,2.05c-.2.33-.39.65-.58.94a27.75,27.75,0,0,0-3,7.11,25.71,25.71,0,0,0-1,4.4c-.45-1-1-1.69-1.72-1.36-1.3.58-1.57,2.24-2.06,3.42A41.53,41.53,0,0,0,150.69,71a35.13,35.13,0,0,0-.29,8.46c.24-5.18,1.54-10.28,4.94-14.1.23-.27,1.16-.51.91.14-5.26,13.83,1.2,31,12.15,40.69-.47-1.19-1.28-2.23-1.84-3.41s-1-2.48-1.45-3.74c-4-7.82-5.83-16.92-4-24.71.08-.36.84-.88,1.06-.35a194.74,194.74,0,0,0,8.72,19.34,24.07,24.07,0,0,1,.5-4.65c.07-.38.85-.89,1.06-.37,2.16,5.53,4,11.1,7,16.28a32.7,32.7,0,0,0,4.39,6.28c.6.57,1.23,1.13,1.87,1.67a11.18,11.18,0,0,0,1.38.89,1.55,1.55,0,0,0,0-.42c-.14-1-1.1-2.17-1.59-3.06-.94-1.69-1.89-3.36-2.7-5.12-.07-.16-.15-.31-.22-.47a64.5,64.5,0,0,0,9.67,9.16c.62.5,1.25,1,1.89,1.45a39.21,39.21,0,0,1-8.53-12.81c-.18-.46.66-1.09,1-.7,10.48,11.27,23,20.14,37.9,24.39a3.22,3.22,0,0,0,0-1.84,77.18,77.18,0,0,0,10.66,5.67,115,115,0,0,0,12.73,4.59c2.54.8,6.6,2.18,9.18,1.07a.89.89,0,0,0,.52-.67c.07-1.36-1.56-2.09-2.47-2.92-.57-.52-1.16-1-1.74-1.55,3.9,2.08,7.92,3.94,11.91,5.75a102.1,102.1,0,0,0,12.19,4.56c2.18.68,6,2.68,8.29,1.7C286,142,286.45,141.49,286.2,141.14ZM169.48,79.46a31.78,31.78,0,0,1-6.73-14.24A17.67,17.67,0,0,1,166,49.79c.19-.24.94-.54.93,0-.2,10-.15,19.5,3.51,29C170.65,79.21,169.81,79.88,169.48,79.46Zm63.35,3.72a90.41,90.41,0,0,1,13.55,14.17c3.56,4.45,7.25,9.28,8.15,15.05.07.44-.61,1.14-1,.71q-3.48-3.87-6.73-7.94c-5.6-6.57-12.32-12.86-15-21.29C231.66,83.39,232.43,82.86,232.83,83.18Zm-16.74,10c-.08-.4.5-1,.92-.77,4.17,2.71,7.31,6.23,10.61,9.89,2.9,3.21,6.22,6.23,8.07,10.21.21.46-.56.9-.93.77a30.82,30.82,0,0,1-16.65-14.18.39.39,0,0,1,0-.28A21.1,21.1,0,0,1,216.09,93.23ZM207.82,63c10.85,4.77,17.52,16.09,20.55,27.11.12.47-.63,1.09-1,.7-3.11-3.14-5.23-7-7.9-10.53-4.21-5.51-10.13-9.77-12.56-16.5C206.74,63.34,207.43,62.85,207.82,63Zm4.63,34.46c-9.71-2.71-17.47-8.2-22.65-16.32-3.31-4.68-5.71-10.14-4.87-15.77,0-.34.68-1,1-.59,4.48,5.78,8.79,11.88,14,17.08,4.66,4.7,9.63,9.15,13.31,14.7C213.47,97,212.88,97.6,212.45,97.48ZM180.34,42.53a79.83,79.83,0,0,1,6,7.75,15.59,15.59,0,0,1-.6-3c0-.36.59-.91.93-.66,9.45,6.88,18.54,17.43,19.47,29.56,0,.4-.57.85-.93.66-4.08-2.12-6.85-6.45-9.27-10.2-.38-.61-.76-1.2-1.15-1.81a.63.63,0,0,1-.8.33,29.6,29.6,0,0,1-13.33-15.94,24.83,24.83,0,0,1-1-4.09C179.64,45.05,179.17,41.25,180.34,42.53ZM172.93,49a.05.05,0,0,1,0,0,17.64,17.64,0,0,1,.32-3.21c.06-.32.72-.83,1-.45,4.91,6.73,5.77,15.65,6.14,23.73,0,.39-.7,1-1,.58A29.49,29.49,0,0,1,172.93,49Zm21.19,53.24c-12.64-9-24.43-22-22.74-38.6,0-.41.82-1.08,1.08-.49,3.19,7.44,6.51,14.84,11.17,21.5,3.88,5.56,8.19,10.82,11.41,16.81C195.24,101.89,194.46,102.52,194.12,102.28Zm34.66,19.19c-5.14.08-9.73-3.8-13.95-6.27a53.12,53.12,0,0,1-10.08-7.52,22.75,22.75,0,0,1-2.31-2.19c-1.29-1.43-4.28-4.39-4.28-6.46a.75.75,0,0,1,.94-.65,89.64,89.64,0,0,1,17.14,9.83c4.79,3.65,8.62,8.41,13.16,12.35C229.76,120.87,229.08,121.47,228.78,121.47ZM253.39,133c.31.41-.36,1-.75.91a35.37,35.37,0,0,1-7.78-2.24.42.42,0,0,1-.32.06c-4.51-1.18-9.17-3.32-12.2-7-.29-.35.27-.92.63-.91C240.76,124,248.52,126.66,253.39,133Zm8.16-1.15a34.61,34.61,0,0,1-11.2-7.56c-5.13-4.47-11.08-10-10.91-17.34,0-.42.65-.94,1-.58,7.85,7.68,16,15.32,22,24.6C262.72,131.46,262,132,261.55,131.87Z" transform="translate(-54.42 -1.66)"/><path class="cls-25" d="M130.43,123.6c-.19-.43.47-.83.81-.81,1,.06,2,.19,3,.3-1.87-2-4.36-3.27-6.19-5.32s-4.06-5.24-4.49-8.19c-.85-5.83.32-11.53,1.41-17.23a15,15,0,0,0-2,6.15c0,.49-1.08,1.09-1.09.37-.14-7.54.15-15,2.9-22.15,2.11-5.46,5.9-10.12,9.66-14.56a16.17,16.17,0,0,0-5.57,4.25,1.17,1.17,0,0,1-.05.11.7.7,0,0,1-.2.22,15.34,15.34,0,0,0-1,1.5c-.13.22-.88.76-1,.23-1.88-8.32.3-16.51,3.8-24.07a32.6,32.6,0,0,1,4.28-9.8,24.82,24.82,0,0,0-4.22,7c-.15.36-1,.95-1.07.24-1.06-9.11,3.8-19.86,13-21.95-3.44-.52-7.25.06-9.63,2.66-.21.23-.92.55-.93,0-.06-2.4-.54-5.35-2.14-7.27-1.75-2.1-5.05-3.12-7.27-1-2.81,2.7-3.51,7.29-3.2,11,0,.35-.78,1-1,.58a12.64,12.64,0,0,1,.76-14.41,15.49,15.49,0,0,0-6,6.46c-.19.42-1.13.68-1,0,1.26-6.65,6.44-13.5,13-15.83-.63.13-1.26.28-1.88.47C118.15,4.09,111,9,109.51,14.75a6.49,6.49,0,0,1-.2-3.05.24.24,0,0,0-.1-.25,3.86,3.86,0,0,0-1.13,1,1.2,1.2,0,0,1-.36.35,9.63,9.63,0,0,0-1,4.11,9.9,9.9,0,0,1-.05-4.26s0-.06,0-.08a7.77,7.77,0,0,0-1.51,2c-.11.46-.18.92-.25,1.28a9.64,9.64,0,0,0,.11,3.79h-.22a10.86,10.86,0,0,0-3.64,1l-.06,0a6.24,6.24,0,0,1,1.94.87,9.58,9.58,0,0,1,3.35,2.87c.71,1.54,1.79,2.9,2.47,4.47,1.41,3.26,3.1,6.41,4.07,9.85.78,2.78,2,5.41,2.77,8.24a16.31,16.31,0,0,0,3.24,6.72,14.53,14.53,0,0,1-3.2,3.48c-.95.8-2.14,1.17-3,2.08-.11.12-.18.45.07.45,2.31.05,4.54-1.37,6.47-2.49.41-.2.42,0,0,.65a7.26,7.26,0,0,0-.15,1.61,22.64,22.64,0,0,0,0,3.19c0,.27.35.15.47,0a11.75,11.75,0,0,0,2-3.92,16.78,16.78,0,0,0,1.51,5,15.23,15.23,0,0,0-.83,1.54c-1.37,3-2.63,6-3.73,9.12a67.47,67.47,0,0,0-3.41,18.46c-.35,5.69.11,11.72,2.75,16.83a39.87,39.87,0,0,0,9.29,11.15c.46,1.23.92,2.46,1.41,3.68,2.52,6.28,6.12,11.83,9.73,17.53,2.84,4.48,6.27,6.15,11.15,7.2C140,144.8,134.55,132.62,130.43,123.6Z" transform="translate(-54.42 -1.66)"/><path class="cls-26" d="M130.58,21.61c1.27,3.94.25,7.73-2.29,8.47s-5.6-1.85-6.86-5.8-.24-7.73,2.29-8.47S129.32,17.67,130.58,21.61Z" transform="translate(-54.42 -1.66)"/><path class="cls-27" d="M130.52,21.62c1.18,3.7.27,7.23-2,7.91s-5.13-1.77-6.31-5.47-.27-7.23,2-7.89S129.34,17.94,130.52,21.62Z" transform="translate(-54.42 -1.66)"/><path class="cls-28" d="M129.3,22.33c.75,2.35.17,4.6-1.3,5s-3.26-1.12-4-3.48-.17-4.6,1.29-5S128.55,20,129.3,22.33Z" transform="translate(-54.42 -1.66)"/><path class="cls-29" d="M124.86,20.22c.21,1.16-.18,2.22-.88,2.38s-1.46-.64-1.69-1.79.16-2.22.87-2.38S124.63,19.07,124.86,20.22Z" transform="translate(-54.42 -1.66)"/><path class="cls-30" d="M129.12,33.61c.53-5.75,4.86-10.64,10.27-12.73.54-.27,1.09-.53,1.65-.76-7.38,1.36-13.42,7.6-12.26,15.34C128.87,34.84,129,34.22,129.12,33.61Z" transform="translate(-54.42 -1.66)"/><path class="cls-31" d="M126.4,44.38c-2.36-5.78-10.25-6.23-15.45-6-7.49.39-14.66,2.7-21.62,5.32a88.46,88.46,0,0,0-19.65,11c-3.1,2.2-5.91,5-9.1,7A16,16,0,0,0,57.75,64c-.1.11-1.85,1.91-1.27,1.58a.44.44,0,0,0-.17.21,6.54,6.54,0,0,0-1.66,2.53c-.08.26.1.43.36.33,13.89-5.57,28.2-11.39,43.17-13.36a57.85,57.85,0,0,1,12.41-.11c3,.24,7.21,1.09,10-.31C124.58,52.87,128.42,49.32,126.4,44.38Z" transform="translate(-54.42 -1.66)"/><path class="cls-32" d="M126.4,44.38c-2.36-5.78-10.25-6.23-15.45-6-7.49.39-14.66,2.7-21.62,5.32a88.46,88.46,0,0,0-19.65,11c-3.1,2.2-5.91,5-9.1,7A16,16,0,0,0,57.75,64c-.1.11-1.85,1.91-1.27,1.58a.44.44,0,0,0-.17.21,8.61,8.61,0,0,0-1.15,1.45c5.37-4,11.91-6.28,18.18-8.58,8.26-3,16.46-6.18,25.06-8.15a111.62,111.62,0,0,1,11.22-1.84c2.5-.31,6.39-.94,8.65.67a4.18,4.18,0,0,1,1,6,6.63,6.63,0,0,0,1.36-.48C124.58,52.87,128.42,49.32,126.4,44.38Z" transform="translate(-54.42 -1.66)"/><path class="cls-33" d="M55,67.53c5.84-2.92,11.18-6.75,17.15-9.44,6.89-3.1,13.67-6.73,21-8.55,7.77-1.93,13.85-4,21.33-4.12a21.77,21.77,0,0,1,6.25.95c2.79.72,5.15.8,5.69-2-2.36-5.78-10.25-6.23-15.45-6-7.49.39-14.66,2.7-21.62,5.32a88.46,88.46,0,0,0-19.65,11c-3.1,2.2-5.91,5-9.1,7A16,16,0,0,0,57.75,64c-.1.11-1.85,1.91-1.27,1.58a.44.44,0,0,0-.17.21A8.21,8.21,0,0,0,55,67.53Z" transform="translate(-54.42 -1.66)"/><path class="cls-34" d="M123.36,38.73c-1-1.38-2-2.57-2.43-3.22-1.24-1.66-2.45-3.34-3.69-5-2.15-2.91-5-6.75-8.27-8.36-2.57-1.25-5.89-.2-8.17,1.14A89.3,89.3,0,0,0,89.23,31.2c-6.81,5.66-13.17,11.89-19.46,18.1-3.39,3.34-6.59,6.83-9.66,10.47-2,2.41-4.5,5.1-5.67,8.06-.11.28.17.36.37.24,3.08-1.94,5.91-4.18,9.09-6,3.84-2.24,7.7-4.39,11.69-6.35a119.94,119.94,0,0,1,25.75-9c4-.94,8.22-2.43,12.41-2.4a24.4,24.4,0,0,1,6.19,1.2c1.08.3,2.53,1.14,3.71.87C127.38,45.52,125.44,41.71,123.36,38.73Z" transform="translate(-54.42 -1.66)"/><path class="cls-32" d="M123.36,38.73c-.6-.86-1.2-1.63-1.7-2.27,1.13,2.44,1.73,5.31-.9,6.76s-6.94-.76-9.86-.48A68.27,68.27,0,0,0,98,45.28,106.08,106.08,0,0,0,73.71,56.11c-2.2,1.33-4.43,2.69-6.6,4.12,2.79-1.57,5.6-3.11,8.48-4.53a119.94,119.94,0,0,1,25.75-9c4-.94,8.22-2.43,12.41-2.4a24.4,24.4,0,0,1,6.19,1.2c1.08.3,2.53,1.14,3.71.87C127.38,45.52,125.44,41.71,123.36,38.73Z" transform="translate(-54.42 -1.66)"/><g class="cls-35"><g class="cls-35"><path class="cls-36" d="M102.93,24.25S86.39,30.68,57.75,64c0,0,22.6-18.09,40.51-23.69s15.88-7,14.17-10.9S104.64,23.47,102.93,24.25Z" transform="translate(-54.42 -1.66)"/></g></g><path class="cls-37" d="M106.51,24.64c-1.45-.38-1.47.41-.84,1.43.4.63,1,1.65,1.77,1.84,1,.22,1.73-1,1.35-1.88A4.25,4.25,0,0,0,106.51,24.64Z" transform="translate(-54.42 -1.66)"/><g class="cls-38"><path class="cls-39" d="M149.54,30.89c-.53.18-1.07.35-1.61.5a28,28,0,0,1,8.21-3.72,4.23,4.23,0,0,1,.51-.13,23.28,23.28,0,0,1,7.6-1.36,21.55,21.55,0,0,1,3.53.33,23.55,23.55,0,0,0-13.91-3.94c.37-.08.74-.17,1.12-.23,1.95-.32,3.89,0,5.83-.13-6.16-1.93-12.26-2.4-18.18,1a20.67,20.67,0,0,0-9.19,10.94,18.3,18.3,0,0,1,6.8-5.53,20.93,20.93,0,0,0-5.62,6.68,33.63,33.63,0,0,0-3.56,10.41,28.57,28.57,0,0,0,.36,8.43c1.12-5.51,5.25-10,6.84-14.81a23.22,23.22,0,0,0-1.18,8.43c1.6-4,5.42-7.67,8.34-9.82a33,33,0,0,1,9.15-4.62A31.7,31.7,0,0,1,159.93,32l.6-.06C157.05,30.19,153.5,30.16,149.54,30.89Z" transform="translate(-54.42 -1.66)"/></g><path class="cls-40" d="M141.8,88a37.59,37.59,0,0,1-1.57-5.52c-1.44-7.09.19-15.29,3.06-21.93l.15-.7c-6.68,5.9-13.55,12.86-16.77,21.11a30.67,30.67,0,0,0-1.26,6.31c0,.56.68.31.8-.06a33.51,33.51,0,0,1,6-10.77c-1.49,1.62-2.34,4.2-3.23,6.15-2.6,5.71-2.93,12-2.53,18.2.35,5.38,2.89,9.52,6.75,13.17,2.35,2.22,7,6.3,10.3,6.83.24,0,.46-.31.31-.5a40,40,0,0,1-4.17-6.19c-.47-.9-3.71-5.84-1-2.92a20.62,20.62,0,0,0,9.15,5.23c.45.11,1.17-.45.88-1-3.87-6.85-10.16-14.45-10.21-22.9,2.22,4.28,6.06,8.6,10.3,10.24a.71.71,0,0,0,.7-.29A45.24,45.24,0,0,1,141.8,88Z" transform="translate(-54.42 -1.66)"/><path class="cls-13" d="M172.84,68.93a35.43,35.43,0,0,0,11.31,23.12C179,85.2,175.68,77,172.84,68.93Z" transform="translate(-54.42 -1.66)"/><path class="cls-13" d="M181.94,110.3c-8.62-9.49-16.54-20.43-19.86-33,0-.17-.25,0-.25.11.21,6.24.81,11.67,3.72,17.26,3.66,7,9.75,11.47,16,16.08C181.76,110.93,182.14,110.52,181.94,110.3Z" transform="translate(-54.42 -1.66)"/><path class="cls-13" d="M177.4,60.8a70.14,70.14,0,0,1-2.91-10.74c0-.09-.14,0-.15,0-.35,4,0,7.88,2.08,11.4C176.77,62.1,177.55,61.3,177.4,60.8Z" transform="translate(-54.42 -1.66)"/><path class="cls-13" d="M199.22,88.35a78.09,78.09,0,0,1-13.37-21c0-.07-.15,0-.14.09.81,4,1.8,8.15,3.89,11.68,2.35,3.94,5.75,6.77,9.23,9.68C199,89,199.41,88.56,199.22,88.35Z" transform="translate(-54.42 -1.66)"/><path class="cls-13" d="M165.68,61.13c-.48-3.15.23-6.25.74-9.34,0-.13-.17-.07-.2,0a68.54,68.54,0,0,0-2.53,8.94c-.71,3.67,1,7.32,2.43,10.59.27.61,1.1-.17,1.06-.62C166.84,67.49,166.18,64.33,165.68,61.13Z" transform="translate(-54.42 -1.66)"/><path class="cls-13" d="M153.48,81.86c-.83-3.55-.41-6.89-.33-10.44,0-.11-.13,0-.15,0-.74,3.47-1.46,6.34-1.15,10,.33,3.87,2.21,7.18,4.42,10.29.18.25.57-.1.47-.35A58.11,58.11,0,0,1,153.48,81.86Z" transform="translate(-54.42 -1.66)"/><path class="cls-13" d="M163.61,148.41c-5-.69-9.92-1.29-14.37-3.62-4.66-2.45-8.15-6.11-11.36-10.19,0-.06-.17.06-.13.12,2.63,4.61,5.39,9.2,9.92,12.12,4.18,2.69,11,1.92,15.74,2.11C163.68,149,164,148.46,163.61,148.41Z" transform="translate(-54.42 -1.66)"/><path class="cls-13" d="M194.76,148.62a55.56,55.56,0,0,1,1.8,8.74c-.13-.23-.26-.46-.4-.69-4.74-9.09-13.41-12.15-23-14l-3-.24c9.26,3.26,20.09,7.75,25.9,16a6.75,6.75,0,0,0,.75,1.3c.26.33.84-.21.84-.5a30.74,30.74,0,0,0-1.12-7.8c.22.38.45.75.7,1.11,1.43,2,3.17,3.7,4.45,5.82a.29.29,0,0,0,.22.14C200.55,154.27,198.87,150.6,194.76,148.62Z" transform="translate(-54.42 -1.66)"/><path class="cls-13" d="M201.92,102.37c5.33,7.73,13.87,13.33,22.57,16.48a.4.4,0,0,0,.31-.06A205.69,205.69,0,0,1,201.92,102.37Z" transform="translate(-54.42 -1.66)"/><path class="cls-13" d="M211.83,122.28c-6.88-3.42-13.69-7.42-19.29-12.72l-1.67-1.22c5.54,7.84,12.73,11.61,21.74,14.84a.25.25,0,0,0,.28-.13Z" transform="translate(-54.42 -1.66)"/><path class="cls-13" d="M232.25,109.52c-2.63-2.24-5.16-4.51-7.64-6.92-.45-.44-.89-.91-1.33-1.37-1.52-1.31-3-2.6-4.58-3.89a26.18,26.18,0,0,0,1.51,3,28.57,28.57,0,0,0,3.07,3.7,27.68,27.68,0,0,0,9.2,6.65c.23.1.54-.24.47-.47C232.72,110,232.48,109.76,232.25,109.52Z" transform="translate(-54.42 -1.66)"/><path class="cls-13" d="M191.07,54.59a33.35,33.35,0,0,0,2,5.82A45.72,45.72,0,0,1,187.42,55a37.58,37.58,0,0,1-6.07-8.65c0-.09-.19,0-.17.1,1.91,6.52,6.11,13.94,13,16.07.2.34.41.69.64,1A41.43,41.43,0,0,0,202,71.36C198.05,66,194.77,60.16,191.07,54.59Z" transform="translate(-54.42 -1.66)"/><path class="cls-13" d="M220.73,77.61c-2.34-3.85-5.12-7.51-8.87-9.87-.1-.06-.23.13-.16.21A163.81,163.81,0,0,1,222,81.47C221.62,80.17,221.19,78.88,220.73,77.61Z" transform="translate(-54.42 -1.66)"/><path class="cls-13" d="M248.75,104.31A85.29,85.29,0,0,0,240,92.38q-1.62-1.47-3.3-2.88c3.85,5.09,7.63,10.22,11.73,15.13C248.52,104.8,248.85,104.48,248.75,104.31Z" transform="translate(-54.42 -1.66)"/><path class="cls-13" d="M254.31,124.3c-1.51-1.44-3-2.91-4.48-4.36-1.25-1.2-2.52-2.35-3.79-3.5-1.12-.66-2.26-1.3-3.39-2a46.8,46.8,0,0,0,14.43,13.24Q255.68,126,254.31,124.3Z" transform="translate(-54.42 -1.66)"/><path class="cls-41" d="M133.16,200.52a28,28,0,0,1-2.56,1.32,8.34,8.34,0,0,0-2.14,2.09c-1.06,1.44-.75,3.55-.55,5.19,0,.06.08,0,.08,0-.09-2,.08-4,1.38-5.59a9.84,9.84,0,0,1,2.26-2,8.89,8.89,0,0,0,1.54-1S133.17,200.51,133.16,200.52Z" transform="translate(-54.42 -1.66)"/><path class="cls-41" d="M142.73,206.54c-3.55,1.52-6.63,5.43-5.79,9.48,0,0,.06,0,.06,0-.39-3.89,2.51-7.58,5.73-9.42C142.74,206.56,142.74,206.53,142.73,206.54Z" transform="translate(-54.42 -1.66)"/><path class="cls-41" d="M152,209c-2.68,2.32-4.43,5.5-3.17,9.16,0,0,.06,0,.06,0A10.12,10.12,0,0,1,152,209S152,209,152,209Z" transform="translate(-54.42 -1.66)"/><path class="cls-41" d="M161.9,207.9c-3.52,2.49-4.2,7.29-3.51,11.27,0,.05.08,0,.07,0-.38-3.73.44-8.7,3.45-11.21C161.93,207.91,161.92,207.88,161.9,207.9Z" transform="translate(-54.42 -1.66)"/><path class="cls-41" d="M171.24,213.77a9.84,9.84,0,0,0-3.06,10.94s.06,0,0,0c-1-3.74,0-8.32,3-10.89C171.26,213.78,171.25,213.76,171.24,213.77Z" transform="translate(-54.42 -1.66)"/><path class="cls-41" d="M179.94,217.37s0,0,0,0c-1.33.67-2.19,2.55-2.51,3.91a12,12,0,0,0,.6,6.54h0a14.46,14.46,0,0,1-.41-4.39C177.74,221.53,178.26,218.56,179.94,217.37Z" transform="translate(-54.42 -1.66)"/><path class="cls-41" d="M185.27,193.55s0,0,0,0c1.82.41,3.27,2.38,4,4,0,0,.07,0,.06-.05C188.72,195.64,187.44,193.67,185.27,193.55Z" transform="translate(-54.42 -1.66)"/><path class="cls-41" d="M216.83,203.34c-1.44-1.45-2.78-1.44-4.68-1.26,0,0,0,0,0,0,1.5.15,2.86.21,4,1.3a6.65,6.65,0,0,1,2.14,5.27s.06,0,.06,0C218.44,206.64,218.33,204.85,216.83,203.34Z" transform="translate(-54.42 -1.66)"/></g></g></g></g></svg>