<?xml version="1.0" encoding="utf-8"?>
<!-- Generator: Adobe Illustrator 23.0.3, SVG Export Plug-In . SVG Version: 6.00 Build 0)  -->
<svg version="1.1" id="Layer_1" xmlns="http://www.w3.org/2000/svg" xmlns:xlink="http://www.w3.org/1999/xlink" x="0px" y="0px"
	 viewBox="0 0 141 102.4" style="enable-background:new 0 0 141 102.4;" xml:space="preserve">
<style type="text/css">
	.st0{fill:#727272;}
	.st1{fill:#8F8F8F;}
	.st2{fill:#ADADAD;}
	.st3{fill:#5B5B5B;}
	.st4{fill:#EDEDED;}
</style>
<title>Asset 2</title>
<g>
	<g id="Layer_1-2">
		<path class="st0" d="M44.8,22.9l-0.6-1.5c-0.2-0.6-0.3-1.3-0.2-1.9l0.6-2.6c0.1-0.6,0.5-1.1,1-1.4l1.6-0.9c0.5-0.3,1-0.5,1.6-0.5
			l3.3-0.3c0.6,0,1.1,0.1,1.6,0.4l2,1.3c0.5,0.4,0.9,0.8,1.1,1.4l0.9,2.1c0.2,0.6,0.2,1.2,0,1.8l-0.8,1.9c-0.2,0.5-0.7,1-1.2,1.3
			l-2.1,0.9c-0.5,0.2-1.1,0.3-1.7,0.4l-3.2,0.1c-0.6,0-1.1-0.1-1.6-0.4l-1.3-0.7C45.4,24,45,23.5,44.8,22.9z"/>
		<path class="st1" d="M55.7,15.6l-2-0.9c-0.5-0.2-1.1-0.3-1.7-0.3h-1.2c-0.6,0-1.1,0.1-1.7,0.2l-1.2,0.3c-0.6,0.2-1.1,0.4-1.6,0.7
			l-0.4,0.3c-0.5,0.4-0.8,0.9-1,1.4l-0.4,1.3c-0.2,0.6,0,1.2,0.3,1.6l0.3,0.4c0.3,0.4,0.8,0.3,1-0.2v-0.1c0.2-0.5,0.4-0.5,0.5,0.1
			l0.3,1.8c0.1,0.5,0.4,0.7,0.7,0.3c0.4-0.4,0.8-0.8,1.3-1.1l0.5-0.3c0.5-0.3,1.1-0.2,1.5,0.1c0.4,0.3,0.9,0.4,1.3,0.1l0.8-0.6
			c0.4-0.3,0.7-0.6,0.8-1.1c0-0.3,0.5-0.6,0.9-0.6l0.5-0.1c0.4-0.1,0.9-0.1,1.3-0.1c0.3,0,0.4-0.4,0.3-1L56.7,17
			C56.6,16.4,56.2,15.9,55.7,15.6z"/>
		<path class="st2" d="M46.9,18.1l0.3,3.6c0,0.6,0.2,0.6,0.4,0.1l0.6-1.6c0.2-0.5,0.6-0.7,0.9-0.5c0.4,0.2,0.9,0.1,1.2-0.3l1.4-1.6
			c0.4-0.4,0.9-0.6,1.4-0.5l2.5,0.7c0.5,0.1,0.8-0.3,0.8-0.8V17c0-0.6-0.3-1.1-0.8-1.5l-2-1.3c-0.5-0.3-1-0.4-1.6-0.4L48.8,14
			c-0.6,0.1-1.1,0.2-1.6,0.5l-1.6,0.9c-0.5,0.3-0.7,0.9-0.6,1.5l0.1,0.4c0.1,0.5,0.5,0.7,0.9,0.4l0.1-0.1
			C46.5,17.3,46.9,17.5,46.9,18.1z"/>
		<path class="st3" d="M56.9,22.7l0.8-1.9c0.2-0.5,0.1-0.6-0.2-0.2l-0.6,0.7c-0.3,0.4-0.8,0.5-1,0.1s-0.3-0.7,0-0.8s0.2-0.4,0-0.7
			s-0.3-0.3-0.2,0s0,0.5-0.2,0.6s-0.3,0.5-0.3,1.1v0.1c0.1,0.6-0.1,1.2-0.5,1.6L54,24c-0.4,0.3-1,0.6-1.5,0.6l-1.5,0
			c-0.5,0-1-0.4-1.1-0.9l-0.1-0.4c-0.1-0.5-0.3-0.5-0.5,0l-0.1,0.4c-0.1,0.5-0.6,0.8-1,0.6L47.7,24c-0.4-0.2-0.7-0.1-0.6,0.2
			s-0.1,0.4-0.5,0.1l-0.2-0.2c-0.5-0.4-0.9-0.8-1.2-1.3l-0.8-1.5C44.1,21,44,21,44.2,21.5l0.6,1.5c0.2,0.6,0.6,1.1,1.1,1.5l0.8,0.6
			c0.5,0.3,1,0.6,1.5,0.6l3.6,0.3c0.6,0,1.1-0.1,1.6-0.4l2.4-1.5C56.3,23.8,56.7,23.3,56.9,22.7z"/>
		<path class="st4" d="M51,21c0.5,0.2,1,0.1,1.5-0.1l0.5-0.3c0.4-0.3,0.7-0.7,0.9-1.1c0.2-0.4,0.6-0.7,1-0.6h1.5
			c0.5,0,0.5,0.1,0,0.1L55.2,19c-0.5,0-0.9,0.3-1,0.8c-0.2,0.5-0.5,0.9-0.9,1.1l-0.9,0.5c-0.4,0.2-1,0.2-1.4-0.1
			C50.6,21,50.6,20.9,51,21z"/>
		<path class="st1" d="M49.8,23.4l0.1,0.3c0.1,0.5,0.6,0.9,1.1,0.9l1.4-0.1c0.5,0,0.5-0.1,0-0.1l-1.3-0.1c-0.6-0.1-1-0.5-1.2-1v-0.1
			C49.7,22.9,49.6,22.9,49.8,23.4z"/>
		<path class="st4" d="M47.2,17.5c0.1,0.5,0.4,0.9,0.8,1.2l0.9,0.5c0.4,0.3,0.9,0.2,1.2-0.2c0.2-0.4,0.2-0.5-0.1-0.3
			c-0.4,0.2-0.9,0.2-1.3-0.1l-0.4-0.3c-0.4-0.2-0.8-0.6-1-1C47.3,17,47.2,17.1,47.2,17.5z"/>
	</g>
</g>
</svg>
