<?xml version="1.0" encoding="utf-8"?>
<!-- Generator: Adobe Illustrator 23.0.3, SVG Export Plug-In . SVG Version: 6.00 Build 0)  -->
<svg version="1.1" id="Layer_1" xmlns="http://www.w3.org/2000/svg" xmlns:xlink="http://www.w3.org/1999/xlink" x="0px" y="0px"
	 viewBox="0 0 141 102.4" style="enable-background:new 0 0 141 102.4;" xml:space="preserve">
<style type="text/css">
	.st0{fill:#727272;}
	.st1{fill:#8F8F8F;}
	.st2{fill:#ADADAD;}
	.st3{fill:#5B5B5B;}
	.st4{fill:#EDEDED;}
</style>
<title>Asset 2</title>
<g>
	<g id="Layer_1-2">
		<path class="st0" d="M72.4,32.2l-1-2.5c-0.4-1.1-0.5-2.2-0.3-3.3l1-4.6c0.2-1,0.8-1.9,1.7-2.5l2.7-1.6c0.9-0.5,1.8-0.8,2.8-0.9
			l5.8-0.5c1,0,1.9,0.2,2.8,0.7l3.5,2.3c0.8,0.6,1.5,1.5,1.9,2.4l1.5,3.6c0.4,1,0.4,2.1,0,3.2l-1.4,3.3c-0.4,0.9-1.1,1.7-2,2.2
			l-3.6,1.5c-0.9,0.4-1.9,0.6-2.8,0.7l-5.5,0.2c-1,0-1.9-0.2-2.8-0.7l-2.2-1.2C73.5,33.9,72.8,33.1,72.4,32.2z"/>
		<path class="st1" d="M91.2,19.5L87.7,18c-0.9-0.4-1.9-0.6-2.8-0.6h-2c-1,0-2,0.1-2.9,0.4l-2.1,0.5c-1,0.3-1.9,0.7-2.7,1.2
			l-0.7,0.5c-0.8,0.6-1.5,1.5-1.8,2.5l-0.7,2.3c-0.3,1-0.1,2,0.5,2.9l0.6,0.7c0.6,0.7,1.3,0.5,1.7-0.4l0.1-0.2
			c0.3-0.9,0.8-0.8,0.9,0.1l0.5,3c0.2,1,0.7,1.2,1.3,0.6c0.7-0.7,1.4-1.4,2.3-1.9l0.9-0.5c0.8-0.4,1.8-0.3,2.4,0.3
			c0.7,0.6,1.6,0.6,2.3,0.1l1.3-1c0.6-0.5,1.1-1.1,1.4-1.9c0.1-0.5,0.8-1,1.6-1.1l1-0.1c0.8-0.1,1.8-0.2,2.3-0.2s0.7-0.8,0.4-1.7
			L93,21.8C92.7,20.9,92.1,20,91.2,19.5z"/>
		<path class="st2" d="M76,23.7l0.5,6.3c0.1,1,0.4,1,0.7,0.1l1.1-2.8c0.3-0.9,1.1-1.2,1.6-0.8c0.7,0.4,1.6,0.2,2.1-0.4l2.4-2.8
			c0.6-0.7,1.6-1,2.5-0.9l4.4,1.1c0.8,0.2,1.4-0.4,1.4-1.4v-0.2c0-1-0.5-2-1.3-2.6L87.8,17c-0.8-0.5-1.8-0.8-2.8-0.7l-5.8,0.5
			c-1,0.1-1.9,0.4-2.8,0.9l-2.7,1.6c-0.8,0.6-1.1,1.5-0.9,2.5l0.1,0.7c0.2,0.9,0.9,1.3,1.6,0.7l0.2-0.1C75.4,22.4,76,22.8,76,23.7z"
			/>
		<path class="st3" d="M93.3,31.8l1.4-3.3c0.4-0.9,0.2-1-0.3-0.3l-1,1.3c-0.6,0.7-1.3,0.8-1.7,0.1s-0.4-1.3-0.1-1.5s0.3-0.7,0-1.2
			s-0.5-0.5-0.3,0s0.1,0.9-0.3,1s-0.6,0.9-0.4,1.9V30c0.2,1-0.2,2-0.9,2.7l-1.4,1.2c-0.8,0.6-1.7,1-2.6,1.1l-2.5,0.1
			c-0.9-0.1-1.7-0.7-1.9-1.6L81,32.8c-0.2-0.9-0.6-0.9-0.8,0l-0.1,0.6c-0.2,0.9-1,1.4-1.7,1l-1-0.5c-0.8-0.4-1.2-0.2-1,0.4
			s-0.2,0.7-0.9,0.2l-0.4-0.3c-0.8-0.6-1.5-1.4-2.1-2.3l-1.5-2.5c-0.5-0.8-0.6-0.7-0.2,0.1l1,2.5c0.4,1,1.1,1.8,1.8,2.6l1.3,1.1
			c0.8,0.6,1.7,1,2.7,1.1l6.2,0.5c1,0,1.9-0.2,2.8-0.7l4.2-2.5C92.2,33.5,92.9,32.7,93.3,31.8z"/>
		<path class="st4" d="M83.1,28.9c0.8,0.3,1.8,0.2,2.5-0.2l0.8-0.5c0.7-0.5,1.3-1.1,1.5-2c0.3-0.7,1-1.2,1.7-1.1l2.6,0
			c0.8,0,0.8,0.1,0,0.2l-2,0.2c-0.8,0.1-1.5,0.6-1.7,1.3c-0.3,0.8-0.8,1.5-1.6,1.9l-1.6,0.9c-0.8,0.4-1.8,0.3-2.4-0.3
			C82.4,28.8,82.5,28.6,83.1,28.9z"/>
		<path class="st1" d="M81,33l0.2,0.5c0.2,0.9,1,1.5,1.9,1.6l2.5-0.1c0.8,0,0.8-0.1,0-0.2l-2.2-0.2c-0.9-0.2-1.7-0.8-2.1-1.7
			l-0.1-0.1C80.8,32,80.8,32.1,81,33z"/>
		<path class="st4" d="M76.6,22.7c0.2,0.8,0.7,1.5,1.4,2l1.5,0.9c0.6,0.4,1.5,0.3,2-0.3c0.4-0.6,0.3-0.8-0.1-0.4
			c-0.7,0.4-1.5,0.3-2.2-0.2l-0.8-0.5c-0.7-0.5-1.3-1.1-1.7-1.8C76.6,22,76.5,22.1,76.6,22.7z"/>
		<path class="st0" d="M64.2,52.7l-0.9-2.3c-0.3-1-0.4-2-0.2-3l0.9-4.2c0.2-0.9,0.8-1.7,1.5-2.3l2.5-1.5c0.8-0.4,1.6-0.7,2.5-0.8
			l5.3-0.4c0.9,0,1.8,0.2,2.5,0.7l3.2,2.1c0.8,0.6,1.4,1.3,1.8,2.2l1.3,3.3c0.3,0.9,0.3,1.9,0,2.9l-1.3,3c-0.4,0.9-1,1.6-1.8,2
			l-3.3,1.4c-0.8,0.3-1.7,0.5-2.6,0.6l-5,0.2c-0.9,0-1.8-0.2-2.6-0.6l-2-1.1C65.2,54.3,64.6,53.6,64.2,52.7z"/>
		<path class="st1" d="M81.4,41.3l-3.2-1.4c-0.8-0.3-1.7-0.5-2.6-0.5h-1.8c-0.9,0-1.8,0.1-2.6,0.3l-1.9,0.5
			c-0.9,0.2-1.7,0.6-2.5,1.1L66,41.6c-0.8,0.6-1.3,1.4-1.6,2.3L63.7,46c-0.2,0.9-0.1,1.9,0.5,2.6l0.6,0.6c0.5,0.6,1.2,0.5,1.5-0.3
			v-0.1c0.3-0.8,0.7-0.8,0.8,0.1l0.5,2.8c0.2,0.9,0.7,1.1,1.2,0.5c0.6-0.7,1.3-1.3,2.1-1.7l0.8-0.5c0.7-0.4,1.6-0.3,2.2,0.2
			c0.6,0.5,1.5,0.6,2.1,0.1l1.2-0.9c0.6-0.4,1-1,1.3-1.7c0.1-0.5,0.7-0.9,1.5-1l0.9-0.1c0.7-0.1,1.7-0.2,2.1-0.2s0.6-0.7,0.4-1.5
			L83,43.3C82.8,42.4,82.2,41.7,81.4,41.3z"/>
		<path class="st2" d="M67.6,45l0.4,5.7c0.1,0.9,0.4,0.9,0.7,0.1l1-2.5c0.3-0.8,1-1.1,1.5-0.7c0.6,0.4,1.4,0.2,1.9-0.4l2.2-2.6
			c0.6-0.6,1.4-0.9,2.3-0.8l4,1c0.7,0.2,1.3-0.4,1.3-1.3v-0.2c-0.1-0.9-0.5-1.8-1.3-2.4l-3.2-2.1c-0.8-0.5-1.6-0.7-2.5-0.7l-5.3,0.4
			c-0.9,0.1-1.7,0.4-2.5,0.8L65.5,41c-0.7,0.5-1,1.4-0.9,2.3l0.1,0.6c0.2,0.8,0.8,1.1,1.4,0.6l0.2-0.1C67,43.9,67.5,44.2,67.6,45z"
			/>
		<path class="st3" d="M83.3,52.4l1.3-3c0.3-0.8,0.2-0.9-0.3-0.3l-0.9,1.2c-0.5,0.7-1.2,0.7-1.6,0.1s-0.4-1.2-0.1-1.3s0.3-0.6,0-1.1
			s-0.5-0.4-0.3,0s0.1,0.8-0.3,0.9s-0.6,0.9-0.4,1.7v0.2c0.1,0.9-0.2,1.8-0.8,2.5l-1.3,1.1c-0.7,0.6-1.5,0.9-2.4,1L74,55.4
			c-0.8,0-1.5-0.6-1.7-1.4l-0.2-0.7c-0.2-0.8-0.6-0.8-0.7,0l-0.1,0.6c-0.2,0.8-0.9,1.3-1.6,0.9l-0.9-0.5c-0.7-0.3-1.1-0.2-0.9,0.4
			s-0.2,0.7-0.8,0.2l-0.3-0.2c-0.8-0.6-1.4-1.3-1.9-2.1l-1.3-2.3c-0.4-0.7-0.5-0.7-0.2,0.1l0.9,2.3c0.4,0.9,1,1.7,1.7,2.3l1.2,1
			c0.7,0.5,1.6,0.9,2.4,1l5.6,0.4c0.9,0,1.8-0.2,2.5-0.6l3.8-2.3C82.3,54,82.9,53.3,83.3,52.4z"/>
		<path class="st4" d="M74.1,49.7c0.8,0.3,1.6,0.2,2.3-0.2l0.7-0.5c0.7-0.4,1.2-1,1.4-1.8c0.2-0.6,0.9-1.1,1.6-1h2.3
			c0.7,0,0.7,0.1,0,0.2l-1.8,0.2c-0.7,0.1-1.3,0.5-1.6,1.2c-0.2,0.7-0.8,1.4-1.4,1.7l-1.4,0.8c-0.7,0.4-1.6,0.3-2.2-0.3
			C73.4,49.6,73.4,49.5,74.1,49.7z"/>
		<path class="st1" d="M72.1,53.5l0.1,0.5c0.2,0.8,0.9,1.4,1.7,1.4l2.3-0.1c0.7,0,0.7-0.1,0-0.2l-2-0.1c-0.9-0.1-1.6-0.7-1.9-1.5
			l-0.1-0.1C72,52.6,71.9,52.6,72.1,53.5z"/>
		<path class="st4" d="M68.1,44.2c0.2,0.8,0.6,1.4,1.3,1.8l1.4,0.9c0.6,0.4,1.4,0.3,1.9-0.3c0.4-0.6,0.3-0.7-0.1-0.4
			c-0.6,0.3-1.4,0.3-2-0.2l-0.7-0.5c-0.6-0.4-1.1-1-1.5-1.6C68.1,43.4,68,43.5,68.1,44.2z"/>
		<path class="st0" d="M56.7,41.2l-0.4-0.9c-0.1-0.4-0.2-0.8-0.1-1.2l0.4-1.7c0.1-0.4,0.3-0.7,0.6-0.9l1-0.6c0.3-0.2,0.6-0.3,1-0.3
			l2.2-0.2c0.4,0,0.7,0.1,1,0.3l1.3,0.8c0.3,0.2,0.6,0.5,0.7,0.9l0.6,1.3c0.1,0.4,0.1,0.8,0,1.1l-0.5,1.2c-0.2,0.3-0.4,0.6-0.8,0.8
			l-1.4,0.6c-0.3,0.1-0.7,0.2-1.1,0.2l-2.1,0.1c-0.4,0-0.7-0.1-1.1-0.3l-0.8-0.4C57.1,41.9,56.9,41.6,56.7,41.2z"/>
		<path class="st1" d="M63.9,36.7l-1.3-0.6c-0.3-0.1-0.7-0.2-1.1-0.2h-0.8c-0.4,0-0.7,0-1.1,0.1l-0.8,0.2c-0.4,0.1-0.7,0.2-1,0.4
			l-0.3,0.2c-0.3,0.2-0.6,0.5-0.7,0.9l-0.3,0.8c-0.1,0.3,0,0.7,0.2,1l0.2,0.3c0.1,0.2,0.3,0.2,0.5,0.1c0.1-0.1,0.1-0.1,0.1-0.2v-0.1
			c0.1-0.3,0.3-0.3,0.3,0l0.2,1.1c0.1,0.3,0.3,0.4,0.5,0.2c0.3-0.3,0.6-0.5,0.9-0.7l0.3-0.2c0.3-0.2,0.7-0.1,0.9,0.1
			c0.3,0.2,0.6,0.2,0.9,0l0.5-0.4c0.2-0.2,0.4-0.4,0.5-0.7c0-0.2,0.3-0.4,0.6-0.4h0.4c0.3,0,0.7-0.1,0.9-0.1s0.3-0.3,0.2-0.6
			l-0.1-0.6C64.5,37.1,64.2,36.8,63.9,36.7z"/>
		<path class="st2" d="M58.1,38.2l0.2,2.3c0,0.3,0.2,0.4,0.3,0.1l0.4-1c0.1-0.3,0.4-0.5,0.6-0.3c0.3,0.1,0.6,0.1,0.8-0.2l0.9-1
			c0.3-0.3,0.6-0.4,1-0.3l1.7,0.4c0.3,0.1,0.5-0.2,0.5-0.5v-0.1c0-0.4-0.2-0.8-0.5-1l-1.4-0.9c-0.3-0.2-0.6-0.3-1-0.3l-2.2,0.2
			c-0.4,0-0.7,0.2-1,0.3l-1,0.6c-0.3,0.2-0.4,0.6-0.4,0.9v0.3c0.1,0.3,0.3,0.5,0.6,0.3h0.1C57.9,37.7,58.1,37.8,58.1,38.2z"/>
		<path class="st3" d="M64.7,41.1l0.5-1.2c0.1-0.3,0.1-0.4-0.1-0.1l-0.4,0.5c-0.2,0.3-0.5,0.3-0.7,0c-0.2-0.3-0.2-0.5,0-0.5
			c0.2-0.1,0.1-0.3,0-0.4c-0.1-0.2-0.2-0.2-0.1,0c0.1,0.2,0,0.3-0.1,0.4s-0.2,0.3-0.2,0.7v0.1c0.1,0.4-0.1,0.7-0.3,1l-0.5,0.4
			c-0.3,0.2-0.6,0.4-1,0.4h-0.9c-0.3,0-0.6-0.3-0.7-0.6l-0.1-0.3c-0.1-0.3-0.2-0.3-0.3,0l-0.1,0.2c0,0.3-0.3,0.4-0.5,0.4
			c0,0-0.1,0-0.1,0l-0.4-0.2c-0.3-0.1-0.4-0.1-0.4,0.2S58.2,42.2,58,42l-0.2-0.1c-0.3-0.2-0.6-0.5-0.8-0.8l-0.6-0.9
			c-0.2-0.3-0.2-0.3-0.1,0.1l0.4,0.9c0.2,0.4,0.4,0.7,0.7,0.9l0.5,0.4c0.3,0.2,0.6,0.3,1,0.4l2.3,0.2c0.4,0,0.7-0.1,1.1-0.2l1.6-0.9
			C64.3,41.7,64.6,41.4,64.7,41.1z"/>
		<path class="st4" d="M60.8,40c0.3,0.1,0.7,0.1,1-0.1l0.3-0.2c0.3-0.2,0.5-0.4,0.6-0.7c0.1-0.3,0.4-0.4,0.6-0.4h1
			c0.3,0,0.3,0,0,0.1l-0.8,0.1c-0.3,0-0.6,0.2-0.7,0.5c-0.1,0.3-0.3,0.5-0.6,0.7l-0.6,0.3c-0.3,0.1-0.7,0.1-0.9-0.1
			C60.6,40,60.6,39.9,60.8,40z"/>
		<path class="st1" d="M60,41.5l0.1,0.2c0.1,0.3,0.4,0.6,0.7,0.6h0.9c0.3,0,0.3,0,0-0.1h-0.8c-0.4-0.1-0.7-0.3-0.8-0.6l0,0
			C60,41.2,59.9,41.2,60,41.5z"/>
		<path class="st4" d="M58.3,37.8c0.1,0.3,0.3,0.6,0.5,0.7l0.6,0.3c0.2,0.2,0.6,0.1,0.8-0.1c0.2-0.2,0.1-0.3,0-0.2
			c-0.3,0.1-0.6,0.1-0.8-0.1l-0.3-0.2c-0.3-0.2-0.5-0.4-0.6-0.7C58.4,37.5,58.3,37.6,58.3,37.8z"/>
		<path class="st0" d="M57.4,17.1l-1-2.5c-0.4-1.1-0.5-2.2-0.3-3.3l1-4.6c0.2-1,0.8-1.9,1.7-2.5l2.7-1.6c0.9-0.5,1.8-0.8,2.8-0.9
			L70,1.3c1,0,1.9,0.2,2.8,0.7l3.5,2.3c0.8,0.6,1.5,1.5,1.9,2.4l1.5,3.6c0.4,1,0.4,2.1,0,3.2l-1.4,3.3c-0.4,0.9-1.1,1.7-2,2.2
			l-3.6,1.5c-0.9,0.4-1.9,0.6-2.8,0.6l-5.5,0.2c-1,0-1.9-0.2-2.8-0.7l-2.2-1.2C58.5,18.9,57.8,18.1,57.4,17.1z"/>
		<path class="st1" d="M76.2,4.6L72.7,3c-0.9-0.4-1.9-0.6-2.8-0.6h-2c-1,0-2,0.1-2.9,0.3l-2.1,0.5c-1,0.3-1.9,0.7-2.7,1.2L59.3,5
			c-0.8,0.6-1.5,1.5-1.8,2.5l-0.7,2.3c-0.3,1-0.1,2,0.5,2.9l0.6,0.7c0.6,0.7,1.3,0.5,1.7-0.4l0.1-0.2c0.3-0.9,0.8-0.8,0.9,0.1
			l0.5,3.1c0.2,1,0.7,1.2,1.3,0.6c0.7-0.7,1.4-1.4,2.3-1.9l0.9-0.5c0.8-0.4,1.8-0.3,2.4,0.3c0.7,0.6,1.6,0.6,2.3,0.1l1.3-1
			c0.6-0.5,1.1-1.1,1.4-1.9c0.1-0.5,0.8-1,1.6-1.1l1-0.1c0.8-0.1,1.8-0.2,2.3-0.2s0.7-0.8,0.4-1.7L78,6.8C77.7,5.9,77.1,5,76.2,4.6z
			"/>
		<path class="st2" d="M61,8.7l0.5,6.3c0.1,1,0.4,1,0.7,0.1l1.1-2.8c0.3-0.9,1.1-1.2,1.6-0.8c0.7,0.4,1.6,0.2,2.1-0.4l2.4-2.8
			c0.6-0.7,1.6-1,2.5-0.9l4.4,1.1c0.8,0.2,1.4-0.4,1.4-1.4V6.9c0-1-0.5-2-1.3-2.6L72.8,2C71.9,1.5,71,1.2,70,1.3l-5.8,0.5
			c-1,0.1-1.9,0.4-2.8,0.9l-2.7,1.6c-0.8,0.6-1.1,1.5-0.9,2.5l0.1,0.7c0.2,0.9,0.9,1.3,1.6,0.7L59.7,8C60.4,7.4,61,7.8,61,8.7z"/>
		<path class="st3" d="M78.3,16.8l1.4-3.3c0.4-0.9,0.2-1-0.3-0.3l-1,1.3c-0.6,0.7-1.3,0.8-1.7,0.1s-0.4-1.3-0.1-1.5s0.3-0.7,0-1.2
			s-0.5-0.5-0.3,0s0.1,0.9-0.3,1s-0.6,0.9-0.4,1.9V15c0.2,1-0.2,2-0.9,2.7l-1.4,1.2c-0.8,0.6-1.7,1-2.6,1.1l-2.5,0.1
			c-0.9-0.1-1.7-0.7-1.9-1.6L66,17.8c-0.2-0.9-0.6-0.9-0.8,0l-0.1,0.6c-0.2,0.9-1,1.4-1.7,1l-1-0.5c-0.8-0.4-1.2-0.2-1,0.4
			s-0.2,0.7-0.9,0.2l-0.4-0.3c-0.8-0.6-1.5-1.4-2.1-2.3l-1.5-2.5c-0.5-0.8-0.5-0.7-0.2,0.1l1,2.5c0.4,1,1.1,1.8,1.8,2.6l1.3,1.1
			c0.8,0.6,1.7,1,2.7,1.1l6.2,0.5c1,0,1.9-0.2,2.8-0.7l4.2-2.5C77.2,18.5,77.9,17.7,78.3,16.8z"/>
		<path class="st4" d="M68.1,13.9c0.8,0.3,1.8,0.2,2.5-0.2l0.8-0.5c0.7-0.5,1.3-1.2,1.6-2c0.3-0.7,1-1.2,1.7-1.1h2.6
			c0.8,0,0.8,0.1,0,0.2l-2,0.2c-0.8,0.1-1.5,0.6-1.7,1.3c-0.3,0.8-0.8,1.5-1.6,1.9l-1.6,0.9c-0.8,0.4-1.8,0.3-2.4-0.3
			C67.4,13.8,67.5,13.6,68.1,13.9z"/>
		<path class="st1" d="M66,18l0.2,0.5c0.2,0.9,1,1.5,1.9,1.6l2.5-0.1c0.8,0,0.8-0.1,0-0.2l-2.2-0.2c-0.9-0.2-1.7-0.8-2.1-1.7
			l-0.1-0.1C65.8,17,65.8,17.1,66,18z"/>
		<path class="st4" d="M61.6,7.7c0.2,0.8,0.7,1.5,1.4,2l1.5,0.9c0.6,0.4,1.5,0.3,2-0.3c0.4-0.6,0.3-0.8-0.1-0.4
			c-0.7,0.4-1.5,0.3-2.2-0.2l-0.8-0.5c-0.7-0.5-1.3-1.1-1.7-1.8C61.6,7,61.5,7.1,61.6,7.7z"/>
		<path class="st0" d="M68.4,40.2l-1-2.5c-0.4-1.1-0.5-2.2-0.3-3.3l1-4.6c0.2-1,0.8-1.9,1.7-2.5l2.7-1.6c0.9-0.5,1.8-0.8,2.8-0.9
			l5.8-0.5c1,0,1.9,0.2,2.8,0.7l3.5,2.3c0.8,0.6,1.5,1.5,1.9,2.4l1.5,3.6c0.4,1,0.4,2.1,0,3.2l-1.4,3.3c-0.4,0.9-1.1,1.7-2,2.2
			l-3.6,1.5c-0.9,0.4-1.9,0.6-2.8,0.7l-5.5,0.2c-1,0-1.9-0.2-2.8-0.7l-2.2-1.2C69.5,41.9,68.8,41.1,68.4,40.2z"/>
		<path class="st1" d="M87.2,27.5L83.7,26c-0.9-0.4-1.9-0.6-2.8-0.6h-2c-1,0-2,0.1-2.9,0.4l-2.1,0.5c-1,0.3-1.9,0.7-2.7,1.2
			l-0.7,0.5c-0.8,0.6-1.5,1.5-1.8,2.5l-0.7,2.3c-0.3,1-0.1,2,0.5,2.8l0.6,0.7c0.6,0.7,1.3,0.5,1.7-0.4l0.1-0.2
			c0.3-0.9,0.8-0.8,0.9,0.1l0.5,3c0.2,1,0.7,1.2,1.3,0.6c0.7-0.7,1.4-1.4,2.3-1.9l0.9-0.5c0.8-0.4,1.8-0.3,2.4,0.3
			c0.7,0.6,1.6,0.6,2.3,0.1l1.3-1c0.6-0.5,1.1-1.1,1.4-1.9c0.1-0.5,0.8-1,1.6-1.1l1-0.1c0.8-0.1,1.8-0.2,2.3-0.2s0.7-0.8,0.4-1.7
			L89,29.8C88.7,28.9,88.1,28,87.2,27.5z"/>
		<path class="st2" d="M72,31.7l0.5,6.3c0.1,1,0.4,1,0.7,0.2l1.1-2.8c0.3-0.9,1.1-1.2,1.6-0.8c0.7,0.4,1.6,0.2,2.1-0.4l2.4-2.8
			c0.6-0.7,1.6-1,2.5-0.9l4.4,1.1c0.8,0.2,1.4-0.4,1.4-1.4v-0.2c0-1-0.5-2-1.3-2.6L83.8,25c-0.8-0.5-1.8-0.8-2.8-0.7l-5.8,0.5
			c-1,0.1-1.9,0.4-2.8,0.9l-2.7,1.6c-0.8,0.6-1.1,1.5-0.9,2.5l0.1,0.7c0.2,0.9,0.9,1.3,1.6,0.7l0.2-0.1C71.4,30.4,72,30.8,72,31.7z"
			/>
		<path class="st3" d="M89.3,39.8l1.4-3.3c0.4-0.9,0.2-1-0.3-0.3l-1,1.3c-0.6,0.7-1.3,0.8-1.7,0.2s-0.4-1.3-0.1-1.5s0.3-0.7,0-1.2
			s-0.5-0.5-0.3,0s0.1,0.9-0.3,1s-0.6,0.9-0.4,1.9V38c0.2,1-0.2,2-0.9,2.7l-1.4,1.2c-0.8,0.6-1.7,1-2.6,1.1l-2.5,0.1
			c-0.9-0.1-1.7-0.7-1.9-1.6L77,40.8c-0.2-0.9-0.6-0.9-0.8,0l-0.1,0.6c-0.2,0.9-1,1.4-1.7,1l-1-0.5c-0.8-0.4-1.2-0.2-1,0.4
			s-0.2,0.7-0.9,0.2l-0.4-0.3c-0.8-0.6-1.5-1.4-2.1-2.3l-1.5-2.5c-0.5-0.8-0.6-0.7-0.2,0.1l1,2.5c0.4,1,1.1,1.8,1.8,2.6l1.3,1.1
			c0.8,0.6,1.7,1,2.7,1.1l6.2,0.5c1,0,1.9-0.2,2.8-0.7l4.2-2.5C88.2,41.5,88.9,40.7,89.3,39.8z"/>
		<path class="st4" d="M79.1,36.9c0.8,0.3,1.8,0.2,2.5-0.2l0.8-0.5c0.7-0.5,1.3-1.2,1.6-2c0.3-0.7,1-1.2,1.7-1.1h2.6
			c0.8,0,0.8,0.1,0,0.2l-2,0.2c-0.8,0.1-1.5,0.6-1.7,1.3c-0.3,0.8-0.8,1.5-1.6,1.9l-1.6,0.9c-0.8,0.4-1.8,0.3-2.4-0.3
			C78.4,36.8,78.5,36.6,79.1,36.9z"/>
		<path class="st1" d="M77,41l0.2,0.5c0.2,0.9,1,1.5,1.9,1.6l2.5-0.1c0.8,0,0.8-0.1,0-0.2l-2.2-0.2c-0.9-0.2-1.7-0.8-2.1-1.7
			l-0.1-0.1C76.8,40,76.8,40.1,77,41z"/>
		<path class="st4" d="M72.6,30.7c0.2,0.8,0.7,1.5,1.4,2l1.5,0.9c0.6,0.4,1.5,0.3,2-0.3c0.4-0.6,0.3-0.8-0.1-0.4
			c-0.7,0.4-1.5,0.3-2.2-0.2l-0.8-0.5c-0.7-0.5-1.3-1.1-1.7-1.8C72.6,30,72.5,30.1,72.6,30.7z"/>
		<path class="st0" d="M39.2,40.8l-0.9-2.3c-0.3-1-0.4-2-0.2-3l0.9-4.2c0.2-0.9,0.8-1.7,1.5-2.3l2.5-1.5c0.8-0.4,1.6-0.7,2.5-0.8
			l5.3-0.4c0.9,0,1.8,0.2,2.5,0.7l3.2,2.1c0.8,0.6,1.4,1.3,1.8,2.2l1.3,3.3c0.3,0.9,0.3,1.9,0,2.9l-1.3,3c-0.4,0.9-1,1.6-1.8,2
			l-3.3,1.4c-0.8,0.3-1.7,0.5-2.6,0.6l-5,0.2c-0.9,0-1.8-0.2-2.6-0.7l-2-1.1C40.2,42.4,39.6,41.7,39.2,40.8z"/>
		<path class="st1" d="M56.4,29.4L53.2,28c-0.8-0.3-1.7-0.5-2.6-0.5h-1.8c-0.9,0-1.8,0.1-2.6,0.3l-1.9,0.5c-0.9,0.2-1.7,0.6-2.5,1.1
			L41,29.8c-0.8,0.6-1.3,1.4-1.6,2.3l-0.7,2.1c-0.2,0.9-0.1,1.9,0.5,2.6l0.6,0.6c0.5,0.6,1.2,0.5,1.5-0.3l0-0.1
			c0.3-0.8,0.7-0.8,0.8,0.1l0.5,2.8c0.2,0.9,0.7,1.1,1.2,0.5c0.6-0.7,1.3-1.2,2.1-1.7l0.8-0.5c0.7-0.4,1.6-0.3,2.2,0.3
			c0.6,0.5,1.5,0.5,2.1,0.1l1.2-0.9c0.6-0.4,1-1,1.3-1.7c0.1-0.5,0.7-0.9,1.5-1l0.9-0.1c0.7-0.1,1.7-0.2,2.1-0.2s0.6-0.7,0.4-1.5
			L58,31.4C57.8,30.6,57.2,29.8,56.4,29.4z"/>
		<path class="st2" d="M42.6,33.2l0.4,5.7c0.1,0.9,0.4,1,0.7,0.1l1-2.5c0.3-0.8,1-1.1,1.5-0.7c0.6,0.4,1.5,0.2,1.9-0.4l2.2-2.5
			c0.6-0.6,1.4-0.9,2.2-0.8l4,1c0.7,0.2,1.3-0.4,1.3-1.3v-0.2c0-0.9-0.5-1.8-1.2-2.4L53.3,27c-0.8-0.5-1.6-0.7-2.5-0.7l-5.3,0.4
			c-0.9,0.1-1.7,0.4-2.5,0.8l-2.5,1.5c-0.7,0.5-1,1.4-0.9,2.3l0.1,0.6c0.2,0.9,0.8,1.1,1.4,0.6l0.2-0.1C42,32,42.5,32.3,42.6,33.2z"
			/>
		<path class="st3" d="M58.3,40.5l1.3-3c0.3-0.8,0.2-0.9-0.3-0.3l-0.9,1.1c-0.5,0.7-1.2,0.7-1.6,0.1s-0.4-1.2-0.1-1.3s0.3-0.6,0-1.1
			s-0.5-0.4-0.3,0s0.1,0.8-0.3,0.9s-0.5,0.8-0.4,1.7v0.2c0.1,0.9-0.2,1.8-0.8,2.5l-1.3,1.1c-0.7,0.6-1.5,0.9-2.4,1L49,43.5
			c-0.8-0.1-1.5-0.7-1.7-1.5l-0.2-0.7c-0.2-0.8-0.5-0.8-0.7,0L46.3,42c-0.2,0.9-0.9,1.3-1.6,0.9l-0.9-0.5c-0.7-0.3-1.1-0.2-0.9,0.4
			s-0.2,0.7-0.8,0.2l-0.3-0.2c-0.8-0.6-1.4-1.3-1.9-2.1l-1.3-2.3c-0.4-0.7-0.5-0.7-0.2,0.1l0.9,2.3c0.4,0.9,1,1.7,1.7,2.3l1.2,1
			c0.7,0.5,1.6,0.9,2.4,1l5.6,0.4c0.9,0,1.8-0.2,2.5-0.6l3.8-2.3C57.3,42.1,57.9,41.4,58.3,40.5z"/>
		<path class="st4" d="M49,37.8c0.8,0.3,1.6,0.2,2.3-0.2l0.7-0.4c0.7-0.4,1.2-1,1.4-1.8c0.2-0.6,0.9-1,1.6-1l2.3,0
			c0.7,0,0.7,0.1,0,0.2l-1.8,0.2c-0.7,0.1-1.3,0.5-1.6,1.2c-0.2,0.7-0.8,1.4-1.4,1.7l-1.4,0.8c-0.7,0.4-1.6,0.3-2.2-0.3
			C48.4,37.8,48.4,37.5,49,37.8z"/>
		<path class="st1" d="M47.1,41.6l0.1,0.5c0.2,0.8,0.9,1.4,1.7,1.5l2.3-0.1c0.7,0,0.7-0.1,0-0.2l-2-0.1c-0.9-0.1-1.6-0.7-1.9-1.5
			l-0.1-0.1C47,40.7,46.9,40.8,47.1,41.6z"/>
		<path class="st4" d="M43.1,32.3c0.2,0.8,0.6,1.4,1.3,1.8l1.4,0.8c0.6,0.4,1.4,0.3,1.9-0.3c0.4-0.5,0.3-0.7-0.1-0.4
			c-0.6,0.3-1.4,0.3-2-0.2l-0.7-0.5c-0.6-0.4-1.1-1-1.5-1.6C43.1,31.5,43,31.6,43.1,32.3z"/>
		<path class="st0" d="M53.8,55.4L53.2,54c-0.2-0.6-0.3-1.3-0.2-1.9l0.6-2.7c0.2-0.6,0.5-1.1,1-1.4l1.6-0.9c0.5-0.3,1-0.5,1.6-0.5
			l3.3-0.3c0.6,0,1.1,0.1,1.6,0.4l2,1.3c0.5,0.4,0.9,0.8,1.1,1.4l0.8,2.1c0.2,0.6,0.2,1.2,0,1.8l-0.8,1.9c-0.2,0.5-0.7,1-1.2,1.3
			l-2.1,0.9c-0.5,0.2-1.1,0.3-1.7,0.4l-3.2,0.1c-0.6,0-1.1-0.1-1.6-0.4l-1.3-0.7C54.4,56.5,54,56,53.8,55.4z"/>
		<path class="st1" d="M64.7,48.2l-2-0.9c-0.5-0.2-1.1-0.3-1.7-0.3h-1.2c-0.6,0-1.1,0.1-1.7,0.2l-1.2,0.3c-0.6,0.2-1.1,0.4-1.6,0.7
			l-0.4,0.3c-0.5,0.4-0.8,0.9-1,1.4l-0.4,1.3c-0.2,0.6,0,1.2,0.3,1.7l0.3,0.4c0.3,0.4,0.8,0.3,1-0.2v-0.1c0.2-0.5,0.4-0.5,0.5,0.1
			l0.3,1.8c0.1,0.5,0.4,0.7,0.7,0.3c0.4-0.4,0.8-0.8,1.3-1.1l0.5-0.3c0.5-0.2,1-0.2,1.4,0.2c0.4,0.3,1,0.3,1.3,0l0.8-0.6
			c0.4-0.3,0.7-0.6,0.8-1.1c0-0.3,0.5-0.6,0.9-0.6l0.5-0.1c0.4-0.1,0.9-0.1,1.3-0.1c0.3,0,0.4-0.4,0.3-1l-0.2-0.9
			C65.5,48.9,65.2,48.4,64.7,48.2z"/>
		<path class="st2" d="M55.9,50.6l0.3,3.6c0,0.6,0.2,0.6,0.4,0.1l0.6-1.6c0.2-0.5,0.6-0.7,0.9-0.5c0.4,0.2,0.9,0.2,1.2-0.2l1.4-1.6
			c0.4-0.4,0.9-0.6,1.4-0.5l2.5,0.6c0.5,0.1,0.8-0.3,0.8-0.8v-0.1c0-0.6-0.3-1.1-0.8-1.5l-2-1.3c-0.5-0.3-1-0.4-1.6-0.4l-3.3,0.3
			c-0.6,0.1-1.1,0.2-1.6,0.5L54.6,48c-0.5,0.3-0.7,0.9-0.6,1.4l0.1,0.4c0.1,0.5,0.5,0.7,0.9,0.4l0.1-0.1
			C55.5,49.8,55.9,50,55.9,50.6z"/>
		<path class="st3" d="M65.9,55.2l0.8-1.9c0.2-0.5,0.1-0.6-0.2-0.2l-0.6,0.7c-0.3,0.4-0.8,0.5-1,0.1s-0.3-0.7,0-0.8s0.2-0.4,0-0.7
			s-0.3-0.3-0.2,0s0,0.5-0.2,0.6s-0.3,0.5-0.3,1.1v0.1c0.1,0.6-0.1,1.2-0.5,1.6L63,56.5c-0.4,0.3-1,0.6-1.5,0.6l-1.5,0
			c-0.5,0-1-0.4-1.1-0.9l-0.1-0.4c-0.1-0.5-0.3-0.5-0.5,0l-0.1,0.4c-0.1,0.5-0.6,0.8-1,0.6l-0.6-0.3c-0.4-0.2-0.7-0.1-0.6,0.3
			s-0.1,0.4-0.5,0.1l-0.2-0.2c-0.5-0.4-0.9-0.8-1.2-1.3l-0.8-1.5c-0.3-0.5-0.3-0.4-0.1,0.1l0.6,1.5c0.2,0.6,0.6,1.1,1.1,1.5l0.8,0.6
			c0.5,0.3,1,0.6,1.5,0.6l3.6,0.3c0.6,0,1.1-0.1,1.6-0.4l2.4-1.5C65.3,56.2,65.6,55.8,65.9,55.2z"/>
		<path class="st4" d="M60,53.5c0.5,0.2,1,0.1,1.5-0.1l0.5-0.3c0.4-0.3,0.8-0.7,0.9-1.1c0.2-0.4,0.6-0.7,1-0.7h1.5
			c0.5,0,0.5,0.1,0,0.1l-1.1,0.1c-0.5,0-0.9,0.3-1,0.8c-0.2,0.5-0.5,0.9-0.9,1.1L61.4,54c-0.4,0.2-1,0.2-1.4-0.2
			C59.6,53.5,59.6,53.4,60,53.5z"/>
		<path class="st1" d="M58.8,55.9l0.1,0.3c0.1,0.5,0.6,0.9,1.1,0.9l1.4-0.1c0.5,0,0.5-0.1,0-0.1l-1.3-0.1c-0.6-0.1-1-0.5-1.2-1v-0.1
			C58.7,55.4,58.6,55.4,58.8,55.9z"/>
		<path class="st4" d="M56.2,50c0.1,0.5,0.4,0.9,0.8,1.2l0.9,0.5c0.4,0.3,0.9,0.2,1.2-0.2c0.2-0.3,0.2-0.5-0.1-0.3
			c-0.4,0.2-0.9,0.2-1.3-0.1l-0.4-0.3c-0.4-0.2-0.8-0.6-1-1C56.3,49.5,56.2,49.6,56.2,50z"/>
		<path class="st0" d="M71.5,54.5l-0.4-0.9C71,53.2,71,52.8,71,52.4l0.4-1.7c0.1-0.4,0.3-0.7,0.6-0.9l1-0.6c0.3-0.2,0.6-0.3,1-0.3
			l2.2-0.2c0.4,0,0.7,0.1,1,0.3l1.3,0.8c0.3,0.2,0.6,0.5,0.7,0.9L80,52c0.1,0.4,0.1,0.8,0,1.1l-0.5,1.2c-0.2,0.3-0.4,0.6-0.8,0.8
			l-1.4,0.5C77,55.9,76.6,56,76.2,56l-2.1,0.1c-0.4,0-0.7-0.1-1.1-0.3l-0.8-0.4C71.9,55.2,71.7,54.9,71.5,54.5z"/>
		<path class="st1" d="M78.7,50l-1.3-0.6c-0.3-0.1-0.7-0.2-1.1-0.2h-0.8c-0.4,0-0.7,0-1.1,0.1l-0.8,0.2c-0.4,0.1-0.7,0.2-1,0.4
			l-0.3,0.2c-0.3,0.2-0.6,0.5-0.7,0.9l-0.3,0.8c-0.1,0.3,0,0.7,0.2,1l0.2,0.3c0.1,0.2,0.3,0.2,0.5,0.1c0.1-0.1,0.1-0.1,0.1-0.2v-0.1
			c0.1-0.3,0.3-0.3,0.3,0l0.2,1.2c0.1,0.3,0.3,0.4,0.5,0.2c0.3-0.3,0.6-0.5,0.9-0.7l0.3-0.2c0.3-0.2,0.7-0.1,0.9,0.1
			c0.3,0.2,0.6,0.2,0.9,0l0.5-0.4c0.2-0.2,0.4-0.4,0.5-0.7c0-0.2,0.3-0.4,0.6-0.4l0.4,0c0.3,0,0.7-0.1,0.9-0.1s0.3-0.3,0.2-0.6
			l-0.2-0.6C79.3,50.4,79,50.1,78.7,50z"/>
		<path class="st2" d="M72.9,51.5l0.2,2.3c0,0.3,0.2,0.4,0.3,0.1l0.4-1c0.1-0.3,0.4-0.5,0.6-0.3c0.3,0.1,0.6,0.1,0.8-0.2l0.9-1
			c0.3-0.3,0.6-0.4,1-0.3l1.7,0.4c0.3,0.1,0.5-0.2,0.5-0.5v-0.1c0-0.4-0.2-0.8-0.5-1L77.4,49c-0.3-0.2-0.6-0.3-1-0.3l-2.2,0.2
			c-0.4,0-0.7,0.2-1,0.3l-1,0.6c-0.3,0.2-0.4,0.6-0.4,0.9V51c0.1,0.3,0.3,0.5,0.6,0.3h0.1C72.7,51,72.9,51.1,72.9,51.5z"/>
		<path class="st3" d="M79.5,54.4l0.5-1.2c0.1-0.3,0.1-0.4-0.1-0.1l-0.4,0.5c-0.2,0.3-0.5,0.3-0.7,0s-0.2-0.5,0-0.5s0.1-0.3,0-0.4
			s-0.2-0.2-0.1,0s0,0.3-0.1,0.4s-0.2,0.3-0.2,0.7v0.1c0.1,0.4-0.1,0.7-0.3,1l-0.5,0.4c-0.3,0.2-0.6,0.4-1,0.4h-0.9
			c-0.3,0-0.6-0.3-0.7-0.6l-0.1-0.3c-0.1-0.3-0.2-0.3-0.3,0L74.5,55c0,0.3-0.3,0.4-0.5,0.4c0,0-0.1,0-0.1,0l-0.4-0.2
			c-0.3-0.1-0.4-0.1-0.4,0.2s-0.1,0.3-0.3,0.1l-0.2-0.1c-0.3-0.2-0.6-0.5-0.8-0.8l-0.6-0.9c-0.2-0.3-0.2-0.3-0.1,0l0.4,0.9
			c0.2,0.4,0.4,0.7,0.7,0.9l0.5,0.4c0.3,0.2,0.6,0.3,1,0.4l2.3,0.2c0.4,0,0.7-0.1,1.1-0.2l1.6-0.9C79.1,55,79.3,54.7,79.5,54.4z"/>
		<path class="st4" d="M75.6,53.3c0.3,0.1,0.7,0.1,1-0.1l0.3-0.2c0.3-0.2,0.5-0.4,0.6-0.7c0.1-0.3,0.4-0.4,0.7-0.4h1
			c0.3,0,0.3,0,0,0.1l-0.8,0.1c-0.3,0-0.6,0.2-0.7,0.5c-0.1,0.3-0.3,0.5-0.6,0.7l-0.6,0.3c-0.3,0.1-0.7,0.1-0.9-0.1
			C75.3,53.3,75.4,53.2,75.6,53.3z"/>
		<path class="st1" d="M74.8,54.8l0.1,0.2c0.1,0.3,0.4,0.6,0.7,0.6h0.9c0.3,0,0.3,0,0-0.1l-0.8,0C75.4,55.5,75.1,55.2,74.8,54.8
			L74.8,54.8C74.8,54.5,74.7,54.5,74.8,54.8z"/>
		<path class="st4" d="M73.1,51.1c0.1,0.3,0.3,0.6,0.5,0.7l0.6,0.3c0.2,0.2,0.6,0.1,0.8-0.1c0.2-0.2,0.1-0.3,0-0.2
			c-0.3,0.1-0.6,0.1-0.8-0.1l-0.3-0.2c-0.3-0.2-0.5-0.4-0.6-0.7C73.1,50.8,73.1,50.9,73.1,51.1z"/>
		<path class="st0" d="M46.5,5.8l-0.4-0.9C46,4.5,46,4.1,46,3.7L46.4,2c0.1-0.4,0.3-0.7,0.6-0.9l1-0.6c0.3-0.2,0.7-0.3,1.1-0.3
			L51.3,0c0.4,0,0.7,0.1,1,0.3l1.3,0.8C54,1.3,54.3,1.6,54.4,2L55,3.3c0.1,0.4,0.1,0.8,0,1.2l-0.5,1.2C54.3,6,54,6.3,53.7,6.4
			L52.3,7c-0.3,0.1-0.7,0.2-1.1,0.2l-2.1,0.1c-0.4,0-0.7-0.1-1.1-0.2l-0.8-0.4C46.9,6.4,46.7,6.1,46.5,5.8z"/>
		<path class="st1" d="M53.7,1.2l-1.3-0.6c-0.3-0.1-0.7-0.2-1.1-0.2h-0.8c-0.4,0-0.7,0.1-1.1,0.1l-0.8,0.2c-0.4,0.1-0.7,0.2-1,0.4
			l-0.3,0.2c-0.3,0.2-0.6,0.5-0.7,0.9l-0.3,0.8c-0.1,0.3,0,0.7,0.2,1l0.2,0.3c0.2,0.3,0.5,0.2,0.6-0.1V4.1c0.1-0.3,0.3-0.3,0.3,0
			L48,5.3c0.1,0.3,0.3,0.4,0.5,0.2C48.7,5.3,49,5,49.3,4.9l0.3-0.2c0.3-0.2,0.7-0.1,0.9,0.1c0.3,0.2,0.6,0.2,0.9,0L52,4.4
			c0.2-0.2,0.4-0.4,0.5-0.7c0-0.2,0.3-0.4,0.6-0.4h0.4c0.3,0,0.7-0.1,0.9-0.1s0.3-0.3,0.2-0.6L54.4,2C54.3,1.7,54,1.4,53.7,1.2z"/>
		<path class="st2" d="M47.9,2.7L48.1,5c0,0.3,0.2,0.4,0.3,0l0.4-1c0.1-0.3,0.4-0.5,0.6-0.3c0.3,0.2,0.6,0.1,0.8-0.2l0.9-1
			c0.3-0.3,0.6-0.4,1-0.3l1.7,0.4c0.3,0.1,0.5-0.2,0.5-0.5V2c0-0.4-0.2-0.7-0.5-0.9l-1.4-0.8c-0.3-0.2-0.6-0.3-1-0.3l-2.3,0.2
			c-0.4,0-0.7,0.2-1,0.3l-1,0.6c-0.3,0.2-0.4,0.6-0.4,0.9l0,0.3c0.1,0.3,0.3,0.5,0.6,0.3h0.1C47.7,2.2,47.9,2.4,47.9,2.7z"/>
		<path class="st3" d="M54.5,5.7L55,4.4c0.1-0.3,0.1-0.4-0.1-0.1l-0.4,0.5c-0.2,0.3-0.5,0.3-0.7,0s-0.2-0.5,0-0.5s0.1-0.3,0-0.4
			s-0.2-0.2-0.1,0c0.1,0.2,0,0.3-0.1,0.4s-0.2,0.3-0.2,0.7V5c0.1,0.4-0.1,0.7-0.3,1l-0.5,0.4c-0.3,0.2-0.6,0.4-1,0.4h-0.9
			c-0.3,0-0.6-0.3-0.7-0.6L49.8,6c-0.1-0.3-0.2-0.3-0.3,0v0.2c0,0.3-0.2,0.4-0.5,0.4c-0.1,0-0.1,0-0.2,0l-0.4-0.2
			c-0.3-0.1-0.5-0.1-0.4,0.2S48,6.8,47.8,6.7l-0.2-0.1C47.3,6.3,47,6,46.8,5.7l-0.5-0.9c-0.2-0.3-0.2-0.3-0.1,0l0.4,0.9
			c0.2,0.4,0.4,0.7,0.7,0.9L47.8,7c0.3,0.2,0.6,0.4,1,0.4l2.3,0.2c0.4,0,0.7-0.1,1.1-0.3l1.6-0.9C54.1,6.2,54.3,6,54.5,5.7z"/>
		<path class="st4" d="M50.6,4.6c0.3,0.1,0.7,0.1,1-0.1l0.3-0.2c0.3-0.2,0.5-0.4,0.6-0.7c0.1-0.3,0.4-0.4,0.7-0.4h1
			c0.3,0,0.3,0,0,0.1l-0.8,0.1c-0.3,0-0.5,0.2-0.7,0.5c-0.1,0.3-0.3,0.6-0.6,0.7l-0.6,0.3c-0.3,0.1-0.7,0.1-0.9-0.1
			C50.3,4.6,50.4,4.5,50.6,4.6z"/>
		<path class="st1" d="M49.8,6.1v0.2c0.1,0.3,0.4,0.6,0.7,0.6h0.9c0.3,0,0.3,0,0-0.1l-0.8-0.1C50.3,6.7,50,6.5,49.8,6.1L49.8,6.1
			C49.8,5.7,49.7,5.8,49.8,6.1z"/>
		<path class="st4" d="M48.1,2.4c0.1,0.3,0.3,0.6,0.5,0.7l0.6,0.3c0.2,0.2,0.6,0.1,0.8-0.1c0.2-0.2,0.1-0.3,0-0.2
			c-0.3,0.1-0.6,0.1-0.8-0.1l-0.3-0.2c-0.3-0.2-0.5-0.4-0.6-0.7C48.1,2.1,48.1,2.1,48.1,2.4z"/>
		<path class="st0" d="M60.3,30.5L60.1,30C60,29.8,60,29.5,60,29.3l0.2-1c0.1-0.2,0.2-0.4,0.4-0.5l0.6-0.3c0.2-0.1,0.4-0.2,0.6-0.2
			l1.3-0.1c0.2,0,0.4,0.1,0.6,0.1l0.8,0.5c0.2,0.1,0.3,0.3,0.4,0.5l0.3,0.8c0.1,0.2,0.1,0.4,0,0.7l-0.3,0.7
			c-0.1,0.2-0.2,0.4-0.4,0.5l-0.8,0.3c-0.2,0.1-0.4,0.1-0.6,0.1h-1.2c-0.2,0-0.4-0.1-0.6-0.1L60.7,31C60.5,30.9,60.4,30.7,60.3,30.5
			z"/>
		<path class="st1" d="M64.4,27.9l-0.8-0.3c-0.2-0.1-0.4-0.1-0.6-0.1h-0.4c-0.2,0-0.4,0-0.6,0.1l-0.5,0.1c-0.2,0.1-0.4,0.1-0.6,0.3
			L60.7,28c-0.2,0.1-0.3,0.3-0.4,0.5L60.2,29c-0.1,0.2,0,0.4,0.1,0.6l0.1,0.1c0.1,0.1,0.3,0.1,0.4-0.1l0,0c0.1-0.2,0.2-0.2,0.2,0
			l0.1,0.6c0,0.2,0.2,0.3,0.3,0.1c0.1-0.2,0.3-0.3,0.5-0.4l0.2-0.1c0.2-0.1,0.4-0.1,0.5,0.1c0.2,0.1,0.4,0.1,0.5,0l0.3-0.2
			c0.1-0.1,0.2-0.2,0.3-0.4c0-0.1,0.2-0.2,0.4-0.2h0.2h0.5c0.1,0,0.2-0.2,0.1-0.4l-0.1-0.3C64.8,28.2,64.6,28,64.4,27.9z"/>
		<path class="st2" d="M61.1,28.8l0.1,1.3c0,0.2,0.1,0.2,0.2,0l0.2-0.6c0.1-0.2,0.2-0.3,0.3-0.2c0.2,0.1,0.3,0,0.5-0.1l0.5-0.6
			c0.1-0.1,0.3-0.2,0.5-0.2l1,0.2c0.2,0,0.3-0.1,0.3-0.3v0c0-0.2-0.1-0.4-0.3-0.5l-0.8-0.5c-0.2-0.1-0.4-0.2-0.6-0.1l-1.3,0.1
			c-0.2,0-0.4,0.1-0.6,0.2l-0.6,0.3c-0.2,0.1-0.2,0.3-0.2,0.5v0.1c0,0.2,0.2,0.3,0.3,0.1l0,0C61,28.5,61.1,28.5,61.1,28.8z"/>
		<path class="st3" d="M64.9,30.4l0.3-0.7c0.1-0.2,0-0.2-0.1-0.1L64.9,30c-0.1,0.1-0.3,0.2-0.4,0s-0.1-0.3,0-0.3s0.1-0.1,0-0.2
			s-0.1-0.1-0.1,0s0,0.2-0.1,0.2s-0.1,0.2-0.1,0.4l0,0c0,0.2,0,0.4-0.2,0.6l-0.3,0.2c-0.2,0.1-0.4,0.2-0.6,0.2h-0.5
			c-0.2,0-0.4-0.1-0.4-0.3v-0.1c0-0.2-0.1-0.2-0.2,0v0.1c0,0.1-0.1,0.3-0.3,0.2c0,0-0.1,0-0.1,0l-0.2-0.1c-0.2-0.1-0.3,0-0.2,0.1
			s0,0.1-0.2,0L60.9,31c-0.2-0.1-0.3-0.3-0.5-0.5L60.1,30c-0.1-0.2-0.1-0.2,0,0l0.2,0.5c0.1,0.2,0.2,0.4,0.4,0.5l0.3,0.2
			c0.2,0.1,0.4,0.2,0.6,0.2l1.3,0.1c0.2,0,0.4,0,0.6-0.1l0.9-0.5C64.7,30.8,64.8,30.6,64.9,30.4z"/>
		<path class="st4" d="M62.7,29.8c0.2,0.1,0.4,0.1,0.5,0l0.2-0.1c0.2-0.1,0.3-0.2,0.3-0.4c0.1-0.2,0.2-0.2,0.4-0.2h0.6
			c0.2,0,0.2,0,0,0l-0.4,0c-0.2,0-0.3,0.1-0.4,0.3c-0.1,0.2-0.2,0.3-0.3,0.4L63.2,30c-0.2,0.1-0.4,0.1-0.5-0.1
			C62.5,29.8,62.5,29.8,62.7,29.8z"/>
		<path class="st1" d="M62.2,30.7v0.1c0.1,0.2,0.2,0.3,0.4,0.3h0.5c0.2,0,0.2,0,0,0h-0.5c-0.2,0-0.4-0.2-0.5-0.4l0,0
			C62.2,30.5,62.1,30.5,62.2,30.7z"/>
		<path class="st4" d="M61.2,28.5c0,0.2,0.2,0.3,0.3,0.4l0.3,0.2c0.1,0.1,0.3,0.1,0.5-0.1c0.1-0.1,0.1-0.2,0-0.1
			c-0.1,0.1-0.3,0.1-0.5,0l-0.2-0.1C61.5,28.8,61.4,28.7,61.2,28.5C61.2,28.4,61.2,28.4,61.2,28.5z"/>
		<path class="st0" d="M44.8,22.9l-0.6-1.5c-0.2-0.6-0.3-1.3-0.2-1.9l0.6-2.6c0.1-0.6,0.5-1.1,1-1.4l1.6-0.9c0.5-0.3,1-0.5,1.6-0.5
			l3.3-0.3c0.6,0,1.1,0.1,1.6,0.4l2,1.3c0.5,0.4,0.9,0.8,1.1,1.4l0.9,2.1c0.2,0.6,0.2,1.2,0,1.8l-0.8,1.9c-0.2,0.5-0.7,1-1.2,1.3
			l-2.1,0.9c-0.5,0.2-1.1,0.3-1.7,0.4l-3.2,0.1c-0.6,0-1.1-0.1-1.6-0.4l-1.3-0.7C45.4,24,45,23.5,44.8,22.9z"/>
		<path class="st1" d="M55.7,15.6l-2-0.9c-0.5-0.2-1.1-0.3-1.7-0.3h-1.2c-0.6,0-1.1,0.1-1.7,0.2l-1.2,0.3c-0.6,0.2-1.1,0.4-1.6,0.7
			l-0.4,0.3c-0.5,0.4-0.8,0.9-1,1.4l-0.4,1.3c-0.2,0.6,0,1.2,0.3,1.6l0.3,0.4c0.3,0.4,0.8,0.3,1-0.2v-0.1c0.2-0.5,0.4-0.5,0.5,0.1
			l0.3,1.8c0.1,0.5,0.4,0.7,0.7,0.3c0.4-0.4,0.8-0.8,1.3-1.1l0.5-0.3c0.5-0.3,1.1-0.2,1.5,0.1c0.4,0.3,0.9,0.4,1.3,0.1l0.8-0.6
			c0.4-0.3,0.7-0.6,0.8-1.1c0-0.3,0.5-0.6,0.9-0.6l0.5-0.1c0.4-0.1,0.9-0.1,1.3-0.1c0.3,0,0.4-0.4,0.3-1L56.7,17
			C56.6,16.4,56.2,15.9,55.7,15.6z"/>
		<path class="st2" d="M46.9,18.1l0.3,3.6c0,0.6,0.2,0.6,0.4,0.1l0.6-1.6c0.2-0.5,0.6-0.7,0.9-0.5c0.4,0.2,0.9,0.1,1.2-0.3l1.4-1.6
			c0.4-0.4,0.9-0.6,1.4-0.5l2.5,0.7c0.5,0.1,0.8-0.3,0.8-0.8V17c0-0.6-0.3-1.1-0.8-1.5l-2-1.3c-0.5-0.3-1-0.4-1.6-0.4L48.8,14
			c-0.6,0.1-1.1,0.2-1.6,0.5l-1.6,0.9c-0.5,0.3-0.7,0.9-0.6,1.5l0.1,0.4c0.1,0.5,0.5,0.7,0.9,0.4l0.1-0.1
			C46.5,17.3,46.9,17.5,46.9,18.1z"/>
		<path class="st3" d="M56.9,22.7l0.8-1.9c0.2-0.5,0.1-0.6-0.2-0.2l-0.6,0.7c-0.3,0.4-0.8,0.5-1,0.1s-0.3-0.7,0-0.8s0.2-0.4,0-0.7
			s-0.3-0.3-0.2,0s0,0.5-0.2,0.6s-0.3,0.5-0.3,1.1v0.1c0.1,0.6-0.1,1.2-0.5,1.6L54,24c-0.4,0.3-1,0.6-1.5,0.6l-1.5,0
			c-0.5,0-1-0.4-1.1-0.9l-0.1-0.4c-0.1-0.5-0.3-0.5-0.5,0l-0.1,0.4c-0.1,0.5-0.6,0.8-1,0.6L47.7,24c-0.4-0.2-0.7-0.1-0.6,0.2
			s-0.1,0.4-0.5,0.1l-0.2-0.2c-0.5-0.4-0.9-0.8-1.2-1.3l-0.8-1.5C44.1,21,44,21,44.2,21.5l0.6,1.5c0.2,0.6,0.6,1.1,1.1,1.5l0.8,0.6
			c0.5,0.3,1,0.6,1.5,0.6l3.6,0.3c0.6,0,1.1-0.1,1.6-0.4l2.4-1.5C56.3,23.8,56.7,23.3,56.9,22.7z"/>
		<path class="st4" d="M51,21c0.5,0.2,1,0.1,1.5-0.1l0.5-0.3c0.4-0.3,0.7-0.7,0.9-1.1c0.2-0.4,0.6-0.7,1-0.6h1.5
			c0.5,0,0.5,0.1,0,0.1L55.2,19c-0.5,0-0.9,0.3-1,0.8c-0.2,0.5-0.5,0.9-0.9,1.1l-0.9,0.5c-0.4,0.2-1,0.2-1.4-0.1
			C50.6,21,50.6,20.9,51,21z"/>
		<path class="st1" d="M49.8,23.4l0.1,0.3c0.1,0.5,0.6,0.9,1.1,0.9l1.4-0.1c0.5,0,0.5-0.1,0-0.1l-1.3-0.1c-0.6-0.1-1-0.5-1.2-1v-0.1
			C49.7,22.9,49.6,22.9,49.8,23.4z"/>
		<path class="st4" d="M47.2,17.5c0.1,0.5,0.4,0.9,0.8,1.2l0.9,0.5c0.4,0.3,0.9,0.2,1.2-0.2c0.2-0.4,0.2-0.5-0.1-0.3
			c-0.4,0.2-0.9,0.2-1.3-0.1l-0.4-0.3c-0.4-0.2-0.8-0.6-1-1C47.3,17,47.2,17.1,47.2,17.5z"/>
		<path class="st4" d="M70.1,41.9c0.8,0.3,1.8,0.2,2.5-0.2l0.8-0.5c0.7-0.5,1.3-1.2,1.6-2c0.3-0.7,1-1.2,1.7-1.1h2.6
			c0.8,0,0.8,0.1,0,0.2l-2,0.2c-0.8,0.1-1.5,0.6-1.7,1.3c-0.3,0.8-0.8,1.5-1.6,1.9l-1.6,0.9c-0.8,0.4-1.8,0.3-2.4-0.3
			C69.4,41.8,69.5,41.6,70.1,41.9z"/>
		<path class="st1" d="M68,46l0.2,0.5c0.2,0.9,1,1.5,1.9,1.6l2.5-0.1c0.8,0,0.8-0.1,0-0.2l-2.2-0.2c-0.9-0.2-1.7-0.8-2.1-1.7
			l-0.1-0.1C67.8,45,67.8,45.1,68,46z"/>
		<path class="st4" d="M68.5,38.4c0.4-0.6,0.3-0.8-0.1-0.4c-0.7,0.4-1.5,0.3-2.2-0.2"/>
		<path class="st0" d="M48.5,33.8l-0.4-0.9C48,32.5,48,32.1,48,31.7l0.4-1.7c0.1-0.4,0.3-0.7,0.6-0.9l1-0.6c0.3-0.2,0.7-0.3,1-0.3
			l2.2-0.2c0.4,0,0.7,0.1,1,0.3l1.3,0.8c0.3,0.2,0.6,0.5,0.7,0.9l0.6,1.3c0.1,0.4,0.1,0.8,0,1.1l-0.5,1.2c-0.2,0.3-0.4,0.6-0.8,0.8
			L54.3,35c-0.3,0.1-0.7,0.2-1.1,0.2l-2.1,0.1c-0.4,0-0.7-0.1-1.1-0.2l-0.8-0.4C48.9,34.4,48.7,34.1,48.5,33.8z"/>
		<path class="st1" d="M55.7,29.2l-1.3-0.6c-0.3-0.1-0.7-0.2-1.1-0.2h-0.8c-0.4,0-0.7,0.1-1.1,0.1l-0.8,0.2c-0.4,0.1-0.7,0.2-1,0.4
			l-0.3,0.2c-0.3,0.2-0.6,0.5-0.7,0.9l-0.3,0.8c-0.1,0.3,0,0.7,0.2,1l0.2,0.3c0.2,0.3,0.5,0.2,0.6-0.1l0,0c0.1-0.3,0.3-0.3,0.3,0
			l0.2,1.1c0.1,0.3,0.3,0.4,0.5,0.2c0.3-0.3,0.5-0.5,0.9-0.7l0.3-0.2c0.3-0.2,0.7-0.1,0.9,0.1c0.3,0.2,0.6,0.2,0.9,0l0.5-0.4
			c0.2-0.2,0.4-0.4,0.5-0.7c0-0.2,0.3-0.4,0.6-0.4h0.4c0.3,0,0.7-0.1,0.9-0.1s0.3-0.3,0.2-0.6L56.4,30C56.3,29.7,56,29.4,55.7,29.2z
			"/>
		<path class="st2" d="M49.9,30.7l0.2,2.3c0,0.3,0.2,0.4,0.3,0l0.4-1c0.1-0.3,0.4-0.5,0.6-0.3c0.3,0.2,0.6,0.1,0.8-0.2l0.9-1
			c0.3-0.3,0.6-0.4,1-0.3l1.7,0.4c0.3,0.1,0.5-0.1,0.5-0.5v-0.1c0-0.4-0.2-0.7-0.5-0.9l-1.3-0.8c-0.3-0.2-0.6-0.3-1-0.3l-2.2,0.2
			c-0.4,0-0.7,0.2-1,0.3l-1,0.6c-0.3,0.2-0.4,0.6-0.4,0.9l0,0.3c0.1,0.3,0.3,0.5,0.6,0.3l0.1,0C49.7,30.2,49.9,30.4,49.9,30.7z"/>
		<path class="st3" d="M56.5,33.7l0.5-1.2c0.1-0.3,0.1-0.4-0.1-0.1l-0.4,0.5c-0.2,0.3-0.5,0.3-0.7,0s-0.2-0.5,0-0.5s0.1-0.3,0-0.4
			s-0.2-0.2-0.1,0c0.1,0.2,0,0.3-0.1,0.4s-0.2,0.3-0.2,0.7V33c0.1,0.4-0.1,0.7-0.3,1l-0.5,0.4c-0.3,0.2-0.6,0.4-1,0.4h-0.9
			c-0.3,0-0.6-0.3-0.7-0.6L51.8,34c-0.1-0.3-0.2-0.3-0.3,0v0.2c0,0.3-0.2,0.4-0.5,0.4c-0.1,0-0.1,0-0.2,0l-0.4-0.2
			c-0.3-0.1-0.5-0.1-0.4,0.2s-0.1,0.3-0.3,0.1l-0.2-0.1c-0.3-0.2-0.6-0.5-0.8-0.8l-0.5-0.9c-0.2-0.3-0.2-0.3-0.1,0l0.4,0.9
			c0.2,0.4,0.4,0.7,0.7,0.9l0.5,0.4c0.3,0.2,0.6,0.4,1,0.4l2.3,0.2c0.4,0,0.7-0.1,1.1-0.3l1.6-0.9C56.1,34.2,56.3,34,56.5,33.7z"/>
		<path class="st4" d="M52.6,32.6c0.3,0.1,0.7,0.1,1-0.1l0.3-0.2c0.3-0.2,0.5-0.4,0.6-0.7c0.1-0.3,0.4-0.4,0.7-0.4h1
			c0.3,0,0.3,0,0,0.1l-0.8,0.1c-0.3,0-0.5,0.2-0.7,0.5c-0.1,0.3-0.3,0.6-0.6,0.7l-0.6,0.3c-0.3,0.1-0.7,0.1-0.9-0.1
			C52.3,32.6,52.4,32.5,52.6,32.6z"/>
		<path class="st1" d="M51.8,34.1v0.2c0.1,0.3,0.4,0.6,0.7,0.6h0.9c0.3,0,0.3,0,0-0.1l-0.8-0.1C52.3,34.7,52,34.5,51.8,34.1
			L51.8,34.1C51.8,33.7,51.7,33.8,51.8,34.1z"/>
		<path class="st4" d="M50.1,30.4c0.1,0.3,0.3,0.6,0.5,0.7l0.6,0.4c0.2,0.2,0.6,0.1,0.8-0.1c0.2-0.2,0.1-0.3,0-0.2
			c-0.3,0.1-0.6,0.1-0.8-0.1l-0.3-0.2c-0.3-0.2-0.5-0.4-0.6-0.7C50.1,30.1,50.1,30.1,50.1,30.4z"/>
		<path class="st0" d="M62.3,58.5L62.1,58C62,57.8,62,57.5,62,57.3l0.2-1c0.1-0.2,0.2-0.4,0.4-0.5l0.6-0.3c0.2-0.1,0.4-0.2,0.6-0.2
			l1.3-0.1c0.2,0,0.4,0.1,0.6,0.2l0.8,0.5c0.2,0.1,0.3,0.3,0.4,0.5l0.3,0.8c0.1,0.2,0.1,0.4,0,0.7l-0.3,0.7
			c-0.1,0.2-0.2,0.4-0.4,0.5l-0.8,0.3c-0.2,0.1-0.4,0.1-0.6,0.1h-1.2c-0.2,0-0.4-0.1-0.6-0.1L62.7,59C62.5,58.9,62.4,58.7,62.3,58.5
			z"/>
		<path class="st1" d="M66.4,55.9l-0.8-0.3c-0.2-0.1-0.4-0.1-0.6-0.1h-0.4c-0.2,0-0.4,0-0.6,0.1l-0.5,0.1c-0.2,0.1-0.4,0.1-0.6,0.3
			l-0.2,0.1c-0.2,0.1-0.3,0.3-0.4,0.5l-0.2,0.5c-0.1,0.2,0,0.4,0.1,0.6l0.1,0.2c0.1,0.1,0.3,0.1,0.4-0.1l0,0c0.1-0.2,0.2-0.2,0.2,0
			l0.1,0.7c0,0.2,0.2,0.3,0.3,0.1c0.1-0.2,0.3-0.3,0.5-0.4l0.2-0.1c0.2-0.1,0.4-0.1,0.5,0.1c0.2,0.1,0.4,0.1,0.5,0l0.3-0.2
			c0.1-0.1,0.2-0.2,0.3-0.4c0-0.1,0.2-0.2,0.4-0.2h0.2h0.5c0.1,0,0.2-0.2,0.1-0.4l-0.1-0.3C66.8,56.2,66.6,56,66.4,55.9z"/>
		<path class="st2" d="M63.1,56.8l0.1,1.3c0,0.2,0.1,0.2,0.2,0l0.2-0.6c0.1-0.2,0.2-0.3,0.3-0.2c0.2,0.1,0.3,0,0.5-0.1l0.5-0.6
			c0.1-0.1,0.3-0.2,0.6-0.2l1,0.2c0.2,0,0.3-0.1,0.3-0.3l0,0c0-0.2-0.1-0.4-0.3-0.5l-0.8-0.5c-0.2-0.1-0.4-0.2-0.6-0.2l-1.3,0.1
			c-0.2,0-0.4,0.1-0.6,0.2l-0.6,0.3c-0.2,0.1-0.2,0.3-0.2,0.5v0.2c0,0.2,0.2,0.3,0.3,0.1l0,0C63,56.5,63.1,56.5,63.1,56.8z"/>
		<path class="st3" d="M66.9,58.4l0.3-0.7c0.1-0.2,0-0.2-0.1-0.1l-0.2,0.3c-0.1,0.2-0.3,0.2-0.4,0s-0.1-0.3,0-0.3s0.1-0.2,0-0.2
			s-0.1-0.1-0.1,0s0,0.2-0.1,0.2s-0.1,0.2-0.1,0.4l0,0c0,0.2,0,0.4-0.2,0.6l-0.3,0.2c-0.2,0.1-0.4,0.2-0.6,0.2h-0.5
			c-0.2,0-0.4-0.1-0.4-0.3v-0.2c0-0.2-0.1-0.2-0.2,0v0.1c0,0.1-0.1,0.3-0.3,0.2c0,0-0.1,0-0.1,0l-0.2-0.1c-0.2-0.1-0.3,0-0.2,0.1
			s0,0.2-0.2,0L62.9,59c-0.2-0.1-0.3-0.3-0.5-0.5L62.1,58c-0.1-0.2-0.1-0.2,0,0l0.2,0.5c0.1,0.2,0.2,0.4,0.4,0.5l0.3,0.2
			c0.2,0.1,0.4,0.2,0.6,0.2l1.4,0.1c0.2,0,0.4,0,0.6-0.1l0.9-0.5C66.7,58.8,66.8,58.6,66.9,58.4z"/>
		<path class="st4" d="M64.7,57.8c0.2,0.1,0.4,0.1,0.6,0l0.2-0.1c0.2-0.1,0.3-0.2,0.3-0.4c0.1-0.2,0.2-0.2,0.4-0.2h0.6
			c0.2,0,0.2,0,0,0l-0.4,0c-0.2,0-0.3,0.1-0.4,0.3c-0.1,0.2-0.2,0.3-0.3,0.4L65.2,58C65,58.1,64.8,58,64.7,57.8
			C64.5,57.8,64.5,57.8,64.7,57.8z"/>
		<path class="st1" d="M64.2,58.7v0.1c0.1,0.2,0.2,0.3,0.4,0.3h0.5c0.2,0,0.2,0,0,0h-0.5c-0.2,0-0.4-0.2-0.5-0.3l0,0
			C64.2,58.5,64.1,58.5,64.2,58.7z"/>
		<path class="st4" d="M63.2,56.5c0,0.2,0.2,0.3,0.3,0.4l0.3,0.2c0.1,0.1,0.3,0.1,0.4-0.1c0.1-0.1,0.1-0.2,0-0.1
			c-0.1,0.1-0.3,0.1-0.5,0l-0.2-0.1C63.5,56.8,63.4,56.7,63.2,56.5C63.2,56.4,63.2,56.4,63.2,56.5z"/>
		<path class="st0" d="M46.8,50.9l-0.6-1.5c-0.2-0.6-0.3-1.3-0.2-1.9l0.6-2.7c0.1-0.6,0.5-1.1,1-1.4l1.6-0.9c0.5-0.3,1-0.5,1.6-0.5
			l3.3-0.3c0.6,0,1.1,0.1,1.6,0.4l2,1.3c0.5,0.4,0.9,0.8,1.1,1.4l0.9,2.1c0.2,0.6,0.2,1.2,0,1.8l-0.8,1.9c-0.2,0.5-0.7,1-1.2,1.3
			l-2.1,0.9c-0.5,0.2-1.1,0.3-1.7,0.4l-3.2,0.1c-0.6,0-1.1-0.1-1.6-0.4l-1.3-0.7C47.4,52,47,51.5,46.8,50.9z"/>
		<path class="st1" d="M57.7,43.7l-2-0.9c-0.5-0.2-1.1-0.3-1.7-0.4h-1.2c-0.6,0-1.1,0.1-1.7,0.2l-1.2,0.3c-0.6,0.2-1.1,0.4-1.6,0.7
			l-0.4,0.3c-0.5,0.4-0.8,0.9-1,1.4l-0.4,1.3c-0.2,0.6,0,1.2,0.3,1.7l0.3,0.4c0.3,0.4,0.8,0.3,1-0.2v-0.1c0.2-0.5,0.4-0.5,0.5,0.1
			l0.3,1.8c0.1,0.5,0.4,0.7,0.7,0.3c0.4-0.4,0.8-0.8,1.3-1.1l0.5-0.3c0.5-0.3,1.1-0.2,1.5,0.2c0.4,0.3,0.9,0.4,1.3,0.1l0.8-0.6
			c0.4-0.3,0.7-0.6,0.8-1.1c0-0.3,0.5-0.6,0.9-0.6l0.5-0.1c0.4-0.1,0.9-0.1,1.3-0.1c0.3,0,0.4-0.4,0.3-1L58.7,45
			C58.6,44.4,58.2,43.9,57.7,43.7z"/>
		<path class="st2" d="M48.9,46.1l0.3,3.6c0,0.6,0.2,0.6,0.4,0.1l0.6-1.6c0.2-0.5,0.6-0.7,0.9-0.5c0.4,0.2,0.9,0.1,1.2-0.3l1.4-1.6
			c0.4-0.4,0.9-0.6,1.4-0.5l2.5,0.7c0.5,0.1,0.8-0.3,0.8-0.8V45c0-0.6-0.3-1.1-0.8-1.5l-2-1.3c-0.5-0.3-1-0.4-1.6-0.4L50.8,42
			c-0.6,0.1-1.1,0.2-1.6,0.5l-1.6,0.9c-0.5,0.3-0.7,0.9-0.6,1.5l0.1,0.4c0.1,0.5,0.5,0.7,0.9,0.4l0.1-0.1
			C48.5,45.3,48.9,45.5,48.9,46.1z"/>
		<path class="st3" d="M58.9,50.7l0.8-1.9c0.2-0.5,0.1-0.6-0.2-0.2l-0.6,0.7c-0.3,0.4-0.8,0.5-1,0.1s-0.3-0.7,0-0.8s0.2-0.4,0-0.7
			s-0.3-0.3-0.2,0s0,0.5-0.2,0.6s-0.3,0.5-0.3,1.1v0.1c0.1,0.6-0.1,1.2-0.5,1.6L56,52c-0.4,0.3-1,0.6-1.5,0.6l-1.5,0
			c-0.5,0-1-0.4-1.1-0.9l-0.1-0.4c-0.1-0.5-0.3-0.5-0.5,0l-0.1,0.4c-0.1,0.5-0.6,0.8-1,0.6L49.7,52c-0.4-0.2-0.7-0.1-0.6,0.2
			s-0.1,0.4-0.5,0.1l-0.2-0.2c-0.5-0.4-0.9-0.8-1.2-1.3l-0.8-1.5C46.1,49,46,49,46.2,49.5l0.6,1.5c0.2,0.6,0.6,1.1,1.1,1.5l0.8,0.6
			c0.5,0.3,1,0.6,1.5,0.6l3.6,0.3c0.6,0,1.1-0.1,1.6-0.4l2.4-1.5C58.3,51.8,58.7,51.3,58.9,50.7z"/>
		<path class="st4" d="M53,49c0.5,0.2,1,0.1,1.5-0.1l0.5-0.3c0.4-0.3,0.7-0.7,0.9-1.1c0.2-0.4,0.6-0.7,1-0.7h1.5
			c0.5,0,0.5,0.1,0,0.1L57.2,47c-0.5,0-0.9,0.3-1,0.8c-0.2,0.5-0.5,0.9-0.9,1.1l-0.9,0.5c-0.4,0.2-1,0.2-1.4-0.1
			C52.6,49,52.6,48.8,53,49z"/>
		<path class="st1" d="M51.8,51.4l0.1,0.3c0.1,0.5,0.6,0.9,1.1,0.9l1.4-0.1c0.5,0,0.5-0.1,0-0.1l-1.3-0.1c-0.6-0.1-1-0.5-1.2-1v-0.1
			C51.7,50.9,51.6,50.9,51.8,51.4z"/>
		<path class="st4" d="M49.2,45.5c0.1,0.5,0.4,0.9,0.8,1.2l0.9,0.5c0.4,0.3,0.9,0.2,1.2-0.2c0.2-0.3,0.2-0.5-0.1-0.3
			c-0.4,0.2-0.9,0.2-1.3-0.1l-0.4-0.3c-0.4-0.2-0.8-0.6-1-1C49.3,45,49.2,45.1,49.2,45.5z"/>
	</g>
</g>
</svg>
