<?xml version="1.0" encoding="utf-8"?>
<!-- Generator: Adobe Illustrator 23.0.3, SVG Export Plug-In . SVG Version: 6.00 Build 0)  -->
<svg version="1.1" id="Layer_1" xmlns="http://www.w3.org/2000/svg" xmlns:xlink="http://www.w3.org/1999/xlink" x="0px" y="0px"
	 viewBox="0 0 255.3 224.3" style="enable-background:new 0 0 255.3 224.3;" xml:space="preserve">
<style type="text/css">
	.st0{opacity:0.7;fill:url(#SVGID_1_);enable-background:new    ;}
	.st1{opacity:0.7;fill:url(#SVGID_2_);enable-background:new    ;}
	.st2{opacity:0.7;fill:url(#SVGID_3_);enable-background:new    ;}
	.st3{opacity:0.7;fill:url(#SVGID_4_);enable-background:new    ;}
	.st4{fill:#2B2C2F;}
	.st5{opacity:0.6;fill:#0B0C0B;enable-background:new    ;}
	.st6{fill:#343539;}
	.st7{fill:#0F1319;}
	.st8{fill:#41413E;}
	.st9{opacity:0.4;fill:#41413E;enable-background:new    ;}
	.st10{fill:#2E2E2B;}
	.st11{fill:#646361;}
	.st12{fill:#363633;}
	.st13{opacity:0.4;fill:#2B2C2F;enable-background:new    ;}
	.st14{opacity:0.7;enable-background:new    ;}
	.st15{fill:#151A1F;}
	.st16{opacity:0.4;fill:#313B47;enable-background:new    ;}
	.st17{opacity:0.7;fill:#2B2C2F;enable-background:new    ;}
	.st18{fill:#B26D0D;}
	.st19{fill:#5F240D;}
	.st20{fill:#160000;}
	.st21{fill:#FFFFFF;}
	.st22{fill:#B7B6B6;}
	.st23{fill:#777163;}
	.st24{opacity:0.4;fill:#777163;enable-background:new    ;}
	.st25{fill:#615D51;}
	.st26{fill:url(#SVGID_5_);}
	.st27{fill:#1D1D1B;}
	.st28{opacity:0.9;}
	.st29{opacity:0.6;fill:#343539;enable-background:new    ;}
	.st30{opacity:0.5;fill:#343539;enable-background:new    ;}
	.st31{fill:#999998;}
	.st32{fill:#727272;}
	.st33{fill:#8F8F8F;}
	.st34{fill:#ADADAD;}
	.st35{fill:#5B5B5B;}
	.st36{fill:#EDEDED;}
</style>
<title>Asset 3</title>
<g>
	<g>
		<g id="Layer_1-2">
			
				<linearGradient id="SVGID_1_" gradientUnits="userSpaceOnUse" x1="-714.4" y1="-548.5599" x2="-714.4" y2="-548.5599" gradientTransform="matrix(-1 0 0 -1 -464.6 -386.66)">
				<stop  offset="0.25" style="stop-color:#FFFFFF"/>
				<stop  offset="0.42" style="stop-color:#ED9658"/>
				<stop  offset="0.65" style="stop-color:#8A462C"/>
				<stop  offset="0.89" style="stop-color:#4C2600"/>
			</linearGradient>
			<path class="st0" d="M249.8,161.9C249.8,161.8,249.8,161.8,249.8,161.9z"/>
			
				<linearGradient id="SVGID_2_" gradientUnits="userSpaceOnUse" x1="-714.05" y1="-497.96" x2="-714.05" y2="-539.58" gradientTransform="matrix(-1 0 0 -1 -464.6 -386.66)">
				<stop  offset="0.25" style="stop-color:#FFFFFF"/>
				<stop  offset="0.42" style="stop-color:#ED9658"/>
				<stop  offset="0.65" style="stop-color:#8A462C"/>
				<stop  offset="0.89" style="stop-color:#4C2600"/>
			</linearGradient>
			<path class="st1" d="M249.4,163c0-0.1,0.1-0.3,0.1-0.4C249.5,162.8,249.5,162.9,249.4,163z"/>
			
				<linearGradient id="SVGID_3_" gradientUnits="userSpaceOnUse" x1="-714.2" y1="-497.96" x2="-714.2" y2="-539.58" gradientTransform="matrix(-1 0 0 -1 -464.6 -386.66)">
				<stop  offset="0.25" style="stop-color:#FFFFFF"/>
				<stop  offset="0.42" style="stop-color:#ED9658"/>
				<stop  offset="0.65" style="stop-color:#8A462C"/>
				<stop  offset="0.89" style="stop-color:#4C2600"/>
			</linearGradient>
			<path class="st2" d="M249.6,162.4v-0.1V162.4z"/>
			
				<linearGradient id="SVGID_4_" gradientUnits="userSpaceOnUse" x1="-714.35" y1="-497.48" x2="-714.35" y2="-539.5" gradientTransform="matrix(-1 0 0 -1 -464.6 -386.66)">
				<stop  offset="0.25" style="stop-color:#FFFFFF"/>
				<stop  offset="0.42" style="stop-color:#ED9658"/>
				<stop  offset="0.65" style="stop-color:#8A462C"/>
				<stop  offset="0.89" style="stop-color:#4C2600"/>
			</linearGradient>
			<path class="st3" d="M249.7,162.1c0-0.1,0.1-0.1,0.1-0.2C249.8,162,249.7,162.1,249.7,162.1z"/>
			<path class="st4" d="M255.3,178.2c-0.9-2.9-3.5-5.5-5.3-7.9c-2.8-3.7-5.4-7.5-8-11.3c-4.5-6.6-9.4-13.1-14.6-19.3
				c-10.4-12.3-21.8-24.7-35.3-33.8c-6-4.1-11.6-7.6-18.7-9.6c-7.3-2.1-14.2-4.3-21.8-5.1c-3.5-0.3-7.1-0.1-10.6,0.6
				c-2.1,0.4-4.7,1.3-6.1,3c-2.9,3.8-1.9,8.2-0.1,12.3c-0.3-0.5-0.6-0.9-0.9-1.4h-0.1c3.8,6.5,5.7,14,9.2,20.7s8,13.3,13.7,18.1
				c1.2,1,3.4,2.8,5,2.1c0.2-0.1,0.3-0.2,0.4-0.4c1.7,2.2,3.7,4.3,5.8,6.2c3.3,2.9,6.9,5.5,10.7,7.8c2.2,1.3,6,4.3,8.7,3.9
				c0.3-0.1,0.5-0.4,0.4-0.7l0,0c-0.8-1.7-1.9-3.4-3.2-4.8c3.8,3.1,7.8,5.8,12,8.3c5.7,3.1,11.6,5.6,17.8,7.4c2.8,0.8,5.6,1.5,8.4,2
				c1.7,0.3,3.8,1.3,5.5,0.6c0.1-0.1,0.2-0.2,0.2-0.3c-0.4-1.9-3.3-3.3-4.8-4.4c-2.9-2.3-5.8-4.7-8.6-7.1c-1-0.9-1.9-1.7-2.9-2.6
				c2.2,1.8,4.4,3.5,6.8,5.2c4.6,3.3,9.3,6.3,14.3,9c2.6,1.4,5.2,2.5,8,3.5c1.5,0.6,3.3,1.6,5,1.1c0.2-0.1,0.3-0.2,0.3-0.4
				c0.1-1-0.7-1.7-1.4-2.4c-1.7-1.7-3.3-3.4-4.8-5.1c-3.6-3.9-7.4-7.4-11-11.4l-1.4-1.5c2.8,2.4,5.6,4.7,8.4,7
				c3.4,2.8,7,5.5,10.6,8.1c1.6,1.2,5.8,4.8,7.9,3.6C255.2,178.9,255.4,178.5,255.3,178.2z"/>
			<path class="st5" d="M245.1,178.4c-1.7-1.7-3.3-3.4-4.8-5.1c-2.2-2.4-4.5-4.7-6.8-7c-1.1-1-2.2-2-3.3-3c-4.5-4.2-9-8.7-11.6-14.4
				c-0.2-0.4,14.7,9.8,20.7,15.6c4.8,4.7,9.5,9.6,13.9,14.7c0.5,0.1,1.1,0.1,1.6-0.2c0.4-0.2,0.6-0.6,0.5-1
				c-0.9-2.9-3.5-5.5-5.3-7.9c-2.8-3.7-5.4-7.5-8-11.3c-4.5-6.6-9.4-13.1-14.6-19.3c-10.4-12.3-21.8-24.7-35.3-33.7
				c-6-4.1-11.6-7.6-18.7-9.6c-7.3-2.1-14.2-4.3-21.8-5.1c-3.5-0.3-7.1-0.1-10.6,0.6c-2.1,0.4-4.7,1.3-6.1,3
				c-2.9,3.8-1.9,8.2-0.1,12.3c-0.3-0.5-0.6-0.9-0.9-1.4h-0.1c3.8,6.5,5.7,14,9.2,20.7s8,13.3,13.7,18.1c1.2,1,3.4,2.8,5,2.1
				c0.2-0.1,0.3-0.2,0.4-0.4c1.2,1.6,2.6,3.1,4,4.5c0.1-0.1,0.3-0.2,0.5-0.3c4.3-0.6,8.5,2,11.8,4.4c3.2,2.3,6.2,4.9,8.9,7.7
				c-0.8-1.4-1.7-2.8-2.8-4c3.3,2.7,6.8,5.2,10.4,7.4c-5-4.4-9-9.8-11.8-15.9c-0.2-0.4,13.2,10.9,20.3,15.5
				c-3.7-4.4-6.9-9.1-9.6-14.1c-0.3-0.5,21.3,18.9,33.7,25.6c0.2,0,0.4-0.1,0.6-0.2c0.1-0.1,0.2-0.2,0.2-0.3
				c-0.4-1.9-3.3-3.3-4.8-4.4c-0.7-0.6-1.4-1.1-2-1.7c-7.4-5-14.3-10.9-17.3-19.1c-0.1-0.4,16.2,9.2,23,15.4
				c5.2,4.7,10.2,9.6,15.6,14c1,0.5,2.2,0.7,3.3,0.4c0.2-0.1,0.3-0.2,0.3-0.4C246.6,179.8,245.8,179.1,245.1,178.4z"/>
			<path class="st5" d="M255.3,178.2c-0.9-2.9-3.5-5.5-5.3-7.9c-2.8-3.7-5.4-7.5-8-11.3c-4.5-6.6-9.4-13.1-14.6-19.3
				c-10.4-12.3-21.8-24.7-35.3-33.8c-6-4.1-11.6-7.6-18.7-9.6c-7.3-2.1-14.2-4.3-21.8-5.1c-3.5-0.3-7.1-0.1-10.6,0.6
				c-2.1,0.4-4.7,1.3-6.1,3c-2.9,3.8-1.9,8.2-0.1,12.3c-0.3-0.5-0.6-0.9-0.9-1.4h-0.1c3.8,6.5,5.7,14,9.2,20.7s8,13.3,13.7,18.1
				c1.2,1,3.4,2.8,5,2.1c0.2-0.1,0.3-0.2,0.4-0.4c1.2,1.6,2.6,3.1,4,4.5c0.1-0.1,0.3-0.2,0.5-0.3c3.1-0.4,6.1,0.8,8.8,2.4
				c-0.3-1.2-0.6-2.4-0.7-3.6c0-0.2,0.2-0.5,0.4-0.6c0.2-0.3,0.6-0.5,0.8-0.2c4.6,5.4,9.6,10.4,15,14.9l0.5,0.3
				c-0.9-0.8-1.8-1.6-2.7-2.4c-2.7-2.4-4.8-5.3-6.4-8.5c-1.3-3-1.2-5.3-1.2-8.4c0-0.4,0.6-0.9,1-0.6c4.4,4.3,8,9.4,12.1,13.9
				c-3.6-4.8-5.8-10.3-6.6-16.2c0-0.4,0.7-0.9,1-0.6c6.7,6.6,11.8,14.6,18.8,20.9c6.1,5.4,13.1,11.4,20.7,14.8c0-0.1,0-0.1,0-0.2
				c-0.4-1.9-3.3-3.3-4.8-4.4c-0.7-0.6-1.4-1.1-2-1.7c-5.1-3.4-9.8-7.2-13.3-11.9c-5.4-5.5-8.7-12-12.6-18.6
				c-0.2-0.4,0.4-1.2,0.9-0.9c17.7,12.6,33.5,27.5,49.9,41.7l0,0c0,0,0,0,0-0.1c0.1-1-0.7-1.7-1.4-2.4c-1.7-1.7-3.3-3.4-4.8-5.1
				c-2.2-2.4-4.5-4.7-6.8-7c-1.1-1-2.2-2-3.3-3c-1.6-1.5-3.2-3.1-4.8-4.7c-5.6-5-10.9-10.5-13.8-17.4c-0.1-0.4,0.4-0.9,0.8-0.8
				c4.2,1.1,7.7,4.3,11.1,7.1c4.8,4,9.7,8.1,14.1,12.5c4.3,4.1,8.3,8.5,12.1,13c1.8,2,3.3,4.1,4.6,6.4c0.2,0,0.3-0.1,0.5-0.2
				C255.1,179,255.4,178.6,255.3,178.2z"/>
			<path class="st6" d="M245.2,172.6c-7.6-6.3-15.5-12.4-22.4-19.4c-0.1-0.1-0.2,0.1-0.1,0.1c6.2,7.7,14.2,14,22.2,19.6
				C245.1,173,245.4,172.7,245.2,172.6z"/>
			<path class="st6" d="M235.4,176.4c-9.9-6.3-19.2-13.5-27.9-21.4c-0.1-0.1-0.2,0.1-0.1,0.1c7.7,9,17.1,16.4,27.8,21.6
				C235.3,176.9,235.5,176.5,235.4,176.4z"/>
			<path class="st6" d="M219.2,174c-11.1-4.9-23.7-9.1-31.8-18.7c-0.1-0.1-0.2,0.1-0.1,0.1c7.1,10.7,19.8,15.8,31.6,19.1
				C219.2,174.6,219.5,174.2,219.2,174z"/>
			<path class="st7" d="M133.3,195.4c0.2-1.1,0.1-2.2-0.2-3.2c-0.5-1.2-1.3-2.2-2.4-2.8c-1.6-0.7-3.5-0.6-5,0.3
				c-0.9,0.2-1.4,1.1-1.1,2c0.1,0.3,0.3,0.6,0.5,0.8C128.1,191.4,132.3,192.4,133.3,195.4z"/>
			<path class="st8" d="M125.9,187.8c-1.8-0.7-3.9-0.2-5.7-0.4c-1.1-0.1-2.1-0.3-3.2-0.5c-1.7-0.4-2.8-1.9-2.6-3.6
				c0.8-1.7,1.9-3.4,2.4-4.7c1.2-3.4,2.5-6.9,3.7-10.3c1.2-3,2-6.1,2.4-9.3c0.2-1.7,0.2-3.3-0.1-5c0.4-1.6,0.7-3.4-0.3-4.6
				c-1.2-1.5-4-0.1-5.2,0.6c-1.3,0.8-3.2,2.9-3.1,4.6c0.1,1,0.3,2,0.6,3c1.5,9-3.2,17.4-7.3,25.4v-0.1l0,0c0,0.1,0,0.1,0,0.2
				l-0.9,1.9c-1.7,1.8-5.1,3-6.7,3.7c-3.3,1.6-6.7,2.8-10.2,3.7c-3.1,0.7-6.2,1.2-9.3,1.6c-1.5,0.2-2.8,1.3-3.1,2.8
				c-1.1,3.9,3.2,4.2,5.4,2.2c2.9-2.6,7.8-3,11.5-3.8c0.9-0.2,1.7-0.4,2.5-0.7c-2.3,1.6-4.6,3-7,4.3c-2.1,1.2-6.3,3.3-4,6.3
				c2.6,3.3,7.6-2.3,9.3-3.7c3-2.6,6.9-4.4,10.2-6.6c-0.7,0.8-1.4,1.6-2.2,2.3c-1,1-1.9,2-2.8,3c-1.3,1.3-3.1,2.2-4.3,3.6
				c-1.9,2.2-2.6,4.7,1.3,5c1.7,0.1,2.8-1.2,4-2.2c2.4-2.1,4.1-4.8,6.6-6.9c2.7-2.1,5.5-3.9,8.5-5.4c1-0.5,2-0.7,3.1-0.9
				c0.7,0.1,1.3,0.2,2,0.3c1.6,0.4,2.9,1.2,4.6,1.3c1.1,0,3.9,0.4,4.3-1.3C130.7,190.9,128.1,188.7,125.9,187.8z"/>
			<path class="st9" d="M96.7,194.4c-0.3,0.2-0.7,0.5-1,0.7c3.1-1.2,5.9-3.3,7.8-6c-1.9,1.3-4,2.3-6.1,3.1c-2.4,0.7-4.8,1.3-7.3,1.8
				c-2.1,0.3-4.2,1-6.1,1.9c-0.3,0.2-0.9,0.7-1.3,0.7c-1.7,0-1.9-2.3-3.6-2.4c-1,0.5-1.7,1.4-1.9,2.5c-1.1,3.9,3.2,4.2,5.4,2.2
				c2.9-2.6,7.8-3,11.5-3.8C95.1,194.9,95.9,194.7,96.7,194.4z"/>
			<path class="st9" d="M104.4,195.2c0.9-1,3.3-2.6,3.8-4c-3.1,2.4-8.3,4.2-11.6,6.3c-1.1,0.7-3.7,3.5-5.2,3.5c-0.6,0-0.5,0-1-0.3
				c-0.9-0.6-1.9-0.8-2.9-0.6c-1.7,1.2-3.1,2.8-1.5,4.8c2.6,3.3,7.6-2.3,9.3-3.7C97.8,198.9,101.3,197.2,104.4,195.2z"/>
			<path class="st9" d="M124.6,193.5c-1.9-0.9-4-2.3-6.2-2c-2.4,0.4-4.7,1.3-6.6,2.8c-3.8,2.5-6.8,5.6-9.8,8.9
				c-0.3,0.3-0.6,0.5-1,0.5s-0.8-0.1-1.2-0.4c-1.2-0.6-2.6-0.5-3.7,0.1l0,0c-1.9,2.2-2.6,4.7,1.3,5c1.7,0.1,2.8-1.2,4-2.2
				c2.4-2.1,4.1-4.8,6.6-6.9c2.7-2.1,5.5-3.9,8.5-5.4c1-0.5,2-0.7,3.1-0.9c0.7,0.1,1.3,0.2,2,0.3c1.6,0.4,2.9,1.2,4.6,1.3
				c1.1,0.1,2.2,0,3.2-0.2C127.6,194.7,126,194.3,124.6,193.5z"/>
			<path class="st9" d="M113.1,171.3c0.8-1,1.6-1.9,2.3-2.9c0.2-0.3,1.1-0.5,0.9,0.1c-0.9,3.1-2,6.2-3.2,9.2
				c-1.2,2.7-3.4,7.6,0.5,9.1c2,0.7,4.2,0.9,6.3,0.5c-1-0.1-2-0.3-2.9-0.5c-1.7-0.4-2.8-1.9-2.6-3.6c0.8-1.7,1.9-3.4,2.4-4.7
				c1.2-3.4,2.5-6.9,3.7-10.3c1.2-3,2-6.1,2.4-9.3c0.2-1.7,0.2-3.3-0.1-5c0.4-1.6,0.7-3.4-0.3-4.6c-1.2-1.5-4-0.1-5.2,0.6
				c-1.3,0.8-3.2,2.9-3.1,4.6c0.1,1,0.3,2,0.6,3C115.6,162.3,114.7,166.8,113.1,171.3z"/>
			<path class="st10" d="M108.6,189c0-0.1-0.1,0-0.1,0.1c0.7,2.7-2.9,3.7-3.6,6c0,0.1,0.1,0.1,0.2,0
				C106.3,193.4,110.3,191.5,108.6,189z"/>
			<path class="st10" d="M103.3,189C103.3,188.9,103.2,189,103.3,189c0.1,1.5-2.6,2.5-3.6,3.2c-1.1,0.6-2.1,1.3-2.9,2.2
				c-0.1,0.1,0,0.3,0.1,0.2c1.5-0.9,3-1.8,4.4-2.9C102.2,191.1,103.6,190.2,103.3,189z"/>
			<path class="st7" d="M99,205.5c-0.5-2.4-2.1-2-3.4-0.9c-3,2.1-4.3,7.5-2.2,10.5c0.2,0.2,0.5,0,0.6-0.2c0.5-2.2,1.7-4.3,3.3-5.8
				C98.2,208.3,99.3,206.8,99,205.5z"/>
			<path class="st7" d="M88.2,201.5c-0.8-0.3-1.7-0.1-2.2,0.6c-1.2,0.8-2.3,1.8-3.1,3c-1.3,1.6-2.4,5.2-1.2,7.1
				c0.1,0.3,0.4,0,0.5-0.2c1.1-2.3,2.3-4.4,4.8-5.5c1.2-0.6,2.7-0.8,3-2.4S89.5,202.1,88.2,201.5z"/>
			<path class="st7" d="M79.7,195.6c-1.3-0.8-2.8,0.1-3.8,1.1c-1.3,0.5-2.4,1.4-3.2,2.6c-1,1.7-1.3,5.1,0,6.8c0,0.1,0.1,0,0.2,0
				c0.1-0.1,0.2-0.3,0.3-0.4c0.3-1.5,1.8-3,2.9-3.9c1.1-0.8,2.4-1.3,3.7-1.7c0.5-0.2,1.3-0.5,1.4-1.1
				C81.6,197.6,80.9,196.3,79.7,195.6z"/>
			<path class="st11" d="M153.7,195.8c-1.7-0.7-3.9-0.2-5.7-0.4c-1.1-0.1-2.1-0.3-3.2-0.5c-1.7-0.4-2.8-1.9-2.6-3.6
				c0.8-1.7,1.9-3.4,2.4-4.7c1.2-3.4,2.5-6.9,3.7-10.3c1.2-3,2-6.2,2.4-9.4c0.2-1.7,0.2-3.3-0.1-5c0.4-1.6,0.7-3.4-0.3-4.6
				c-1.1-1.5-4-0.1-5.2,0.6c-1.3,0.8-3.2,2.9-3.1,4.6c0.1,1,0.3,2,0.6,3c1.5,9-3.2,17.4-7.3,25.4v-0.1l0,0c0,0.1,0,0.1,0,0.2
				c-0.3,0.6-0.6,1.2-0.9,1.9c-1.7,1.8-5.1,3-6.7,3.7c-3.3,1.6-6.7,2.8-10.2,3.7c-3.1,0.7-6.2,1.2-9.3,1.6c-1.5,0.2-2.8,1.3-3.1,2.8
				c-1.1,3.9,3.2,4.2,5.4,2.2c2.9-2.6,7.8-3,11.5-3.8c0.9-0.2,1.7-0.4,2.5-0.7c-2.3,1.6-4.6,3-7,4.3c-2.1,1.2-6.3,3.3-4,6.3
				c2.6,3.3,7.6-2.3,9.3-3.7c3-2.6,6.9-4.4,10.2-6.6c-0.7,0.8-1.4,1.6-2.2,2.4c-1,1-1.9,2-2.8,3c-1.3,1.3-3.2,2.2-4.3,3.6
				c-1.9,2.2-2.6,4.7,1.3,5c1.7,0.1,2.9-1.2,4-2.2c2.4-2.1,4.1-4.8,6.6-6.9c2.7-2.1,5.5-3.9,8.5-5.4c1-0.5,2-0.7,3.1-0.9
				c0.7,0.1,1.3,0.2,2,0.3c1.6,0.4,2.9,1.2,4.6,1.3c1.1,0,3.9,0.4,4.3-1.3C158.4,198.9,155.9,196.6,153.7,195.8z"/>
			<path class="st8" d="M123.3,202.7c3.1-1.6,7-3.4,9.4-6c-4.2,2.3-8.7,3.9-13.3,4.8c-2.3,0.5-4.5,1.5-6.8,1.8
				c-2,0.3-3.4-1.3-5.2-1.4c-1.2,0.4-2.1,1.4-2.3,2.7c-1.1,3.9,3.2,4.2,5.4,2.2c2.9-2.6,7.8-3,11.5-3.8
				C122.4,203,122.9,202.9,123.3,202.7z"/>
			<path class="st8" d="M132.5,202.9c1.7-1.6,3.1-3.4,4.3-5.4c-3.8,3.1-8,5.5-12.2,8.2c-1.6,1-3.3,2.8-5.2,3.4
				c-0.3,0.1-0.5,0-0.8-0.2c-1.1-0.8-1.6-1.6-2.7-1.4c-2.1,1.3-4.3,3.1-2.5,5.4c2.6,3.3,7.6-2.3,9.3-3.7
				C125.7,206.8,129.3,205.1,132.5,202.9z"/>
			<path class="st8" d="M142.4,174.1c0.3,0.7,0.7,1.4,1,2.2c0.9-0.9,1.8-1.9,2.5-2.9c0.2-0.3,1.1-0.5,0.9,0.1
				c-0.9,3.3-2.1,6.4-3.7,9.4c-0.8,1.6-1.6,3.1-2.6,4.6c-1.5,2.5-1.5,4.5,0.4,6.6s4,1.6,6.1,1.1c-0.8-0.1-1.5-0.2-2.3-0.4
				c-1.7-0.4-2.8-1.9-2.6-3.6c0.8-1.7,1.9-3.4,2.4-4.7c1.2-3.4,2.5-6.9,3.7-10.3c1.2-3,2-6.2,2.4-9.4c0.2-1.7,0.2-3.3-0.1-5
				c0.4-1.6,0.7-3.4-0.3-4.6c-1.1-1.5-4-0.1-5.2,0.6c-1.3,0.8-3.2,2.9-3.1,4.6c0.1,1,0.3,2,0.6,3C143.1,168.4,143,171.3,142.4,174.1
				z"/>
			<path class="st8" d="M154,202.3c-4.6-1.5-8.4-3.9-13.2-0.9c-2.3,1.5-4.5,3.2-6.6,5.1c-1.7,1.2-3.3,2.6-4.9,4.1
				c-0.3,0.4-1,1.4-1.7,1.3c-1.4-0.3-2.8-0.3-4.2,0c-1.8,2.2-2.3,4.5,1.4,4.8c1.7,0.1,2.9-1.2,4-2.2c2.4-2.1,4.1-4.8,6.6-6.9
				c2.7-2.1,5.5-3.9,8.5-5.4c1-0.5,2-0.7,3.1-0.9c0.7,0.1,1.3,0.2,2,0.3c1.6,0.4,2.9,1.2,4.6,1.3c1,0.1,2,0,2.9-0.1
				C155.8,202.8,154.8,202.6,154,202.3z"/>
			<path class="st7" d="M109.9,204.5c-0.3-1.8-2.3-1.8-3.6-1.4c-1.4,0.5-2.5,2-3,3.5c-1.4,2.5-1.4,6.1-0.9,9c0.1,0.4,0.5,0.2,0.6,0
				c0.4-0.9,0.7-1.9,0.9-2.9c0.7-1.9,1.7-4,3.5-5C108.8,206.9,110.1,206.3,109.9,204.5z"/>
			<path class="st7" d="M118.3,210.8c-0.2-1.3-1.3-2.2-2.5-2.1c-1.2,0.3-2.1,1.2-2.6,2.3c-0.8,0.9-1.3,2.1-1.6,3.3
				c-0.4,1.8-0.7,5.1,0.7,6.6c0.2,0.2,0.5-0.1,0.6-0.3c0.4-2.1,1.1-4,2.2-5.8C115.5,213.8,118.5,212.1,118.3,210.8z"/>
			<path class="st7" d="M127.2,214c-0.2-1.3-1.4-2.1-2.6-1.9c-0.2,0-0.5,0.1-0.7,0.2c-0.9,0.5-1.6,1.3-1.9,2.3
				c-0.7,1.1-1.1,2.4-1.1,3.6c-0.1,1.8,0.1,4.7,1.6,6c0.2,0.1,0.4,0.1,0.6-0.1c0.2-0.2,0.3-0.5,0.3-0.8c0.1-1.4,0.4-2.8,0.9-4.2
				c0.4-1.1,1-2.1,1.9-2.8c0.3-0.2,0.5-0.4,0.7-0.6C127.2,215.3,127.4,214.6,127.2,214z"/>
			<path class="st7" d="M161.2,206.3c0,0.1,0,0.1,0,0.2c1.1-1.1,1.2-3.7,0.9-5c-0.3-1.2-0.9-2.4-1.7-3.4c-1.6-1-4.1-0.9-5.8-0.6
				c0,0-0.1,0.1,0,0.1l0.4,0.1c-1.2,0.1-1.1,2-0.8,2.8c0.5,1.1,2.6,0.8,3.5,1.4C159.1,202.8,161.5,204.4,161.2,206.3z"/>
			<path class="st12" d="M132.7,196.9c-1,1.4-2.9,2-4.3,2.9s-3.1,1.6-4.3,2.8c-0.1,0.1,0,0.2,0.1,0.1c1.6-1,3.3-1.8,4.9-2.8
				C130.3,199.1,132.1,198.3,132.7,196.9C132.9,196.9,132.8,196.8,132.7,196.9z"/>
			<path class="st12" d="M136.6,197.9c-0.7,1-1.5,1.9-2.3,2.8c-0.7,0.6-1.2,1.4-1.6,2.2c0,0.2,0.1,0.2,0.2,0.1
				c0.7-0.7,1.4-1.5,2.1-2.3C135.7,199.9,136.3,198.9,136.6,197.9C136.7,197.9,136.6,197.9,136.6,197.9z"/>
			<path class="st4" d="M228.3,136.7c-10.4-12.8-21.3-25.2-31.9-37.8c-10.8-12.9-21.1-26-32.9-38c-5.6-5.8-11.8-11-18.4-15.6
				c-5-3.4-10.4-6.9-16.4-7.9c-1.8-1.5-3.7-2.9-5.8-4.1c1.4,0.3,2.7,0.8,4,1.5h0.1c-0.9-1.1-1.7-2.4-2.4-3.6c-0.9-0.7-1.9-1.4-2.7-2
				l-0.4-0.3c0.4,0.2,0.9,0.4,1.3,0.6c0.1,0.1,0.3-0.2,0.2-0.3c-5.2-6.6-14.7-15.1-24-15l-1-1c-2.8-2.8-5.8-5.4-9-7.7
				c-1.1-0.8-2.2-1.5-3.4-2c-1.5-1-3.2-1.7-4.9-2.3L80.2,1c-0.9-0.4-1.9-0.6-2.8-0.7c-3.2-0.6-6.5-0.4-9.6,0.6
				c-4.8,1.5-11.9,6.4-13.4,12c-0.3-1-0.4-2-0.2-3c0-0.1,0-0.2-0.1-0.3c-0.4,0.3-0.8,0.6-1.1,1c-0.1,0.1-0.2,0.3-0.3,0.3
				c-0.6,1.3-1,2.7-1,4.1c-0.3-1.4-0.3-2.8,0-4.2v-0.1c-0.6,0.6-1.1,1.3-1.5,2c-0.1,0.5-0.2,0.9-0.3,1.3c-0.2,1.2-0.2,2.5,0.1,3.7
				h-0.2c-1.2,0.1-2.5,0.5-3.6,1l0,0c0.7,0.2,1.3,0.5,1.9,0.9c1.3,0.7,2.4,1.7,3.3,2.8c0.7,1.5,1.8,2.9,2.4,4.4
				c1.4,3.2,3.1,6.3,4,9.7c0.8,2.7,2,5.3,2.7,8.1c0.5,2.4,1.6,4.7,3.2,6.6c-0.9,1.3-1.9,2.5-3.2,3.4c-0.9,0.8-2.1,1.2-3,2.1
				c-0.1,0.1-0.2,0.4,0.1,0.4c2.3,0,4.5-1.3,6.4-2.5c0.4-0.2,0.4,0,0,0.6c-0.1,0.5-0.2,1.1-0.2,1.6c-0.1,1-0.1,2.1,0,3.2
				c0,0.3,0.4,0.2,0.5,0c0.9-1.2,1.6-2.5,2-3.9c0.2,1.7,0.7,3.4,1.5,4.9c-0.3,0.5-0.6,1-0.8,1.6c-1.3,2.9-2.6,5.9-3.7,9
				c-1.9,5.9-3.1,12-3.3,18.2c-0.3,5.6,0.1,11.6,2.7,16.6c2.4,4.2,5.5,7.9,9.2,11c0.4,1.2,0.9,2.4,1.4,3.6c2.5,6.2,6,11.7,9.6,17.3
				c3,4.8,6.7,6.3,12.2,7.4s10.7,1.3,15.9,2.2c2,5.7,2.3,12.1,3.7,17.8c0.2,0.7,1.1,0.2,1.2-0.3c0.5-1.4,0.8-2.9,1.1-4.4
				c0.2,1.5,0.6,3.1,1,4.6c0.1,0.4,0.6,0,0.7-0.2c1-3.3,3.7-6.5,5.7-9.3c1.1-1.5,2.3-3,3.4-4.5c1.3,0.4,2.5,1,3.8,1.6
				c5.9,3,7,11.5,10.1,16.6c0.1,0.2,0.3,0,0.3-0.1c0.5-1.5,0.8-3,0.8-4.5c0.6,1.1,2,4.1,2.3,4.4s0.7,0.1,0.9-0.2
				c0.7-1.5,1.2-3.1,1.3-4.8c0.8,1.6,1.5,3.3,2,5.1c0.1,0.6,0.9,0.3,1.1-0.1c1-1.9,1.3-4.2,2-6.3c1.1-3.2,1.8-6.4,3.4-9.4
				c1.2-2.3,2.6-4.6,4.1-7c3.5,0.3,7,0.3,10.5,0.1c3.9-0.2,7.4-3.6,10.1-5.9c3.8-3.2,8-5.9,12-8.9c3.1,0.2,6.1,0.6,9.1,1.1
				c4.8,0.9,9.9,1.3,14.6,2.4c1.2,0.3,10.8,1.9,11.1,1.4c0,0,0,0.1,0.1,0.1c0.3,0.4,0.9,0,0.9-0.4L228.3,136.7c0-0.2,0-0.2,0-0.3
				C228.3,136.9,228.3,136.8,228.3,136.7z"/>
			<path class="st13" d="M228.3,136.7c-10.4-12.8-21.3-25.2-31.9-37.8c-10.8-12.9-21.1-26-32.9-38c-5.6-5.8-11.8-11-18.4-15.6
				c-5-3.4-10.4-6.9-16.4-7.9c-0.9-0.7-1.8-1.4-2.8-2.1c-6.1-1.4-12.2-0.8-16.2,5c-0.2,0.2-1,0.5-0.9,0c0.2-2.5,1-5,2.2-7.1
				c-5.7,4.3-9.1,10.6-11.8,17.2c-0.1,0.4-0.8,0.9-1,0.3c-0.6-1.2-1-2.6-1-4c-3.6,6.1-5.1,13.5-5.4,20.5s0.1,14.1,2.5,20.7
				c4.5,12.6,14,22.1,25.5,28.4c-1.5-2.2-3-4.4-4.4-6.7c-0.3-0.5,0.6-1.2,1-0.8c8,9.8,20.9,14.8,33,17.5c-1.9-1.4-3.9-2.9-5.7-4.5
				c-0.4-0.3,0.5-1.1,0.9-0.9c9.4,5.2,20,9,30.9,7.7c0.4-0.1,0.5,0.4,0.2,0.7c-2.9,2.9-3.6,7.3-6.8,9.9c-2.6,2.1-7,1.6-10,1
				c-2.2-0.4-4.5-0.8-6.7-1.4c0.6,0.6,1.2,1.3,1.7,2.1c0.3,0.4-0.3,1-0.8,0.9c-2.1-0.5-4.2-1.2-6.3-1.9c0.6,0.4,1.2,0.8,1.8,1.3
				c1,0.7,1.9,1.4,1.9,2.7c-0.2,5.2-2.1,10.2-3,15.4c0,0.3-0.8,0.9-1,0.4c-1.5-2.5-2.9-5.1-4.2-7.8c0,2.2,0,4.4-0.1,6.6
				c0,0.4-0.8,1-1.1,0.5c-2.2-4.3-4.3-8.1-9-9.9c-5-2-9.6-4.6-14.4-6.9c1.4,1.8,2.8,3.5,4.2,5.3c0.3,0.4-0.3,1-0.7,0.9
				c-1.5-0.4-3.1-1.6-4.6-1.8c-2.4-0.1-4.8,0.2-7,1.1l1.4,0.2c2,5.7,2.3,12.1,3.7,17.8c0.2,0.7,1.1,0.2,1.2-0.3
				c0.5-1.4,0.8-2.9,1.1-4.4c0.2,1.5,0.6,3.1,1,4.6c0.1,0.4,0.6,0,0.7-0.2c1-3.3,3.7-6.5,5.7-9.3c1.1-1.5,2.3-3,3.4-4.5
				c1.3,0.4,2.5,1,3.8,1.6c5.9,3,7,11.5,10.1,16.6c0.1,0.2,0.3,0,0.3-0.1c0.5-1.5,0.8-3,0.8-4.5c0.6,1.1,2,4.1,2.3,4.4
				s0.7,0.1,0.9-0.2c0.7-1.5,1.2-3.1,1.3-4.8c0.8,1.6,1.5,3.3,2,5.1c0.1,0.6,0.9,0.3,1.1-0.1c1-1.9,1.3-4.2,2-6.3
				c1.1-3.2,1.8-6.4,3.4-9.4c1.2-2.3,2.6-4.6,4.1-7c3.5,0.3,7,0.3,10.5,0.1c3.9-0.2,7.4-3.6,10.1-5.9c3.8-3.2,8-5.9,12-8.9
				c3.1,0.2,6.1,0.6,9.1,1.1c4.8,0.9,9.9,1.3,14.6,2.4c1.2,0.3,10.8,1.9,11.1,1.4c0,0,0,0.1,0.1,0.1c0.3,0.4,0.9,0,0.9-0.4
				L228.3,136.7c0-0.2,0-0.2,0-0.3C228.3,136.9,228.3,136.8,228.3,136.7z"/>
			<path class="st14" d="M69,46.1c4.4,1.5,4.7-8.1,4.8-10.7c0.2-3.3,0.4-6.4,2.3-9.4c4.1-6.3,10.8-8.8,17.8-10.3
				c0.4-0.2,0.9-0.3,1.3-0.5c0,0,0.1-0.1,0-0.1c-2.3,0.3-4.5,0.4-6.6,0.8c1.5-0.7,3-1.4,4.5-2.2v-0.1c-1.7,0.1-3.4,0.4-5,0.8
				c-0.1-0.1-0.2-0.3-0.4-0.4c0.3-0.1,0.5-0.2,0.7-0.3c1.1-0.3,2.2-0.7,3.2-1.3c0,0,0.2-0.2,0-0.2c-1.5,0-2.8-0.3-4.3-0.3
				c1-0.4,2-0.9,2.9-1.5c0.1-0.1,0.1-0.2,0-0.2c-1.3,0.2-2.5,0.3-3.8,0.3c0.6-0.3,1.2-0.7,1.8-1.2c0,0,0.1-0.1,0-0.1
				c-1.6,0.3-3.1,0.6-4.5,0.9L83.6,10c0.8-0.3,1.5-0.6,2.3-0.8C86,9.2,86.1,9,86,9c-0.8-0.1-1.6-0.1-2.3,0c1.7-0.4,3.3-0.7,4.9-1.2
				c0.1,0,0.3-0.2,0.1-0.3c-1.8-0.1-3-1.2-4.7-1.5c-1.1-0.2-2.2-0.3-3.3-0.3C76.8,5.2,72.8,5.6,69.2,7c0.5-0.3,1-0.6,1.5-0.8
				c0.1-0.1,0.2-0.3,0-0.3L70.3,6c0,0-0.1,0.1,0,0.1c-1.3-0.5-4.1,1.3-5,1.9c-1.2,0.8-2.3,1.6-3.4,2.6c1.3-1.4,2.8-2.8,4.4-3.9
				c0.1-0.1,0.1-0.3-0.1-0.2c-4.9,2.7-9,6.1-11.8,11c-1.5,2.6-3.1,6.2-3.1,9.6c-0.1,0.1-0.1,0.1-0.2,0.2c0-0.1,0.1-0.1,0.1-0.2
				c-0.6,0.2-1.2,1.2-0.7,1.7s0.8,0.8,1.1,1.2c0,0.1,0.1,0.3,0.2,0.5l-0.2,0.3c-0.1,0.1,0.1,0.2,0.2,0.1l0.2-0.2
				c0.2,0.4,0.4,0.8,0.7,1.2c0.2,0.3,0.6,0.4,0.9,0.2c0.8,0.9,1.7,1.8,2.7,2.5c3.1,2.4,6.3,4.1,8.5,7.3C65.6,43,67.2,45.3,69,46.1
				L69,46.1z"/>
			<path class="st6" d="M228.7,137.6c-1.7-2.3-4.3-4-6.4-5.9c-2.7-2.4-5.4-4.8-7.9-7.3l0.8,0.4c0.3,0.1,0.7-0.4,0.5-0.6
				c-4-4.5-7-9.9-10.8-14.7c-4.6-5.8-9.3-11.4-14-17.1c-4.4-5.4-8.4-11-12.8-16.3s-9-10.2-13.6-15.2c-4.8-5.2-10-10-15.6-14.3
				c-2.3-1.8-4.7-3.5-7.3-5c-3.2-1.8-6.8-2.8-10.3-4c-5.4-1.9-11.2-1.4-16.3,1.2c-3.2,1.8-5.7,4.6-7,7.9c-0.1-1.2,0-2.3,0.4-3.4
				c0.1-0.1,0.1-0.3,0.1-0.5c-1.1,0.6-2.1,1.3-3,2c-0.2,0.3-0.4,0.7-0.6,0.9c-1.3,2.2-2.3,4.6-2.9,7.1c-0.5,1.4-0.8,2.9-1,4.3
				c-0.4-1-1-1.7-1.7-1.3c-1.3,0.6-1.6,2.2-2,3.4c-1.1,2.9-1.9,5.9-2.4,9c-1.4,9.1,0.9,19.2,6.8,26.3c0.7,1.1,1.4,2.1,2.2,3.1
				c1.9,2.3,4.7,5.5,7.6,6.5c0.5,0.2,1.1-0.5,0.9-1c-0.5-1.2-1.3-2.3-1.9-3.5c-0.7-1.5-1.2-3.1-1.8-4.7c-0.4-1.1-0.7-2.2-1-3.4
				c0.4,0.8,0.9,1.7,1.4,2.5c3.5,5.5,7.8,10.8,13.5,14.1c0.7,0.4,8.7,5.4,8.1,1.5c-0.4-1.1-0.9-2.1-1.6-3c-0.9-1.7-1.9-3.3-2.7-5.1
				c-0.1-0.2-0.2-0.3-0.2-0.5c2.9,3.3,6.1,6.3,9.6,9c7.1,5.8,15.2,10,24,12.5c1.6,0.4,6.3,1.9,7.5,0.3c0.4-0.7,0.5-1.6,0.2-2.4
				c3.4,2.1,6.9,4,10.5,5.6c4.1,1.7,8.3,3.3,12.6,4.5c2.5,0.8,6.5,2.1,9.1,1.1c0.3-0.1,0.5-0.4,0.5-0.7c0.1-1.3-1.5-2.1-2.4-2.9
				l-1.7-1.5c3.9,2,7.8,3.9,11.8,5.7c3.9,1.7,7.9,3.2,12,4.5c2.1,0.7,5.9,2.6,8.2,1.7C228.5,138.5,229,138,228.7,137.6z"/>
			<path class="st15" d="M113.3,99.7c-3.4-4.8-5.4-10.5-7.8-15.9s-3-11.7-3.1-17.5h-0.1c-0.4,2.7-0.6,5.5-0.7,8.2
				c0.2,3.2,0.8,6.3,1.9,9.4c2.1,5.9,5.3,11.3,9.6,15.9C113.2,99.9,113.3,99.8,113.3,99.7z"/>
			<path class="st15" d="M206.5,126.5c-1.2-2.5-2.5-4.8-4.1-7.1c-3.2-5-6.7-10-10.2-14.8c-0.1-0.1-0.2,0.1-0.1,0.1
				c5,6.8,9.4,14,13.3,21.6c0.5,1,1.9,3.9-0.1,2.8c-2.1-1.1-4.2-2.4-6.2-3.8c-2.6-1.9-5.1-3.9-7.7-5.8c-1.5-1.7-2.9-3.4-4.4-5.1
				s-3.1-3.2-4.8-4.7c0.1-2-1.3-4.8-2.2-6.6c0.2,0,0.3-0.1,0.4-0.2c1.1-1.2,0.3-3.3-0.2-4.6c-1.2-3-2.6-5.8-4.1-8.7
				c-1.6-3.2-3.4-6.2-5.5-9.2h-0.1c2,3.4,3.7,6.9,5.3,10.5c0.8,1.8,1.5,3.6,2.5,5.3c0.4,0.8,0.7,1.7,1,2.6c-0.2-0.6,1.4,3.6,0.1,3.2
				c-2.8-5.4-6.6-10.3-10-15.4c-0.1-0.1-0.3,0-0.2,0.2c4.3,6.8,9.6,13.3,11.4,21.3c0.1,0.7,0.2,1.3,0.2,2c0,1.1-3.2-0.4-3.6-0.5
				c-2-0.9-4-2.1-5.7-3.4c-1.7-1.2-3.5-2.4-5.2-3.6l-0.4-0.3c-1.3-1.4-2.6-2.7-4.1-3.8c-0.2-0.1-0.4,0.2-0.3,0.3
				c3.6,4.1,7.3,8.1,10.5,12.6c1.3,1.9,2.3,3.9,3.1,6c1.3,3.4-4.2,1-4.5,0.8c-1.3-0.5-2.6-1.1-3.9-1.7c-5.1-2.4-9.9-5.4-14.3-9
				c-3.8-3-8.4-6-11.6-9.7c-0.5-1.6-1.1-3.1-1.8-4.7c-2.4-6.2-5.4-12.2-9.1-17.7c-0.1-0.1-0.2,0-0.2,0.1c2.5,4,4.7,8.2,6.7,12.5
				c1,2.1,1.9,4.2,2.6,6.3c0.5,1.4,0.9,2.9,1.1,4.3c0.6,3-2.8,1-3.8,0.4c-3.7-2.6-7.1-5.6-10.3-8.9c-3.5-3.5-6.2-7.6-9.5-11.3
				c0,0-0.1,0-0.1,0.1c1.9,2.5,3.3,5.3,5.2,7.8c2.1,2.5,4.3,5,6.6,7.2c2.2,2.2,4.6,4.2,7.2,5.9c0.9,0.7,3,2.4,4.3,1.8
				s1.2-2.1,0.9-3.7c3.4,5.1,8.9,9.6,13.8,13.2c5.5,4.2,11.9,7.2,18.6,8.8c4.1,1,2.2-3.9,1.4-5.7c-1.4-2.7-3.1-5.3-5.1-7.7
				c-0.6-0.8-1.3-1.7-2-2.5c5.1,4.5,12.9,11,14.4,6.3c0-0.1,0-0.1,0-0.2c2.6,3.3,5.7,6.4,8.4,9.6c1.7,2,3.5,3.7,5.3,5.6
				c0.8,0.8,1.5,1.7,2.2,2.5c0.3,0.3,2,2.6,2,2.6s-0.1,0.1,0,0.1l0.3,0.1h0.1l0,0c-0.3-1.5-1.8-2.8-2.6-4c-1.2-1.7-2.6-3.3-4-4.8
				c5.2,4.6,13,10.8,14,8C208,129,206.9,127.4,206.5,126.5z"/>
			<path class="st15" d="M156,87c-2.8-4.4-6.2-8.4-9.1-12.7c-0.1-0.1-0.3,0-0.2,0.1c1.8,2.9,3.7,5.6,5.6,8.4c1,1.6,2,3.1,2.9,4.7
				c0.3,0.5,3.6,6.7,2.5,6.7c-4,0.2-8.4-2.4-11.9-4.2s-7.2-3.8-9.9-6.6l0,0c3.2,3.5,6.9,6.5,11.1,8.8c2.9,1.7,8.2,4.6,11.7,3.1
				C161.9,94.1,156.8,88.2,156,87z"/>
			<path class="st15" d="M120.8,89.4C120.7,89.4,120.6,89.4,120.8,89.4c3.7,5,6,11.4,8.8,16.9c0.1,0.2,0.3,0,0.3-0.2
				C128.2,100.4,125.1,93.9,120.8,89.4z"/>
			<path class="st16" d="M228.7,137.6c-1.7-2.3-4.3-4-6.4-5.9c-2.7-2.4-5.4-4.8-7.9-7.3l0.8,0.4c0.3,0.1,0.7-0.4,0.5-0.6
				c-4-4.5-7-9.9-10.8-14.7c-4.6-5.8-9.3-11.4-14-17.1c-4.4-5.4-8.4-11-12.8-16.3s-9-10.2-13.6-15.2c-4.8-5.2-10-10-15.6-14.3
				c-2.3-1.8-4.7-3.5-7.3-5c-3.2-1.8-6.8-2.8-10.3-4c-5.4-1.9-11.2-1.4-16.3,1.2c-3.2,1.8-5.7,4.6-7,7.9c-0.1-1.2,0-2.3,0.4-3.4
				c0.1-0.1,0.1-0.3,0.1-0.5c-1.1,0.6-2.1,1.3-3,2c-0.2,0.3-0.4,0.7-0.6,0.9c-1.3,2.2-2.3,4.6-2.9,7.1c-0.5,1.4-0.8,2.9-1,4.3
				c-0.4-1-1-1.7-1.7-1.3c-1.3,0.6-1.6,2.2-2,3.4c-1.1,2.9-1.9,5.9-2.4,9c-0.4,2.8-0.5,5.6-0.3,8.3c0.2-5.1,1.5-10.1,4.9-13.9
				c0.2-0.3,1.2-0.5,0.9,0.1c-5.2,13.7,1.2,30.6,12,40.2c-0.5-1.2-1.3-2.2-1.8-3.4c-0.5-1.2-1-2.4-1.4-3.7
				c-3.9-7.7-5.8-16.7-3.9-24.4c0.1-0.4,0.8-0.9,1-0.3c2.5,6.5,5.4,12.9,8.6,19.1c0-1.5,0.2-3.1,0.5-4.6c0.1-0.4,0.8-0.9,1-0.3
				c2.1,5.4,3.9,11,6.9,16.1c1.2,2.2,2.7,4.3,4.3,6.2c0.6,0.6,1.2,1.1,1.8,1.7c0.4,0.3,0.9,0.6,1.4,0.9c0-0.1,0-0.3,0-0.4
				c-0.4-1.1-0.9-2.1-1.6-3c-0.9-1.7-1.9-3.3-2.7-5.1c-0.1-0.2-0.2-0.3-0.2-0.5c2.9,3.3,6.1,6.3,9.6,9c0.6,0.5,1.2,1,1.9,1.4
				c-3.6-3.6-6.5-7.9-8.4-12.6c-0.2-0.4,0.6-1.1,1-0.7c10.3,11.1,22.7,19.9,37.4,24.1c0.2-0.6,0.2-1.2,0-1.8c3.4,2.1,6.9,4,10.5,5.6
				c4.1,1.7,8.3,3.3,12.6,4.5c2.5,0.8,6.5,2.1,9.1,1.1c0.3-0.1,0.5-0.4,0.5-0.7c0.1-1.3-1.5-2.1-2.4-2.9l-1.7-1.5
				c3.9,2,7.8,3.9,11.8,5.7c3.9,1.7,7.9,3.2,12,4.5c2.1,0.7,5.9,2.6,8.2,1.7C228.5,138.5,229,138,228.7,137.6z M113.5,76.8
				c-3.3-4-5.6-8.9-6.6-14c-1.4-5.3-0.2-10.9,3.2-15.2c0.2-0.2,0.9-0.5,0.9,0c-0.2,9.9-0.2,19.2,3.5,28.6
				C114.7,76.5,113.9,77.2,113.5,76.8z M176.1,80.4c5,4.2,9.4,8.9,13.4,14c3.5,4.4,7.1,9.2,8,14.8c0.1,0.4-0.6,1.1-1,0.7
				c-2.3-2.5-4.5-5.2-6.6-7.8c-5.5-6.5-12.2-12.7-14.8-21C174.9,80.6,175.7,80.1,176.1,80.4z M159.5,90.4c-0.1-0.4,0.5-1,0.9-0.8
				c4.1,2.7,7.2,6.2,10.5,9.8c2.9,3.2,6.1,6.1,8,10.1c0.2,0.5-0.6,0.9-0.9,0.8c-7-2.5-12.9-7.5-16.4-14c0-0.1,0-0.2,0-0.3
				C160.6,94.2,159.9,92.3,159.5,90.4z M151.4,60.5c10.7,4.7,17.3,15.9,20.3,26.8c0.1,0.5-0.6,1.1-1,0.7c-3.1-3.1-5.2-6.9-7.8-10.4
				c-4.2-5.4-10-9.6-12.4-16.3C150.3,60.9,151,60.4,151.4,60.5L151.4,60.5z M155.9,94.5c-9.6-2.7-17.2-8.1-22.4-16.1
				c-3.3-4.6-5.6-10-4.8-15.5c0.1-0.3,0.7-1,1-0.6c4.4,5.7,8.7,11.7,13.8,16.9c4.6,4.6,9.5,9,13.1,14.5
				C157,94.1,156.4,94.7,155.9,94.5L155.9,94.5z M124.3,40.3c2.1,2.4,4.1,5,5.9,7.7c-0.3-0.9-0.5-1.9-0.6-2.9c0-0.3,0.6-0.9,0.9-0.7
				c9.3,6.8,18.3,17.2,19.2,29.2c0,0.4-0.6,0.8-0.9,0.6c-4-2.1-6.8-6.4-9.1-10.1l-1.1-1.8c-0.1,0.3-0.5,0.4-0.8,0.3
				c-6.1-3.5-10.8-9.1-13.2-15.7c-0.4-1.3-0.8-2.6-1-4C123.6,42.8,123.1,39.1,124.3,40.3z M117,46.8L117,46.8c0-1.1,0.1-2.1,0.3-3.2
				c0.1-0.3,0.7-0.8,1-0.5c4.8,6.6,5.7,15.4,6.1,23.4c0,0.4-0.7,1-1,0.6C118.7,61.4,116.5,54.1,117,46.8z M137.9,99.3
				c-12.5-8.8-24.1-21.7-22.4-38.1c0-0.4,0.8-1,1.1-0.5c3.2,7.3,6.4,14.7,11,21.2c3.8,5.5,8.1,10.7,11.3,16.6
				C139,98.9,138.2,99.5,137.9,99.3L137.9,99.3z M172.1,118.2c-5.1,0.1-9.6-3.7-13.8-6.2c-3.6-2.1-7-4.6-10-7.4
				c-0.8-0.7-1.6-1.4-2.3-2.2c-1.3-1.4-4.2-4.3-4.2-6.4c0-0.4,0.4-0.7,0.8-0.7h0.1c6,2.6,11.7,5.9,16.9,9.7c4.7,3.6,8.5,8.3,13,12.2
				C173,117.6,172.4,118.2,172.1,118.2L172.1,118.2z M196.4,129.6c0.3,0.4-0.4,1-0.7,0.9c-2.6-0.4-5.2-1.2-7.7-2.2
				c-0.1,0.1-0.2,0.1-0.3,0.1c-4.4-1.2-9.1-3.3-12-6.9c-0.3-0.3,0.3-0.9,0.6-0.9C183.9,120.7,191.6,123.3,196.4,129.6L196.4,129.6z
				 M204.4,128.5c-4.2-1.7-7.9-4.3-11.1-7.5c-5.1-4.4-10.9-9.9-10.8-17.1c0-0.4,0.6-0.9,1-0.6c7.8,7.6,15.8,15.1,21.7,24.3
				C205.6,128.1,204.8,128.7,204.4,128.5L204.4,128.5z"/>
			<path class="st17" d="M75,120.3c-0.2-0.4,0.5-0.8,0.8-0.8c1,0.1,2,0.2,3,0.3c-1.8-2-4.3-3.2-6.1-5.3s-4-5.2-4.4-8.1
				c-0.8-5.8,0.3-11.4,1.4-17c-1.1,1.9-1.8,3.9-2,6.1c0,0.5-1.1,1.1-1.1,0.4c-0.1-7.4,0.2-14.8,2.9-21.9c2.1-5.4,5.8-10,9.5-14.4
				c-2.1,1-4,2.4-5.5,4.2v0.1c-0.1,0.1-0.1,0.2-0.2,0.2c-0.4,0.5-0.7,1-1,1.5c-0.1,0.2-0.9,0.8-1,0.2c-1.9-8.2,0.3-16.3,3.8-23.8
				c0.9-3.4,2.3-6.7,4.2-9.7c-1.8,2.1-3.2,4.4-4.2,6.9c-0.2,0.4-1,0.9-1.1,0.2c-1-9,3.8-19.6,12.9-21.7c-3.4-0.5-7.2,0.1-9.5,2.6
				c-0.2,0.2-0.9,0.5-0.9,0c-0.1-2.4-0.5-5.3-2.1-7.2c-1.7-2.1-5-3.1-7.2-1c-2.8,2.7-3.5,7.2-3.2,10.9c0,0.4-0.8,1-1,0.6
				c-2.7-4.4-2.5-10.1,0.7-14.2c-2.6,1.5-4.7,3.7-6,6.4c-0.2,0.4-1.1,0.7-1,0C58,9.5,63.1,2.7,69.6,0.4c-0.6,0.1-1.3,0.3-1.9,0.5
				c-4.8,1.5-11.9,6.4-13.4,12c-0.3-1-0.4-2-0.2-3c0-0.1,0-0.2-0.1-0.3c-0.4,0.3-0.8,0.6-1.1,1c-0.1,0.1-0.2,0.3-0.3,0.3
				c-0.6,1.3-1,2.7-1,4.1c-0.3-1.4-0.3-2.8,0-4.2v-0.1c-0.6,0.6-1.1,1.3-1.5,2c-0.1,0.5-0.2,0.9-0.3,1.3c-0.2,1.2-0.2,2.5,0.1,3.7
				h-0.2c-1.2,0.1-2.5,0.5-3.6,1l0,0c0.7,0.2,1.3,0.5,1.9,0.9c1.3,0.7,2.4,1.7,3.3,2.8c0.7,1.5,1.8,2.9,2.4,4.4
				c1.4,3.2,3.1,6.3,4,9.7c0.8,2.7,2,5.3,2.7,8.1c0.5,2.4,1.6,4.7,3.2,6.6c-0.9,1.3-1.9,2.5-3.2,3.4c-0.9,0.8-2.1,1.2-3,2.1
				c-0.1,0.1-0.2,0.4,0.1,0.4c2.3,0,4.5-1.3,6.4-2.5c0.4-0.2,0.4,0,0,0.6c-0.1,0.5-0.2,1.1-0.2,1.6c-0.1,1-0.1,2.1,0,3.2
				c0,0.3,0.4,0.2,0.5,0c0.9-1.2,1.6-2.5,2-3.9c0.2,1.7,0.7,3.4,1.5,4.9c-0.3,0.5-0.6,1-0.8,1.6c-1.3,2.9-2.6,5.9-3.7,9
				c-1.9,5.9-3.1,12-3.3,18.2c-0.3,5.6,0.1,11.6,2.7,16.6c2.4,4.2,5.5,7.9,9.2,11c0.4,1.2,0.9,2.4,1.4,3.6c2.5,6.2,6,11.7,9.6,17.3
				c2.8,4.4,6.2,6.1,11,7.1C84.4,141.2,79.1,129.2,75,120.3z"/>
			<path class="st18" d="M75.2,19.7c1.3,3.9,0.2,7.6-2.3,8.4s-5.5-1.8-6.8-5.7s-0.2-7.6,2.3-8.3S73.9,15.8,75.2,19.7z"/>
			<path class="st19" d="M75.1,19.7c1.2,3.6,0.3,7.1-2,7.8s-5.1-1.7-6.2-5.4s-0.3-7.1,2-7.8S73.9,16.1,75.1,19.7z"/>
			<path class="st20" d="M73.9,20.4c0.7,2.3,0.2,4.5-1.3,5s-3.2-1.1-4-3.4s-0.2-4.5,1.3-5S73.2,18.1,73.9,20.4z"/>
			<path class="st21" d="M69.5,18.3c0.2,1.1-0.2,2.2-0.9,2.4S67.2,20,67,18.9s0.2-2.2,0.9-2.3S69.3,17.2,69.5,18.3z"/>
			<path class="st22" d="M73.7,31.5C74.2,25.9,78.5,21,83.8,19c0.5-0.3,1.1-0.5,1.6-0.8c-7.3,1.3-13.3,7.5-12.1,15.1
				C73.5,32.8,73.6,32.1,73.7,31.5z"/>
			<path class="st23" d="M68.2,38.4c-4.6-4.1-11.8-1.1-16.3,1.3c-6.5,3.6-11.9,8.7-16.9,14c-5,5.5-9.3,11.6-12.8,18.2
				c-1.8,3.3-3.1,6.9-5.1,10.1c-0.6,1-1.1,2.1-1.5,3.2c0,0.1-0.8,2.5-0.4,1.9c0,0.1-0.1,0.2-0.1,0.3c-0.4,1-0.5,2-0.4,3
				c0,0.1,0.1,0.3,0.2,0.3c0.1,0,0.2,0,0.2-0.1c10-10.9,20.2-22.2,32.6-30.4c3.5-2.2,7.2-4,11-5.4c2.7-1,6.9-2.1,8.8-4.6
				C70.2,46.8,72.1,41.9,68.2,38.4z"/>
			<path class="st24" d="M68.2,38.4c-4.6-4.1-11.8-1.1-16.3,1.3c-6.5,3.6-11.9,8.7-16.9,14c-5,5.5-9.3,11.6-12.8,18.2
				c-1.8,3.3-3.1,6.9-5.1,10.1c-0.6,1-1.1,2.1-1.5,3.2c0,0.1-0.8,2.5-0.4,1.9c0,0.1-0.1,0.2-0.1,0.3c-0.2,0.6-0.3,1.2-0.4,1.8
				c3-5.9,7.9-10.7,12.5-15.4c6-6.2,12-12.6,18.8-18c2.9-2.3,6-4.5,9.2-6.5c2.1-1.3,5.3-3.6,8-3.1c2.3,0.3,3.8,2.4,3.5,4.7
				c0,0.1,0,0.2,0,0.2c0.4-0.3,0.7-0.6,1-1C70.2,46.8,72.1,41.9,68.2,38.4z"/>
			<path class="st23" d="M0.6,65c5.8-2.9,11-6.7,16.9-9.3c6.8-3,13.5-6.7,20.7-8.4c7.7-1.9,13.7-3.9,21-4.1c2.1,0,4.2,0.3,6.2,0.9
				c2.8,0.7,5.1,0.8,5.6-2c-2.3-5.7-10.1-6.1-15.2-5.8c-7.4,0.4-14.5,2.7-21.3,5.3c-6.9,2.8-13.4,6.4-19.4,10.8
				c-3.1,2.2-5.8,4.9-9,6.9c-1,0.6-1.9,1.4-2.8,2.3c-0.1,0-1.8,1.8-1.3,1.4c-0.1,0.1-0.1,0.1-0.2,0.2C1.4,63.8,0.9,64.4,0.6,65z"/>
			<path class="st25" d="M68,36.6c-1-1.3-1.9-2.5-2.4-3.2c-1.2-1.6-2.4-3.3-3.6-4.9c-2.1-2.9-4.9-6.7-8.2-8.3
				c-2.5-1.2-5.8-0.2-8,1.1c-4,2.3-7.8,4.9-11.4,7.8c-6.7,5.6-13,11.7-19.2,17.9c-3.3,3.3-6.5,6.7-9.5,10.3c-2,2.4-4.4,5-5.6,8
				c-0.1,0.3,0.2,0.3,0.4,0.2c3-1.9,5.8-4.1,9-6c3.8-2.2,7.6-4.3,11.5-6.3c8.1-3.9,16.6-6.9,25.4-8.9c4-0.9,8.1-2.4,12.3-2.4
				c2.1,0.1,4.1,0.5,6.1,1.2c1.1,0.3,2.5,1.1,3.7,0.9C72,43.3,70.1,39.5,68,36.6z"/>
			<path class="st24" d="M68,36.6c-0.6-0.8-1.2-1.6-1.7-2.2c1.1,2.4,1.7,5.2-0.9,6.7s-6.8-0.7-9.7-0.5c-4.3,0.4-8.6,1.2-12.7,2.5
				c-8.4,2.6-16.5,6.2-24,10.7c-2.2,1.3-4.4,2.7-6.5,4.1c2.8-1.5,5.5-3.1,8.4-4.5c8.1-3.9,16.6-6.9,25.4-8.9c4-0.9,8.1-2.4,12.3-2.4
				c2.1,0.1,4.1,0.5,6.1,1.2c1.1,0.3,2.5,1.1,3.7,0.9C72,43.3,70.1,39.5,68,36.6z"/>
			<g>
				<g>
					
						<radialGradient id="SVGID_5_" cx="-3.61" cy="555.26" r="78.39" gradientTransform="matrix(1 0 0 1 0 -566)" gradientUnits="userSpaceOnUse">
						<stop  offset="0" style="stop-color:#4F514F"/>
						<stop  offset="0.67" style="stop-color:#AAAAA9"/>
						<stop  offset="0.99" style="stop-color:#FFFFFF"/>
					</radialGradient>
					<path class="st26" d="M47.9,22.3c0,0-16.3,6.3-44.6,39.2c0,0,22.3-17.8,40-23.4s15.7-6.9,14-10.8S49.6,21.5,47.9,22.3z"/>
				</g>
			</g>
			<path class="st27" d="M49.6,22.7c-2.1,0.4-1.7,1.5-0.2,2.4c0.9,0.6,2.3,1.5,3.5,1.2c1.5-0.4,1.6-2.4,0.5-3.3
				C52.9,22.5,51,22.4,49.6,22.7z"/>
			<g class="st28">
				<path class="st29" d="M93.9,28.8l-1.6,0.5c2.5-1.7,5.2-2.9,8.1-3.7l0.5-0.1c2.4-0.9,5-1.3,7.5-1.3c1.2,0,2.3,0.1,3.5,0.3
					c-4.1-2.7-8.9-4.1-13.7-3.9c0.4-0.1,0.7-0.2,1.1-0.2c1.9-0.3,3.8,0,5.8-0.1c-6.1-1.9-12.1-2.4-17.9,1c-4.2,2.4-7.4,6.2-9.1,10.8
					c1.8-2.3,4.1-4.2,6.7-5.5c-2.3,1.8-4.2,4-5.5,6.6c-1.7,3.2-2.9,6.7-3.5,10.3c-0.3,2.8-0.2,5.6,0.4,8.3c1.1-5.4,5.2-9.9,6.8-14.6
					c-0.9,2.7-1.3,5.5-1.2,8.3c1.6-3.9,5.3-7.6,8.2-9.7c2.7-2,5.8-3.5,9-4.5c1.7-0.6,3.5-1,5.3-1.3c0.2,0,0.4,0,0.6,0
					C101.3,28.1,97.8,28.1,93.9,28.8z"/>
			</g>
			<path class="st30" d="M86.2,85.2c-0.7-1.8-1.2-3.6-1.6-5.4c-1.4-7,0.2-15.1,3-21.6l0.2-0.7c-6.6,5.8-13.3,12.7-16.5,20.8
				c-0.6,2-1,4.1-1.2,6.2c-0.1,0.6,0.7,0.3,0.8-0.1c1.3-3.9,3.3-7.5,5.9-10.6c-1.5,1.6-2.3,4.1-3.2,6.1c-2.6,5.7-2.9,11.8-2.5,18
				c0.3,5.3,2.8,9.4,6.7,13c2.3,2.2,6.9,6.2,10.2,6.7c0.2,0,0.3-0.1,0.3-0.3c0-0.1,0-0.1,0-0.2c-1.6-1.9-2.9-3.9-4.1-6.1
				c-0.5-0.9-3.7-5.8-1-2.9c2.5,2.5,5.6,4.2,9,5.2c0.4,0.1,1.2-0.4,0.9-0.9c-3.8-6.8-10-14.3-10.1-22.6c2.2,4.2,6,8.5,10.2,10.1
				c0.3,0,0.5-0.1,0.7-0.3C90.4,95.2,87.8,90.4,86.2,85.2z"/>
			<path class="st6" d="M116.9,66.4c0.7,8.7,4.7,16.9,11.1,22.8C123,82.4,119.7,74.4,116.9,66.4z"/>
			<path class="st6" d="M125.8,107.2c-8.5-9.4-16.3-20.2-19.6-32.6c0-0.2-0.3,0-0.2,0.1c0.2,6.2,0.8,11.5,3.7,17
				c3.6,6.9,9.6,11.3,15.8,15.9C125.7,107.8,126,107.4,125.8,107.2z"/>
			<path class="st6" d="M121.4,58.4c-1.2-3.5-2.2-7-2.9-10.6c0-0.1-0.1,0-0.2,0c-0.3,4,0,7.8,2,11.3
				C120.7,59.6,121.5,58.8,121.4,58.4z"/>
			<path class="st6" d="M142.9,85.5c-5.5-6.2-9.9-13.2-13.2-20.7c0-0.1-0.1,0-0.1,0.1c0.8,3.9,1.8,8,3.8,11.5
				c2.3,3.9,5.7,6.7,9.1,9.6C142.7,86.2,143.1,85.8,142.9,85.5z"/>
			<path class="st6" d="M109.8,58.7c-0.5-3.1,0.2-6.2,0.7-9.2c0-0.1-0.2-0.1-0.2,0c-1,2.9-1.9,5.8-2.5,8.8c-0.7,3.6,1,7.2,2.4,10.4
				c0.3,0.6,1.1-0.2,1-0.6C110.9,65,110.3,61.8,109.8,58.7z"/>
			<path class="st6" d="M97.8,79.1c-0.8-3.5-0.4-6.8-0.3-10.3c0-0.1-0.1,0-0.2,0c-0.7,3.4-1.4,6.3-1.1,9.8c0.3,3.8,2.2,7.1,4.4,10.1
				c0.2,0.3,0.6-0.1,0.5-0.3C99.6,85.5,98.6,82.3,97.8,79.1z"/>
			<path class="st6" d="M107.8,144.8c-4.9-0.7-9.8-1.3-14.2-3.6c-4.6-2.4-8-6-11.2-10c0-0.1-0.2,0.1-0.1,0.1c2.6,4.6,5.3,9.1,9.8,12
				c4.1,2.7,10.9,1.9,15.5,2.1C107.8,145.4,108.1,144.9,107.8,144.8z"/>
			<path class="st6" d="M138.5,145c0.8,2.8,1.4,5.7,1.8,8.6c-0.1-0.2-0.3-0.4-0.4-0.7c-4.7-9-13.2-12-22.7-13.8l-3-0.2
				c9.1,3.2,19.8,7.6,25.6,15.8c0.2,0.5,0.5,0.9,0.8,1.3c0.3,0.3,0.8-0.2,0.8-0.5c0-2.6-0.4-5.2-1.1-7.7c0.2,0.4,0.4,0.7,0.7,1.1
				c1.4,2,3.1,3.7,4.4,5.8c0,0.1,0.1,0.1,0.2,0.1C144.2,150.6,142.6,147,138.5,145z"/>
			<path class="st6" d="M145.6,99.4c5.3,7.6,13.7,13.2,22.3,16.3c0.1,0,0.2,0,0.3-0.1C160.2,110.7,152.7,105.3,145.6,99.4z"/>
			<path class="st6" d="M155.3,119c-6.8-3.4-13.5-7.3-19-12.6c-0.6-0.4-1.1-0.8-1.6-1.2c5.5,7.7,12.6,11.4,21.4,14.6
				c0.1,0,0.2,0,0.3-0.1L155.3,119z"/>
			<path class="st6" d="M175.5,106.4c-2.6-2.2-5.1-4.4-7.5-6.8c-0.4-0.4-0.9-0.9-1.3-1.3c-1.5-1.3-3-2.6-4.5-3.8
				c0.4,1,0.9,2,1.5,2.9c0.9,1.3,1.9,2.5,3,3.7c2.5,2.8,5.6,5,9.1,6.6c0.2,0.1,0.5-0.2,0.5-0.5L175.5,106.4z"/>
			<path class="st6" d="M134.9,52.2c0.5,2,1.2,3.9,2,5.8c-2-1.6-3.9-3.4-5.6-5.4c-2.4-2.5-4.4-5.4-6-8.5c-0.1-0.1-0.2,0-0.2,0.1
				c1.9,6.4,6,13.8,12.8,15.9c0.2,0.3,0.4,0.7,0.6,1c2,2.9,4.4,5.5,7.1,7.8C141.7,63.5,138.5,57.7,134.9,52.2z"/>
			<path class="st6" d="M164.1,74.9c-2.3-3.8-5.1-7.4-8.8-9.7c-0.1-0.1-0.2,0.1-0.2,0.2c3.6,4.3,7,8.7,10.2,13.3
				C165,77.5,164.6,76.2,164.1,74.9z"/>
			<path class="st6" d="M191.8,101.3c-2.5-4.2-5.5-8.1-8.7-11.8c-1.1-1-2.1-1.9-3.3-2.8c3.8,5,7.5,10.1,11.6,14.9
				C191.5,101.8,191.9,101.5,191.8,101.3z"/>
			<path class="st6" d="M197.3,121c-1.5-1.4-2.9-2.9-4.4-4.3c-1.2-1.2-2.5-2.3-3.7-3.4c-1.1-0.7-2.2-1.3-3.3-1.9
				c3.8,5.3,8.6,9.8,14.3,13.1C199.1,123.3,198.2,122.1,197.3,121z"/>
			<path class="st31" d="M77.7,196.2c-0.7,0.6-1.8,0.8-2.5,1.3c-0.8,0.6-1.5,1.3-2.1,2.1c-1,1.4-0.7,3.5-0.5,5.1c0,0.1,0.1,0,0.1,0
				c-0.1-1.9,0.1-4,1.4-5.5c0.6-0.8,1.4-1.4,2.2-1.9C76.7,197,77.2,196.7,77.7,196.2C77.7,196.3,77.7,196.2,77.7,196.2z"/>
			<path class="st31" d="M87.1,202.2c-3.5,1.5-6.5,5.4-5.7,9.4l0,0C81.1,207.7,83.9,204,87.1,202.2
				C87.2,202.2,87.2,202.2,87.1,202.2z"/>
			<path class="st31" d="M96.3,204.6c-2.6,2.3-4.4,5.4-3.1,9c0,0,0.1,0,0,0C92.6,210.3,93.8,206.9,96.3,204.6L96.3,204.6z"/>
			<path class="st31" d="M106.1,203.5c-3.5,2.5-4.1,7.2-3.5,11.1c0,0.1,0.1,0,0.1,0C102.3,211,103.1,206.1,106.1,203.5L106.1,203.5z
				"/>
			<path class="st31" d="M115.3,209.3c-3.2,2.6-4.4,6.9-3,10.8c0,0,0.1,0,0,0C111.2,216.2,112.4,212.1,115.3,209.3
				C115.3,209.4,115.3,209.3,115.3,209.3z"/>
			<path class="st31" d="M123.9,212.9L123.9,212.9c-1.3,0.7-2.2,2.5-2.5,3.9c-0.4,2.2-0.2,4.4,0.6,6.4l0,0c-0.4-1.4-0.5-2.9-0.4-4.3
				C121.7,217,122.2,214,123.9,212.9z"/>
			<path class="st31" d="M129.1,189.4L129.1,189.4c1.8,0.4,3.2,2.4,3.9,3.9c0,0,0.1,0,0.1-0.1C132.5,191.4,131.3,189.5,129.1,189.4z
				"/>
			<path class="st31" d="M160.3,199c-1.4-1.4-2.8-1.4-4.6-1.2l0,0c1.5,0.1,2.8,0.2,4,1.3c1.4,1.3,2.2,3.2,2.1,5.2h0.1
				C161.9,202.3,161.8,200.5,160.3,199z"/>
			<path class="st32" d="M1.6,136.4L0.7,134c-0.4-1-0.5-2.1-0.3-3.1l1-4.4c0.2-1,0.8-1.8,1.6-2.4l2.6-1.5c0.8-0.5,1.7-0.8,2.6-0.9
				l5.5-0.5c0.9,0,1.8,0.2,2.6,0.7l3.4,2.2c0.8,0.6,1.4,1.4,1.8,2.3l1.4,3.4c0.3,1,0.3,2,0,3l-1.3,3.2c-0.2,0.4-0.5,0.9-0.8,1.2
				c-0.5,0.5-1.1,0.9-1.8,1.2l-2.8,1.1c-0.9,0.3-1.8,0.5-2.7,0.6l-5.2,0.2c-0.9,0-1.8-0.2-2.6-0.6l-2.1-1.1
				C2.7,138.1,2,137.3,1.6,136.4z"/>
			<path class="st33" d="M19.3,125l-2.9-1.3c-0.2-0.1-0.5-0.2-0.7-0.3c-0.6-0.2-1.3-0.3-1.9-0.4c-0.3,0-0.5-0.1-0.8-0.1h-1.5
				c-0.9,0-1.9,0.1-2.8,0.3l-2,0.5c-0.9,0.2-1.8,0.6-2.6,1.1l-0.7,0.5c-0.8,0.6-1.4,1.4-1.7,2.4l-0.7,2.2c-0.3,0.9-0.1,1.9,0.5,2.7
				l0.6,0.7c0.6,0.6,1.3,0.5,1.6-0.4l0.1-0.2c0.3-0.8,0.7-0.8,0.9,0.1l0.5,2.9c0.1,1,0.6,1.2,1.1,0.6c0.6-0.7,1.4-1.3,2.2-1.8
				l0.9-0.5c0.8-0.4,1.7-0.3,2.3,0.3c0.6,0.5,1.6,0.6,2.2,0.1l1.3-1c0.6-0.4,1.1-1.1,1.3-1.8c0.1-0.5,0.8-0.9,1.5-1l0.9-0.1
				c0.8-0.1,1.8-0.2,2.2-0.2s0.6-0.7,0.4-1.6l-0.4-1.5C20.8,126.2,20.2,125.4,19.3,125z"/>
			<path class="st34" d="M4.9,128.4l0.4,6c0.1,0.9,0.4,1,0.7,0.2l1-2.7c0.3-0.8,1-1.2,1.5-0.8c0.7,0.4,1.5,0.2,2-0.4l2.3-2.7
				c0.6-0.6,1.5-0.9,2.3-0.8l4.1,1c0.8,0.2,1.4-0.4,1.3-1.3v-0.2c-0.1-1-0.5-1.9-1.3-2.5l-3.1-2.2c-0.8-0.5-1.7-0.7-2.6-0.7L8,121.8
				c-0.9,0.1-1.8,0.4-2.6,0.9l-2.6,1.6c-0.7,0.5-1.1,1.5-0.9,2.4l0.1,0.7c0.2,0.9,0.8,1.2,1.5,0.7l0.2-0.1
				C4.3,127.2,4.9,127.5,4.9,128.4z"/>
			<path class="st35" d="M21.3,136.7l1.3-3.2c0.3-0.8,0.2-1-0.3-0.3l-0.9,1.2c-0.5,0.7-1.3,0.7-1.6,0.1c-0.3-0.6-0.4-1.2-0.1-1.4
				c0.3-0.2,0.3-0.7,0-1.1c-0.3-0.4-0.5-0.5-0.3,0s0.1,0.9-0.3,1c-0.4,0.1-0.6,0.9-0.4,1.8v0.2c0.1,0.9-0.2,1.9-0.9,2.5l-1.3,1.1
				c-0.7,0.6-1.6,0.9-2.5,1l-2.3,0.1c-0.9-0.1-1.6-0.7-1.8-1.5l-0.2-0.6c-0.2-0.9-0.6-0.9-0.8,0l-0.1,0.6c-0.2,0.9-0.9,1.3-1.6,1
				l-1-0.5c-0.7-0.4-1.1-0.2-0.9,0.4c0.2,0.6-0.2,0.7-0.8,0.2L4.1,139c-0.8-0.6-1.5-1.4-2-2.2l-1.4-2.4c-0.5-0.7-0.5-0.6-0.2,0.2
				l1,2.4c0.3,0.8,0.8,1.5,1.4,2.2c0.2,0.2,0.5,0.4,0.7,0.6l0.9,0.7c0.8,0.5,1.6,0.9,2.6,1l5.8,0.4c0.9,0,1.8-0.2,2.6-0.6l4-2.4
				C20.3,138.3,20.9,137.6,21.3,136.7z"/>
			<path class="st36" d="M11.3,133.7c0.8,0.3,1.7,0.2,2.4-0.2l0.8-0.5c0.7-0.4,1.2-1.1,1.5-1.9c0.2-0.7,0.9-1.1,1.6-1.1H20
				c0.8,0,0.8,0.1,0,0.2l-1.9,0.2c-0.7,0.1-1.4,0.6-1.6,1.3c-0.3,0.8-0.8,1.4-1.5,1.8l-1.5,0.9c-0.8,0.4-1.7,0.3-2.3-0.3
				C10.6,133.6,10.6,133.4,11.3,133.7z"/>
			<path class="st33" d="M10.5,137.6l0.1,0.5c0.2,0.9,1,1.5,1.9,1.5l2.3-0.1c0.8,0,0.8-0.1,0-0.2l-2.1-0.2c-0.9-0.2-1.6-0.7-2-1.6
				l-0.1-0.1C10.3,136.7,10.2,136.7,10.5,137.6z"/>
			<path class="st36" d="M5.7,127.7c0.2,0.8,0.7,1.5,1.4,1.9l1.5,0.9c0.6,0.4,1.5,0.3,2-0.3c0.4-0.6,0.3-0.8-0.1-0.4
				c-0.7,0.3-1.5,0.3-2.1-0.2l-0.7-0.5c-0.7-0.4-1.2-1-1.6-1.7C5.8,126.9,5.7,127.1,5.7,127.7z"/>
		</g>
	</g>
</g>
</svg>
